<?xml version="1.0" encoding="UTF-8" standalone="no" ?>
<!DOCTYPE sesx>
<sesx version="1.8">

  <session appBuild="13.0.1.35" appVersion="13.0" audioChannelType="stereo" bitDepth="24" duration="22056809" sampleRate="48000">
    <tracks>
      <audioTrack automationLaneOpenState="false" id="10001" index="1" select="false" visible="true">
        <trackParameters trackHeight="98" trackHue="160" trackMinimized="false">
          <name>トラック 1</name>
        </trackParameters>
        <trackAudioParameters audioChannelType="stereo" automationMode="1" monitoring="false" recordArmed="false" solo="false" soloSafe="false">
          <trackOutput outputID="10000" type="trackID"/>
          <trackInput inputID="2"/>
          <component componentGuid="a5e09783-1be3-46db-b9cb-b72f70ad7133" componentID="Audition.Fader" id="trackFader" name="volume" powered="true">
            <parameter index="0" name="volume" parameterValue="1"/>
            <parameter index="1" name="static gain" parameterValue="1"/>
          </component>
          <component componentGuid="178c803d-f585-44ff-89b7-357b299940fc" componentID="Audition.Mute" id="trackMute" name="Mute" powered="true">
            <parameter index="0" parameterValue="0"/>
            <parameter index="1" name="mute" parameterValue="0"/>
          </component>
          <component componentGuid="3aa531b8-957b-411e-9f6c-20a64648f596" componentID="Audition.StereoPanner" id="trackPan" name="StereoPanner" powered="true">
            <parameter index="0" name="パン" parameterValue="0"/>
          </component>
          <component componentGuid="c98cfbe5-074d-4da6-b918-c87d1d898828" componentID="Audition.EQ" id="trackEQ" name="EQ" powered="false">
            <parameter index="0" name="ローシェルビング周波数" parameterValue="0.0008340000058524310588836669921875"/>
            <parameter index="1" name="ローシェルビングゲイン" parameterValue="0.5"/>
            <parameter index="2" name="ハイシェルビング周波数" parameterValue="0.74979150295257568359375"/>
            <parameter index="3" name="ハイシェルビングゲイン" parameterValue="0.5"/>
            <parameter index="4" name="EQ バンド 1 センター周波数" parameterValue="0.001250999979674816131591796875"/>
            <parameter index="5" name="EQ バンド 1 Q" parameterValue="0.000199999994947575032711029052734375"/>
            <parameter index="6" name="EQ バンド 1 ゲイン" parameterValue="0.5"/>
            <parameter index="7" name="EQ バンド 1 有効" parameterValue="1"/>
            <parameter index="8" name="EQ バンド 2 センター周波数" parameterValue="0.0075063002295792102813720703125"/>
            <parameter index="9" name="EQ バンド 2 Q" parameterValue="0.000199999994947575032711029052734375"/>
            <parameter index="10" name="EQ バンド 2 ゲイン" parameterValue="0.5"/>
            <parameter index="11" name="EQ バンド 2 有効" parameterValue="1"/>
            <parameter index="12" name="EQ バンド 3 センター周波数" parameterValue="0.0325271002948284149169921875"/>
            <parameter index="13" name="EQ バンド 3 Q" parameterValue="0.000199999994947575032711029052734375"/>
            <parameter index="14" name="EQ バンド 3 ゲイン" parameterValue="0.5"/>
            <parameter index="15" name="EQ バンド 3 有効" parameterValue="1"/>
            <parameter index="16" name="EQ バンド 4 センター周波数" parameterValue="0.132610499858856201171875"/>
            <parameter index="17" name="EQ バンド 4 Q" parameterValue="0.000199999994947575032711029052734375"/>
            <parameter index="18" name="EQ バンド 4 ゲイン" parameterValue="0.5"/>
            <parameter index="19" name="EQ バンド 4 有効" parameterValue="1"/>
            <parameter index="20" name="EQ バンド 5 センター周波数" parameterValue="0.53294408321380615234375"/>
            <parameter index="21" name="EQ バンド 5 Q" parameterValue="0.000199999994947575032711029052734375"/>
            <parameter index="22" name="EQ バンド 5 ゲイン" parameterValue="0.5"/>
            <parameter index="23" name="EQ バンド 5 有効" parameterValue="1"/>
            <parameter index="24" name="マスターゲイン" parameterValue="0.666666686534881591796875"/>
            <parameter index="25" name="ConstantQ" parameterValue="1"/>
            <parameter index="26" name="ローシェルビングフィルター次数" parameterValue="0"/>
            <parameter index="27" name="ハイシェルビングフィルター次数" parameterValue="0"/>
            <parameter index="28" name="ノイズレスモード" parameterValue="0"/>
            <parameter index="29" name="ローシェルビング有効" parameterValue="1"/>
            <parameter index="30" name="ハイシェルビング有効" parameterValue="1"/>
            <parameter index="31" name="オリジナルサンプルレート" parameterValue="0.25"/>
            <parameter index="32" name="EQ バンド 1 バンド幅" parameterValue="0.0024999999441206455230712890625"/>
            <parameter index="33" name="EQ バンド 2 バンド幅" parameterValue="0.00999999977648258209228515625"/>
            <parameter index="34" name="EQ バンド 3 バンド幅" parameterValue="0.039999999105930328369140625"/>
            <parameter index="35" name="EQ バンド 4 バンド幅" parameterValue="0.1599999964237213134765625"/>
            <parameter index="36" name="EQ バンド 5 バンド幅" parameterValue="0.63999998569488525390625"/>
            <parameter index="37" name="ハイパスフィルター有効" parameterValue="0"/>
            <parameter index="38" name="ハイパスカットオフ周波数" parameterValue="0"/>
            <parameter index="39" name="ハイパススロープ" parameterValue="0.4000000059604644775390625"/>
            <parameter index="40" name="ローパスフィルター有効" parameterValue="0"/>
            <parameter index="41" name="ローパスカットオフ周波数" parameterValue="0.833194315433502197265625"/>
            <parameter index="42" name="ローパススロープ" parameterValue="0.4000000059604644775390625"/>
            <parameter index="43" name="バイパス" parameterValue="0"/>
            <parameter index="44" name="LowGraphRange" parameterValue="1"/>
          </component>
        </trackAudioParameters>
        <editParameter parameterIndex="0" slotIndex="4294967280"/>
        <audioClip clipAutoCrossfade="true" crossFadeHeadClipID="-1" crossFadeTailClipID="-1" endPoint="10205424" fileID="0" hue="-1" id="0" lockedInTime="false" looped="false" name="トラック 1_001" offline="false" select="false" sourceInPoint="0" sourceOutPoint="1025169" startPoint="9180255" zOrder="15">
          <component componentGuid="0d98dc97-eba4-4b0d-8d77-e256248d1e69" componentID="Audition.Fader" id="clipGain" name="volume" powered="true">
            <parameter index="0" name="volume" parameterValue="1"/>
            <parameter index="1" name="static gain" parameterValue="1"/>
          </component>
          <component componentGuid="0ad74da2-32c7-4786-b83d-6889b84e6977" componentID="Audition.Mute" id="clipMute" name="Mute" powered="true">
            <parameter index="0" parameterValue="0"/>
            <parameter index="1" name="mute" parameterValue="0"/>
          </component>
          <component componentGuid="5dd2b402-8523-4d96-9ab3-91872cd65856" componentID="Audition.StereoPanner" id="clipPan" name="StereoPanner" powered="true">
            <parameter index="0" name="パン" parameterValue="0"/>
          </component>
          <fadeIn crossFadeLinkType="linkedAsymmetric" endPoint="0" shape="0" startPoint="0" type="cosine"/>
          <fadeOut crossFadeLinkType="linkedAsymmetric" endPoint="1025169" shape="0" startPoint="1025169" type="cosine"/>
          <take sourceInPoint="0"/>
          <editParameter parameterIndex="0" slotIndex="4294967280"/>
          <editParameter parameterIndex="0" slotIndex="4294967281"/>
          <channelMap>
            <channel index="0" sourceIndex="0"/>
          </channelMap>
        </audioClip>
        <audioClip clipAutoCrossfade="true" crossFadeHeadClipID="-1" crossFadeTailClipID="-1" endPoint="10444224" fileID="1" hue="-1" id="1" lockedInTime="false" looped="false" name="トラック 1_002" offline="false" select="false" sourceInPoint="0" sourceOutPoint="229683" startPoint="10214541" zOrder="16">
          <component componentGuid="b64f10c1-ccb2-4982-a889-75eae09f4c66" componentID="Audition.Fader" id="clipGain" name="volume" powered="true">
            <parameter index="0" name="volume" parameterValue="1"/>
            <parameter index="1" name="static gain" parameterValue="1"/>
          </component>
          <component componentGuid="06d6f13e-1c10-4556-a2b6-1216b711a31d" componentID="Audition.Mute" id="clipMute" name="Mute" powered="true">
            <parameter index="0" parameterValue="0"/>
            <parameter index="1" name="mute" parameterValue="0"/>
          </component>
          <component componentGuid="d88ce992-778b-43c2-85d8-efe26f816edf" componentID="Audition.StereoPanner" id="clipPan" name="StereoPanner" powered="true">
            <parameter index="0" name="パン" parameterValue="0"/>
          </component>
          <fadeIn crossFadeLinkType="linkedAsymmetric" endPoint="0" shape="0" startPoint="0" type="cosine"/>
          <fadeOut crossFadeLinkType="linkedAsymmetric" endPoint="229683" shape="0" startPoint="229683" type="cosine"/>
          <take sourceInPoint="0"/>
          <editParameter parameterIndex="0" slotIndex="4294967280"/>
          <editParameter parameterIndex="0" slotIndex="4294967281"/>
          <channelMap>
            <channel index="0" sourceIndex="0"/>
          </channelMap>
        </audioClip>
        <audioClip clipAutoCrossfade="true" crossFadeHeadClipID="-1" crossFadeTailClipID="-1" endPoint="10712293" fileID="2" hue="-1" id="2" lockedInTime="false" looped="false" name="トラック 1_023" offline="false" select="false" sourceInPoint="0" sourceOutPoint="225183" startPoint="10487110" zOrder="19">
          <component componentGuid="ce1b6d4c-6fe8-4df3-9d4b-1a13d1c427dc" componentID="Audition.Fader" id="clipGain" name="volume" powered="true">
            <parameter index="0" name="volume" parameterValue="1"/>
            <parameter index="1" name="static gain" parameterValue="1"/>
          </component>
          <component componentGuid="ea728d08-3a03-4450-82dc-540455ba2197" componentID="Audition.Mute" id="clipMute" name="Mute" powered="true">
            <parameter index="0" parameterValue="0"/>
            <parameter index="1" name="mute" parameterValue="0"/>
          </component>
          <component componentGuid="3d93d2d1-0473-4219-9746-9a51331f806d" componentID="Audition.StereoPanner" id="clipPan" name="StereoPanner" powered="true">
            <parameter index="0" name="パン" parameterValue="0"/>
          </component>
          <fadeIn crossFadeLinkType="linkedAsymmetric" endPoint="0" shape="0" startPoint="0" type="cosine"/>
          <fadeOut crossFadeLinkType="linkedAsymmetric" endPoint="225183" shape="0" startPoint="225183" type="cosine"/>
          <editParameter parameterIndex="0" slotIndex="4294967281"/>
          <editParameter parameterIndex="0" slotIndex="4294967280"/>
          <channelMap>
            <channel index="0" sourceIndex="0"/>
          </channelMap>
        </audioClip>
        <audioClip clipAutoCrossfade="true" crossFadeHeadClipID="-1" crossFadeTailClipID="-1" endPoint="10970720" fileID="1" hue="-1" id="3" lockedInTime="false" looped="false" name="トラック 1_002" offline="false" select="false" sourceInPoint="229683" sourceOutPoint="474662" startPoint="10725741" zOrder="20">
          <component componentGuid="09c9235b-e9cc-4077-893a-f45690b6b6fc" componentID="Audition.Fader" id="clipGain" name="volume" powered="true">
            <parameter index="0" name="volume" parameterValue="1"/>
            <parameter index="1" name="static gain" parameterValue="1"/>
          </component>
          <component componentGuid="a9b30e1c-c453-41ed-b4b0-adc350a33867" componentID="Audition.Mute" id="clipMute" name="Mute" powered="true">
            <parameter index="0" parameterValue="0"/>
            <parameter index="1" name="mute" parameterValue="0"/>
          </component>
          <component componentGuid="266e4faa-0be3-4855-bf63-31cd20956d13" componentID="Audition.StereoPanner" id="clipPan" name="StereoPanner" powered="true">
            <parameter index="0" name="パン" parameterValue="0"/>
          </component>
          <fadeIn crossFadeLinkType="linkedAsymmetric" endPoint="0" shape="0" startPoint="0" type="cosine"/>
          <fadeOut crossFadeLinkType="linkedAsymmetric" endPoint="244979" shape="0" startPoint="244979" type="cosine"/>
          <editParameter parameterIndex="0" slotIndex="4294967280"/>
          <editParameter parameterIndex="0" slotIndex="4294967281"/>
          <channelMap>
            <channel index="0" sourceIndex="0"/>
          </channelMap>
        </audioClip>
        <audioClip clipAutoCrossfade="true" crossFadeHeadClipID="-1" crossFadeTailClipID="-1" endPoint="11193016" fileID="1" hue="-1" id="4" lockedInTime="false" looped="false" name="トラック 1_002" offline="false" select="false" sourceInPoint="474662" sourceOutPoint="696958" startPoint="10970720" zOrder="21">
          <component componentGuid="3de2bed8-1f86-42d2-8319-7f1094fc94bb" componentID="Audition.Fader" id="clipGain" name="volume" powered="true">
            <parameter index="0" name="volume" parameterValue="1"/>
            <parameter index="1" name="static gain" parameterValue="1"/>
          </component>
          <component componentGuid="8fabf330-6568-483d-aec2-2f2b30927302" componentID="Audition.Mute" id="clipMute" name="Mute" powered="true">
            <parameter index="0" parameterValue="0"/>
            <parameter index="1" name="mute" parameterValue="0"/>
          </component>
          <component componentGuid="00046ff1-a7c6-4685-9ac5-6bdbabc0d5db" componentID="Audition.StereoPanner" id="clipPan" name="StereoPanner" powered="true">
            <parameter index="0" name="パン" parameterValue="0"/>
          </component>
          <fadeIn crossFadeLinkType="linkedAsymmetric" endPoint="0" shape="0" startPoint="0" type="cosine"/>
          <fadeOut crossFadeLinkType="linkedAsymmetric" endPoint="222296" shape="0" startPoint="222296" type="cosine"/>
          <editParameter parameterIndex="0" slotIndex="4294967280"/>
          <editParameter parameterIndex="0" slotIndex="4294967281"/>
          <channelMap>
            <channel index="0" sourceIndex="0"/>
          </channelMap>
        </audioClip>
        <audioClip clipAutoCrossfade="true" crossFadeHeadClipID="-1" crossFadeTailClipID="-1" endPoint="12473514" fileID="2" hue="-1" id="5" lockedInTime="false" looped="false" name="トラック 1_023" offline="false" select="false" sourceInPoint="225183" sourceOutPoint="1165312" startPoint="11533385" zOrder="17">
          <component componentGuid="2b9c7a43-85c3-4312-b21c-c63f3504c9d8" componentID="Audition.Fader" id="clipGain" name="volume" powered="true">
            <parameter index="0" name="volume" parameterValue="1"/>
            <parameter index="1" name="static gain" parameterValue="1"/>
          </component>
          <component componentGuid="f56c8d4f-9a3c-4039-b250-342f8b63725a" componentID="Audition.Mute" id="clipMute" name="Mute" powered="true">
            <parameter index="0" parameterValue="0"/>
            <parameter index="1" name="mute" parameterValue="0"/>
          </component>
          <component componentGuid="5bf86956-01d1-4c3a-8ed2-01dba940bc0a" componentID="Audition.StereoPanner" id="clipPan" name="StereoPanner" powered="true">
            <parameter index="0" name="パン" parameterValue="0"/>
          </component>
          <fadeIn crossFadeLinkType="linkedAsymmetric" endPoint="0" shape="0" startPoint="0" type="cosine"/>
          <fadeOut crossFadeLinkType="linkedAsymmetric" endPoint="940129" shape="0" startPoint="940129" type="cosine"/>
          <editParameter parameterIndex="0" slotIndex="4294967280"/>
          <editParameter parameterIndex="0" slotIndex="4294967281"/>
          <channelMap>
            <channel index="0" sourceIndex="0"/>
          </channelMap>
        </audioClip>
        <audioClip clipAutoCrossfade="true" crossFadeHeadClipID="-1" crossFadeTailClipID="-1" endPoint="13523596" fileID="3" hue="-1" id="6" lockedInTime="false" looped="false" name="トラック 1_024" offline="false" select="false" sourceInPoint="0" sourceOutPoint="939418" startPoint="12584178" zOrder="18">
          <component componentGuid="9216af1b-2e1e-42f9-a6cf-56eda09f9744" componentID="Audition.Fader" id="clipGain" name="volume" powered="true">
            <parameter index="0" name="volume" parameterValue="1"/>
            <parameter index="1" name="static gain" parameterValue="1"/>
          </component>
          <component componentGuid="d06fce3d-4322-46ec-9058-c6f8069341a2" componentID="Audition.Mute" id="clipMute" name="Mute" powered="true">
            <parameter index="0" parameterValue="0"/>
            <parameter index="1" name="mute" parameterValue="0"/>
          </component>
          <component componentGuid="028fcc98-b4f7-480d-9d6c-63159a4edf0b" componentID="Audition.StereoPanner" id="clipPan" name="StereoPanner" powered="true">
            <parameter index="0" name="パン" parameterValue="0"/>
          </component>
          <fadeIn crossFadeLinkType="linkedAsymmetric" endPoint="0" shape="0" startPoint="0" type="cosine"/>
          <fadeOut crossFadeLinkType="linkedAsymmetric" endPoint="939418" shape="0" startPoint="939418" type="cosine"/>
          <take sourceInPoint="0"/>
          <editParameter parameterIndex="0" slotIndex="4294967280"/>
          <editParameter parameterIndex="0" slotIndex="4294967281"/>
          <channelMap>
            <channel index="0" sourceIndex="0"/>
          </channelMap>
        </audioClip>
      </audioTrack>
      <audioTrack automationLaneOpenState="false" id="10002" index="2" select="false" visible="true">
        <trackParameters trackHeight="98" trackHue="267" trackMinimized="false">
          <name>トラック 2</name>
        </trackParameters>
        <trackAudioParameters audioChannelType="stereo" automationMode="1" monitoring="false" recordArmed="false" solo="false" soloSafe="false">
          <trackOutput outputID="10000" type="trackID"/>
          <trackInput inputID="2"/>
          <component componentGuid="ef914467-cdcf-48cb-a236-806f0af40750" componentID="Audition.Fader" id="trackFader" name="volume" powered="true">
            <parameter index="0" name="volume" parameterValue="1"/>
            <parameter index="1" name="static gain" parameterValue="1"/>
          </component>
          <component componentGuid="a2833a16-7237-4250-b4fa-2b9e876f28d7" componentID="Audition.Mute" id="trackMute" name="Mute" powered="true">
            <parameter index="0" parameterValue="0"/>
            <parameter index="1" name="mute" parameterValue="0"/>
          </component>
          <component componentGuid="3f3b1619-2135-4b84-98cf-3642f9beed70" componentID="Audition.StereoPanner" id="trackPan" name="StereoPanner" powered="true">
            <parameter index="0" name="パン" parameterValue="0"/>
          </component>
          <component componentGuid="37cdf6ae-7791-49f9-a575-909a185f76eb" componentID="Audition.EQ" id="trackEQ" name="EQ" powered="false">
            <parameter index="0" name="ローシェルビング周波数" parameterValue="0.0008340000058524310588836669921875"/>
            <parameter index="1" name="ローシェルビングゲイン" parameterValue="0.5"/>
            <parameter index="2" name="ハイシェルビング周波数" parameterValue="0.74979150295257568359375"/>
            <parameter index="3" name="ハイシェルビングゲイン" parameterValue="0.5"/>
            <parameter index="4" name="EQ バンド 1 センター周波数" parameterValue="0.001250999979674816131591796875"/>
            <parameter index="5" name="EQ バンド 1 Q" parameterValue="0.000199999994947575032711029052734375"/>
            <parameter index="6" name="EQ バンド 1 ゲイン" parameterValue="0.5"/>
            <parameter index="7" name="EQ バンド 1 有効" parameterValue="1"/>
            <parameter index="8" name="EQ バンド 2 センター周波数" parameterValue="0.0075063002295792102813720703125"/>
            <parameter index="9" name="EQ バンド 2 Q" parameterValue="0.000199999994947575032711029052734375"/>
            <parameter index="10" name="EQ バンド 2 ゲイン" parameterValue="0.5"/>
            <parameter index="11" name="EQ バンド 2 有効" parameterValue="1"/>
            <parameter index="12" name="EQ バンド 3 センター周波数" parameterValue="0.0325271002948284149169921875"/>
            <parameter index="13" name="EQ バンド 3 Q" parameterValue="0.000199999994947575032711029052734375"/>
            <parameter index="14" name="EQ バンド 3 ゲイン" parameterValue="0.5"/>
            <parameter index="15" name="EQ バンド 3 有効" parameterValue="1"/>
            <parameter index="16" name="EQ バンド 4 センター周波数" parameterValue="0.132610499858856201171875"/>
            <parameter index="17" name="EQ バンド 4 Q" parameterValue="0.000199999994947575032711029052734375"/>
            <parameter index="18" name="EQ バンド 4 ゲイン" parameterValue="0.5"/>
            <parameter index="19" name="EQ バンド 4 有効" parameterValue="1"/>
            <parameter index="20" name="EQ バンド 5 センター周波数" parameterValue="0.53294408321380615234375"/>
            <parameter index="21" name="EQ バンド 5 Q" parameterValue="0.000199999994947575032711029052734375"/>
            <parameter index="22" name="EQ バンド 5 ゲイン" parameterValue="0.5"/>
            <parameter index="23" name="EQ バンド 5 有効" parameterValue="1"/>
            <parameter index="24" name="マスターゲイン" parameterValue="0.666666686534881591796875"/>
            <parameter index="25" name="ConstantQ" parameterValue="1"/>
            <parameter index="26" name="ローシェルビングフィルター次数" parameterValue="0"/>
            <parameter index="27" name="ハイシェルビングフィルター次数" parameterValue="0"/>
            <parameter index="28" name="ノイズレスモード" parameterValue="0"/>
            <parameter index="29" name="ローシェルビング有効" parameterValue="1"/>
            <parameter index="30" name="ハイシェルビング有効" parameterValue="1"/>
            <parameter index="31" name="オリジナルサンプルレート" parameterValue="0.25"/>
            <parameter index="32" name="EQ バンド 1 バンド幅" parameterValue="0.0024999999441206455230712890625"/>
            <parameter index="33" name="EQ バンド 2 バンド幅" parameterValue="0.00999999977648258209228515625"/>
            <parameter index="34" name="EQ バンド 3 バンド幅" parameterValue="0.039999999105930328369140625"/>
            <parameter index="35" name="EQ バンド 4 バンド幅" parameterValue="0.1599999964237213134765625"/>
            <parameter index="36" name="EQ バンド 5 バンド幅" parameterValue="0.63999998569488525390625"/>
            <parameter index="37" name="ハイパスフィルター有効" parameterValue="0"/>
            <parameter index="38" name="ハイパスカットオフ周波数" parameterValue="0"/>
            <parameter index="39" name="ハイパススロープ" parameterValue="0.4000000059604644775390625"/>
            <parameter index="40" name="ローパスフィルター有効" parameterValue="0"/>
            <parameter index="41" name="ローパスカットオフ周波数" parameterValue="0.833194315433502197265625"/>
            <parameter index="42" name="ローパススロープ" parameterValue="0.4000000059604644775390625"/>
            <parameter index="43" name="バイパス" parameterValue="0"/>
            <parameter index="44" name="LowGraphRange" parameterValue="1"/>
          </component>
        </trackAudioParameters>
        <editParameter parameterIndex="0" slotIndex="4294967280"/>
        <audioClip clipAutoCrossfade="true" crossFadeHeadClipID="-1" crossFadeTailClipID="-1" endPoint="10288423" fileID="4" hue="-1" id="0" lockedInTime="false" looped="false" name="トラック 2_003" offline="false" select="false" sourceInPoint="0" sourceOutPoint="1108168" startPoint="9180255" zOrder="15">
          <component componentGuid="fa688506-e830-48da-98d4-edddc1dceee5" componentID="Audition.Fader" id="clipGain" name="volume" powered="true">
            <parameter index="0" name="volume" parameterValue="1"/>
            <parameter index="1" name="static gain" parameterValue="1"/>
          </component>
          <component componentGuid="22239c78-70bb-477b-8f17-d343417c62a0" componentID="Audition.Mute" id="clipMute" name="Mute" powered="true">
            <parameter index="0" parameterValue="0"/>
            <parameter index="1" name="mute" parameterValue="0"/>
          </component>
          <component componentGuid="ba9db9e3-e484-43f8-8fa0-db65439061ed" componentID="Audition.StereoPanner" id="clipPan" name="StereoPanner" powered="true">
            <parameter index="0" name="パン" parameterValue="0"/>
          </component>
          <fadeIn crossFadeLinkType="linkedAsymmetric" endPoint="0" shape="0" startPoint="0" type="cosine"/>
          <fadeOut crossFadeLinkType="linkedAsymmetric" endPoint="1108168" shape="0" startPoint="1108168" type="cosine"/>
          <take sourceInPoint="0"/>
          <editParameter parameterIndex="0" slotIndex="4294967280"/>
          <editParameter parameterIndex="0" slotIndex="4294967281"/>
          <channelMap>
            <channel index="0" sourceIndex="0"/>
          </channelMap>
        </audioClip>
        <audioClip clipAutoCrossfade="true" crossFadeHeadClipID="-1" crossFadeTailClipID="-1" endPoint="11193016" fileID="5" hue="-1" id="1" lockedInTime="false" looped="false" name="トラック 2_009" offline="false" select="false" sourceInPoint="0" sourceOutPoint="753987" startPoint="10439029" zOrder="19">
          <component componentGuid="6689b5c9-bb02-4a50-883c-914a8ecee676" componentID="Audition.Fader" id="clipGain" name="volume" powered="true">
            <parameter index="0" name="volume" parameterValue="1"/>
            <parameter index="1" name="static gain" parameterValue="1"/>
          </component>
          <component componentGuid="53f20145-a200-45c0-9958-fa37b59126ec" componentID="Audition.Mute" id="clipMute" name="Mute" powered="true">
            <parameter index="0" parameterValue="0"/>
            <parameter index="1" name="mute" parameterValue="0"/>
          </component>
          <component componentGuid="b72c7b56-35c2-4a1c-871d-582531d825b2" componentID="Audition.StereoPanner" id="clipPan" name="StereoPanner" powered="true">
            <parameter index="0" name="パン" parameterValue="0"/>
          </component>
          <fadeIn crossFadeLinkType="linkedAsymmetric" endPoint="0" shape="0" startPoint="0" type="cosine"/>
          <fadeOut crossFadeLinkType="linkedAsymmetric" endPoint="753987" shape="0" startPoint="753987" type="cosine"/>
          <editParameter parameterIndex="0" slotIndex="4294967280"/>
          <editParameter parameterIndex="0" slotIndex="4294967281"/>
          <channelMap>
            <channel index="0" sourceIndex="0"/>
          </channelMap>
        </audioClip>
        <audioClip clipAutoCrossfade="true" crossFadeHeadClipID="-1" crossFadeTailClipID="-1" endPoint="12432116" fileID="6" hue="-1" id="2" lockedInTime="false" looped="false" name="トラック 2_025" offline="false" select="false" sourceInPoint="0" sourceOutPoint="918528" startPoint="11513588" zOrder="16">
          <component componentGuid="adfa9685-285a-42b1-9a4f-6d55f60a717b" componentID="Audition.Fader" id="clipGain" name="volume" powered="true">
            <parameter index="0" name="volume" parameterValue="1"/>
            <parameter index="1" name="static gain" parameterValue="1"/>
          </component>
          <component componentGuid="1d51ab1b-4d36-40ee-bf3f-8fd11e1dadda" componentID="Audition.Mute" id="clipMute" name="Mute" powered="true">
            <parameter index="0" parameterValue="0"/>
            <parameter index="1" name="mute" parameterValue="0"/>
          </component>
          <component componentGuid="782d980b-1f98-4f91-88dd-8dec84614e9f" componentID="Audition.StereoPanner" id="clipPan" name="StereoPanner" powered="true">
            <parameter index="0" name="パン" parameterValue="0"/>
          </component>
          <fadeIn crossFadeLinkType="linkedAsymmetric" endPoint="0" shape="0" startPoint="0" type="cosine"/>
          <fadeOut crossFadeLinkType="linkedAsymmetric" endPoint="918528" shape="0" startPoint="918528" type="cosine"/>
          <take sourceInPoint="0"/>
          <editParameter parameterIndex="0" slotIndex="4294967280"/>
          <editParameter parameterIndex="0" slotIndex="4294967281"/>
          <channelMap>
            <channel index="0" sourceIndex="0"/>
          </channelMap>
        </audioClip>
        <audioClip clipAutoCrossfade="true" crossFadeHeadClipID="-1" crossFadeTailClipID="-1" endPoint="13256215" fileID="7" hue="-1" id="3" lockedInTime="false" looped="false" name="トラック 2_026" offline="false" select="false" sourceInPoint="0" sourceOutPoint="763213" startPoint="12493002" zOrder="17">
          <component componentGuid="6fb33a9f-f8dc-48c1-90f7-0191842b7302" componentID="Audition.Fader" id="clipGain" name="volume" powered="true">
            <parameter index="0" name="volume" parameterValue="1"/>
            <parameter index="1" name="static gain" parameterValue="1"/>
          </component>
          <component componentGuid="757e8c58-f28e-4951-a685-cbd40db9427f" componentID="Audition.Mute" id="clipMute" name="Mute" powered="true">
            <parameter index="0" parameterValue="0"/>
            <parameter index="1" name="mute" parameterValue="0"/>
          </component>
          <component componentGuid="a6c91203-a1ec-4eee-9a94-5857ef22f267" componentID="Audition.StereoPanner" id="clipPan" name="StereoPanner" powered="true">
            <parameter index="0" name="パン" parameterValue="0"/>
          </component>
          <fadeIn crossFadeLinkType="linkedAsymmetric" endPoint="0" shape="0" startPoint="0" type="cosine"/>
          <fadeOut crossFadeLinkType="linkedAsymmetric" endPoint="763213" shape="0" startPoint="763213" type="cosine"/>
          <take sourceInPoint="0"/>
          <editParameter parameterIndex="0" slotIndex="4294967280"/>
          <editParameter parameterIndex="0" slotIndex="4294967281"/>
          <channelMap>
            <channel index="0" sourceIndex="0"/>
          </channelMap>
        </audioClip>
        <audioClip clipAutoCrossfade="true" crossFadeHeadClipID="-1" crossFadeTailClipID="-1" endPoint="14637346" fileID="8" hue="-1" id="4" lockedInTime="false" looped="false" name="トラック 2_027" offline="false" select="false" sourceInPoint="0" sourceOutPoint="1065984" startPoint="13571362" zOrder="18">
          <component componentGuid="b696ee92-18af-4b98-8304-5ec35eb1b3d6" componentID="Audition.Fader" id="clipGain" name="volume" powered="true">
            <parameter index="0" name="volume" parameterValue="1"/>
            <parameter index="1" name="static gain" parameterValue="1"/>
          </component>
          <component componentGuid="5481d5b6-2b94-4837-ab6b-018dbd511742" componentID="Audition.Mute" id="clipMute" name="Mute" powered="true">
            <parameter index="0" parameterValue="0"/>
            <parameter index="1" name="mute" parameterValue="0"/>
          </component>
          <component componentGuid="24819ae8-ff56-440c-9992-9116d62ff33d" componentID="Audition.StereoPanner" id="clipPan" name="StereoPanner" powered="true">
            <parameter index="0" name="パン" parameterValue="0"/>
          </component>
          <fadeIn crossFadeLinkType="linkedAsymmetric" endPoint="0" shape="0" startPoint="0" type="cosine"/>
          <fadeOut crossFadeLinkType="linkedAsymmetric" endPoint="1065984" shape="0" startPoint="1065984" type="cosine"/>
          <take sourceInPoint="0"/>
          <editParameter parameterIndex="0" slotIndex="4294967280"/>
          <editParameter parameterIndex="0" slotIndex="4294967281"/>
          <channelMap>
            <channel index="0" sourceIndex="0"/>
          </channelMap>
        </audioClip>
      </audioTrack>
      <audioTrack automationLaneOpenState="false" id="10003" index="3" select="false" visible="true">
        <trackParameters trackHeight="98" trackHue="51" trackMinimized="false">
          <name>トラック 3</name>
        </trackParameters>
        <trackAudioParameters audioChannelType="stereo" automationMode="1" monitoring="false" recordArmed="false" solo="false" soloSafe="false">
          <trackOutput outputID="10000" type="trackID"/>
          <trackInput inputID="1"/>
          <component componentGuid="74320560-433b-4101-849f-9739358ec9f6" componentID="Audition.Fader" id="trackFader" name="volume" powered="true">
            <parameter index="0" name="volume" parameterValue="1"/>
            <parameter index="1" name="static gain" parameterValue="1"/>
          </component>
          <component componentGuid="ca38bf77-50c5-41fe-b99a-b929ae15a8cf" componentID="Audition.Mute" id="trackMute" name="Mute" powered="true">
            <parameter index="0" parameterValue="0"/>
            <parameter index="1" name="mute" parameterValue="0"/>
          </component>
          <component componentGuid="cd90f143-9e12-4191-bbf9-e65aa95dd89a" componentID="Audition.StereoPanner" id="trackPan" name="StereoPanner" powered="true">
            <parameter index="0" name="パン" parameterValue="0"/>
          </component>
          <component componentGuid="dfb45e3b-839a-49d9-83ca-9888d1d3f704" componentID="Audition.EQ" id="trackEQ" name="EQ" powered="false">
            <parameter index="0" name="ローシェルビング周波数" parameterValue="0.0008340000058524310588836669921875"/>
            <parameter index="1" name="ローシェルビングゲイン" parameterValue="0.5"/>
            <parameter index="2" name="ハイシェルビング周波数" parameterValue="0.74979150295257568359375"/>
            <parameter index="3" name="ハイシェルビングゲイン" parameterValue="0.5"/>
            <parameter index="4" name="EQ バンド 1 センター周波数" parameterValue="0.001250999979674816131591796875"/>
            <parameter index="5" name="EQ バンド 1 Q" parameterValue="0.000199999994947575032711029052734375"/>
            <parameter index="6" name="EQ バンド 1 ゲイン" parameterValue="0.5"/>
            <parameter index="7" name="EQ バンド 1 有効" parameterValue="1"/>
            <parameter index="8" name="EQ バンド 2 センター周波数" parameterValue="0.0075063002295792102813720703125"/>
            <parameter index="9" name="EQ バンド 2 Q" parameterValue="0.000199999994947575032711029052734375"/>
            <parameter index="10" name="EQ バンド 2 ゲイン" parameterValue="0.5"/>
            <parameter index="11" name="EQ バンド 2 有効" parameterValue="1"/>
            <parameter index="12" name="EQ バンド 3 センター周波数" parameterValue="0.0325271002948284149169921875"/>
            <parameter index="13" name="EQ バンド 3 Q" parameterValue="0.000199999994947575032711029052734375"/>
            <parameter index="14" name="EQ バンド 3 ゲイン" parameterValue="0.5"/>
            <parameter index="15" name="EQ バンド 3 有効" parameterValue="1"/>
            <parameter index="16" name="EQ バンド 4 センター周波数" parameterValue="0.132610499858856201171875"/>
            <parameter index="17" name="EQ バンド 4 Q" parameterValue="0.000199999994947575032711029052734375"/>
            <parameter index="18" name="EQ バンド 4 ゲイン" parameterValue="0.5"/>
            <parameter index="19" name="EQ バンド 4 有効" parameterValue="1"/>
            <parameter index="20" name="EQ バンド 5 センター周波数" parameterValue="0.53294408321380615234375"/>
            <parameter index="21" name="EQ バンド 5 Q" parameterValue="0.000199999994947575032711029052734375"/>
            <parameter index="22" name="EQ バンド 5 ゲイン" parameterValue="0.5"/>
            <parameter index="23" name="EQ バンド 5 有効" parameterValue="1"/>
            <parameter index="24" name="マスターゲイン" parameterValue="0.666666686534881591796875"/>
            <parameter index="25" name="ConstantQ" parameterValue="1"/>
            <parameter index="26" name="ローシェルビングフィルター次数" parameterValue="0"/>
            <parameter index="27" name="ハイシェルビングフィルター次数" parameterValue="0"/>
            <parameter index="28" name="ノイズレスモード" parameterValue="0"/>
            <parameter index="29" name="ローシェルビング有効" parameterValue="1"/>
            <parameter index="30" name="ハイシェルビング有効" parameterValue="1"/>
            <parameter index="31" name="オリジナルサンプルレート" parameterValue="0.25"/>
            <parameter index="32" name="EQ バンド 1 バンド幅" parameterValue="0.0024999999441206455230712890625"/>
            <parameter index="33" name="EQ バンド 2 バンド幅" parameterValue="0.00999999977648258209228515625"/>
            <parameter index="34" name="EQ バンド 3 バンド幅" parameterValue="0.039999999105930328369140625"/>
            <parameter index="35" name="EQ バンド 4 バンド幅" parameterValue="0.1599999964237213134765625"/>
            <parameter index="36" name="EQ バンド 5 バンド幅" parameterValue="0.63999998569488525390625"/>
            <parameter index="37" name="ハイパスフィルター有効" parameterValue="0"/>
            <parameter index="38" name="ハイパスカットオフ周波数" parameterValue="0"/>
            <parameter index="39" name="ハイパススロープ" parameterValue="0.4000000059604644775390625"/>
            <parameter index="40" name="ローパスフィルター有効" parameterValue="0"/>
            <parameter index="41" name="ローパスカットオフ周波数" parameterValue="0.833194315433502197265625"/>
            <parameter index="42" name="ローパススロープ" parameterValue="0.4000000059604644775390625"/>
            <parameter index="43" name="バイパス" parameterValue="0"/>
            <parameter index="44" name="LowGraphRange" parameterValue="1"/>
          </component>
        </trackAudioParameters>
        <editParameter parameterIndex="0" slotIndex="4294967280"/>
        <audioClip clipAutoCrossfade="true" crossFadeHeadClipID="-1" crossFadeTailClipID="-1" endPoint="10151834" fileID="9" hue="-1" id="0" lockedInTime="false" looped="false" name="トラック 3_010" offline="false" select="false" sourceInPoint="0" sourceOutPoint="914432" startPoint="9237402" zOrder="15">
          <component componentGuid="19daf163-144c-4b49-859e-6ad70e1d60ed" componentID="Audition.Fader" id="clipGain" name="volume" powered="true">
            <parameter index="0" name="volume" parameterValue="1"/>
            <parameter index="1" name="static gain" parameterValue="1"/>
          </component>
          <component componentGuid="c283126a-aed6-45bc-b1b7-7948bcecd6ce" componentID="Audition.Mute" id="clipMute" name="Mute" powered="true">
            <parameter index="0" parameterValue="0"/>
            <parameter index="1" name="mute" parameterValue="0"/>
          </component>
          <component componentGuid="f27e07c5-3a34-4b2e-9bf5-b3cfaa21e6ca" componentID="Audition.StereoPanner" id="clipPan" name="StereoPanner" powered="true">
            <parameter index="0" name="パン" parameterValue="0"/>
          </component>
          <fadeIn crossFadeLinkType="linkedAsymmetric" endPoint="0" shape="0" startPoint="0" type="cosine"/>
          <fadeOut crossFadeLinkType="linkedAsymmetric" endPoint="914432" shape="0" startPoint="914432" type="cosine"/>
          <take sourceInPoint="0"/>
          <editParameter parameterIndex="0" slotIndex="4294967281"/>
          <editParameter parameterIndex="0" slotIndex="4294967280"/>
          <channelMap>
            <channel index="0" sourceIndex="0"/>
          </channelMap>
        </audioClip>
        <audioClip clipAutoCrossfade="true" crossFadeHeadClipID="-1" crossFadeTailClipID="-1" endPoint="10670076" fileID="10" hue="-1" id="1" lockedInTime="false" looped="false" name="トラック 3_021" offline="false" select="false" sourceInPoint="0" sourceOutPoint="182966" startPoint="10487110" zOrder="16">
          <component componentGuid="5f541b95-a7c1-464a-a754-f1c8b73ea2a7" componentID="Audition.Fader" id="clipGain" name="volume" powered="true">
            <parameter index="0" name="volume" parameterValue="1"/>
            <parameter index="1" name="static gain" parameterValue="1"/>
          </component>
          <component componentGuid="a1dfdc58-6008-4d3e-84ff-e00181c423e5" componentID="Audition.Mute" id="clipMute" name="Mute" powered="true">
            <parameter index="0" parameterValue="0"/>
            <parameter index="1" name="mute" parameterValue="0"/>
          </component>
          <component componentGuid="875645e5-6666-406c-bd8c-231ef505266d" componentID="Audition.StereoPanner" id="clipPan" name="StereoPanner" powered="true">
            <parameter index="0" name="パン" parameterValue="0"/>
          </component>
          <fadeIn crossFadeLinkType="linkedAsymmetric" endPoint="0" shape="0" startPoint="0" type="cosine"/>
          <fadeOut crossFadeLinkType="linkedAsymmetric" endPoint="182966" shape="0" startPoint="182966" type="cosine"/>
          <take sourceInPoint="0"/>
          <editParameter parameterIndex="0" slotIndex="4294967280"/>
          <editParameter parameterIndex="0" slotIndex="4294967281"/>
          <channelMap>
            <channel index="0" sourceIndex="0"/>
          </channelMap>
        </audioClip>
        <audioClip clipAutoCrossfade="true" crossFadeHeadClipID="-1" crossFadeTailClipID="-1" endPoint="11097945" fileID="11" hue="-1" id="2" lockedInTime="false" looped="false" name="トラック 3_022" offline="false" select="false" sourceInPoint="0" sourceOutPoint="267763" startPoint="10830182" zOrder="17">
          <component componentGuid="b8676b70-c85c-46ef-adb2-7e40ca59f96e" componentID="Audition.Fader" id="clipGain" name="volume" powered="true">
            <parameter index="0" name="volume" parameterValue="1"/>
            <parameter index="1" name="static gain" parameterValue="1"/>
          </component>
          <component componentGuid="8e17861f-e80a-4935-b98a-29fde90742cc" componentID="Audition.Mute" id="clipMute" name="Mute" powered="true">
            <parameter index="0" parameterValue="0"/>
            <parameter index="1" name="mute" parameterValue="0"/>
          </component>
          <component componentGuid="cc4423e9-f38a-4ac1-bec7-26f227b799e7" componentID="Audition.StereoPanner" id="clipPan" name="StereoPanner" powered="true">
            <parameter index="0" name="パン" parameterValue="0"/>
          </component>
          <fadeIn crossFadeLinkType="linkedAsymmetric" endPoint="0" shape="0" startPoint="0" type="cosine"/>
          <fadeOut crossFadeLinkType="linkedAsymmetric" endPoint="267763" shape="0" startPoint="267763" type="cosine"/>
          <take sourceInPoint="0"/>
          <editParameter parameterIndex="0" slotIndex="4294967280"/>
          <editParameter parameterIndex="0" slotIndex="4294967281"/>
          <channelMap>
            <channel index="0" sourceIndex="0"/>
          </channelMap>
        </audioClip>
      </audioTrack>
      <audioTrack automationLaneOpenState="false" id="10004" index="4" select="false" visible="true">
        <trackParameters trackHeight="98" trackHue="182" trackMinimized="false">
          <name>トラック 4</name>
        </trackParameters>
        <trackAudioParameters audioChannelType="stereo" automationMode="1" monitoring="false" recordArmed="false" solo="false" soloSafe="false">
          <trackOutput outputID="10000" type="trackID"/>
          <trackInput inputID="1"/>
          <component componentGuid="3f998ab3-ee3b-4316-99a0-1f9f1b4dac40" componentID="Audition.Fader" id="trackFader" name="volume" powered="true">
            <parameter index="0" name="volume" parameterValue="1"/>
            <parameter index="1" name="static gain" parameterValue="1"/>
          </component>
          <component componentGuid="8b3d2cbe-7745-48df-90b8-58b3754ec0fd" componentID="Audition.Mute" id="trackMute" name="Mute" powered="true">
            <parameter index="0" parameterValue="0"/>
            <parameter index="1" name="mute" parameterValue="0"/>
          </component>
          <component componentGuid="592158c4-94c7-4a83-84e8-0d038e053a33" componentID="Audition.StereoPanner" id="trackPan" name="StereoPanner" powered="true">
            <parameter index="0" name="パン" parameterValue="0"/>
          </component>
          <component componentGuid="1871216e-72aa-4cfd-aa6e-f93c0e6c5c5a" componentID="Audition.EQ" id="trackEQ" name="EQ" powered="false">
            <parameter index="0" name="ローシェルビング周波数" parameterValue="0.0008340000058524310588836669921875"/>
            <parameter index="1" name="ローシェルビングゲイン" parameterValue="0.5"/>
            <parameter index="2" name="ハイシェルビング周波数" parameterValue="0.74979150295257568359375"/>
            <parameter index="3" name="ハイシェルビングゲイン" parameterValue="0.5"/>
            <parameter index="4" name="EQ バンド 1 センター周波数" parameterValue="0.001250999979674816131591796875"/>
            <parameter index="5" name="EQ バンド 1 Q" parameterValue="0.000199999994947575032711029052734375"/>
            <parameter index="6" name="EQ バンド 1 ゲイン" parameterValue="0.5"/>
            <parameter index="7" name="EQ バンド 1 有効" parameterValue="1"/>
            <parameter index="8" name="EQ バンド 2 センター周波数" parameterValue="0.0075063002295792102813720703125"/>
            <parameter index="9" name="EQ バンド 2 Q" parameterValue="0.000199999994947575032711029052734375"/>
            <parameter index="10" name="EQ バンド 2 ゲイン" parameterValue="0.5"/>
            <parameter index="11" name="EQ バンド 2 有効" parameterValue="1"/>
            <parameter index="12" name="EQ バンド 3 センター周波数" parameterValue="0.0325271002948284149169921875"/>
            <parameter index="13" name="EQ バンド 3 Q" parameterValue="0.000199999994947575032711029052734375"/>
            <parameter index="14" name="EQ バンド 3 ゲイン" parameterValue="0.5"/>
            <parameter index="15" name="EQ バンド 3 有効" parameterValue="1"/>
            <parameter index="16" name="EQ バンド 4 センター周波数" parameterValue="0.132610499858856201171875"/>
            <parameter index="17" name="EQ バンド 4 Q" parameterValue="0.000199999994947575032711029052734375"/>
            <parameter index="18" name="EQ バンド 4 ゲイン" parameterValue="0.5"/>
            <parameter index="19" name="EQ バンド 4 有効" parameterValue="1"/>
            <parameter index="20" name="EQ バンド 5 センター周波数" parameterValue="0.53294408321380615234375"/>
            <parameter index="21" name="EQ バンド 5 Q" parameterValue="0.000199999994947575032711029052734375"/>
            <parameter index="22" name="EQ バンド 5 ゲイン" parameterValue="0.5"/>
            <parameter index="23" name="EQ バンド 5 有効" parameterValue="1"/>
            <parameter index="24" name="マスターゲイン" parameterValue="0.666666686534881591796875"/>
            <parameter index="25" name="ConstantQ" parameterValue="1"/>
            <parameter index="26" name="ローシェルビングフィルター次数" parameterValue="0"/>
            <parameter index="27" name="ハイシェルビングフィルター次数" parameterValue="0"/>
            <parameter index="28" name="ノイズレスモード" parameterValue="0"/>
            <parameter index="29" name="ローシェルビング有効" parameterValue="1"/>
            <parameter index="30" name="ハイシェルビング有効" parameterValue="1"/>
            <parameter index="31" name="オリジナルサンプルレート" parameterValue="0.25"/>
            <parameter index="32" name="EQ バンド 1 バンド幅" parameterValue="0.0024999999441206455230712890625"/>
            <parameter index="33" name="EQ バンド 2 バンド幅" parameterValue="0.00999999977648258209228515625"/>
            <parameter index="34" name="EQ バンド 3 バンド幅" parameterValue="0.039999999105930328369140625"/>
            <parameter index="35" name="EQ バンド 4 バンド幅" parameterValue="0.1599999964237213134765625"/>
            <parameter index="36" name="EQ バンド 5 バンド幅" parameterValue="0.63999998569488525390625"/>
            <parameter index="37" name="ハイパスフィルター有効" parameterValue="0"/>
            <parameter index="38" name="ハイパスカットオフ周波数" parameterValue="0"/>
            <parameter index="39" name="ハイパススロープ" parameterValue="0.4000000059604644775390625"/>
            <parameter index="40" name="ローパスフィルター有効" parameterValue="0"/>
            <parameter index="41" name="ローパスカットオフ周波数" parameterValue="0.833194315433502197265625"/>
            <parameter index="42" name="ローパススロープ" parameterValue="0.4000000059604644775390625"/>
            <parameter index="43" name="バイパス" parameterValue="0"/>
            <parameter index="44" name="LowGraphRange" parameterValue="1"/>
          </component>
        </trackAudioParameters>
        <editParameter parameterIndex="0" slotIndex="4294967280"/>
        <audioClip clipAutoCrossfade="true" crossFadeHeadClipID="-1" crossFadeTailClipID="-1" endPoint="9533155" fileID="12" hue="-1" id="0" lockedInTime="false" looped="false" name="トラック 4_011" offline="false" select="false" sourceInPoint="0" sourceOutPoint="352900" startPoint="9180255" zOrder="15">
          <component componentGuid="ee184f9b-e492-4513-8f18-05073e7d9aec" componentID="Audition.Fader" id="clipGain" name="volume" powered="true">
            <parameter index="0" name="volume" parameterValue="1"/>
            <parameter index="1" name="static gain" parameterValue="1"/>
          </component>
          <component componentGuid="5cbc5ab4-47bc-4987-a2d0-a611ec3318b3" componentID="Audition.Mute" id="clipMute" name="Mute" powered="true">
            <parameter index="0" parameterValue="0"/>
            <parameter index="1" name="mute" parameterValue="0"/>
          </component>
          <component componentGuid="134af1bf-43de-4578-b28a-a092f1530e43" componentID="Audition.StereoPanner" id="clipPan" name="StereoPanner" powered="true">
            <parameter index="0" name="パン" parameterValue="0"/>
          </component>
          <fadeIn crossFadeLinkType="linkedAsymmetric" endPoint="0" shape="0" startPoint="0" type="cosine"/>
          <fadeOut crossFadeLinkType="linkedAsymmetric" endPoint="352900" shape="0" startPoint="352900" type="cosine"/>
          <take sourceInPoint="0"/>
          <editParameter parameterIndex="0" slotIndex="4294967281"/>
          <editParameter parameterIndex="0" slotIndex="4294967280"/>
          <channelMap>
            <channel index="0" sourceIndex="0"/>
          </channelMap>
        </audioClip>
        <audioClip clipAutoCrossfade="true" crossFadeHeadClipID="-1" crossFadeTailClipID="-1" endPoint="9865676" fileID="12" hue="-1" id="1" lockedInTime="false" looped="false" name="トラック 4_011" offline="false" select="false" sourceInPoint="352900" sourceOutPoint="685421" startPoint="9533155" zOrder="16">
          <component componentGuid="aa256253-2987-44ea-8044-6bc63ef311f3" componentID="Audition.Fader" id="clipGain" name="volume" powered="true">
            <parameter index="0" name="volume" parameterValue="1"/>
            <parameter index="1" name="static gain" parameterValue="1"/>
          </component>
          <component componentGuid="1ab40053-d0d8-4499-aee1-58b826a2682f" componentID="Audition.Mute" id="clipMute" name="Mute" powered="true">
            <parameter index="0" parameterValue="0"/>
            <parameter index="1" name="mute" parameterValue="0"/>
          </component>
          <component componentGuid="ed8629d2-395e-4d9e-bb52-cae6d47dab10" componentID="Audition.StereoPanner" id="clipPan" name="StereoPanner" powered="true">
            <parameter index="0" name="パン" parameterValue="0"/>
          </component>
          <fadeIn crossFadeLinkType="linkedAsymmetric" endPoint="0" shape="0" startPoint="0" type="cosine"/>
          <fadeOut crossFadeLinkType="linkedAsymmetric" endPoint="332521" shape="0" startPoint="332521" type="cosine"/>
          <editParameter parameterIndex="0" slotIndex="4294967281"/>
          <editParameter parameterIndex="0" slotIndex="4294967280"/>
          <channelMap>
            <channel index="0" sourceIndex="0"/>
          </channelMap>
        </audioClip>
        <audioClip clipAutoCrossfade="true" crossFadeHeadClipID="-1" crossFadeTailClipID="-1" endPoint="10176444" fileID="12" hue="-1" id="2" lockedInTime="false" looped="false" name="トラック 4_011" offline="false" select="false" sourceInPoint="685421" sourceOutPoint="996189" startPoint="9865676" zOrder="17">
          <component componentGuid="4559fd58-41ea-449c-bf89-4acea1446124" componentID="Audition.Fader" id="clipGain" name="volume" powered="true">
            <parameter index="0" name="volume" parameterValue="1"/>
            <parameter index="1" name="static gain" parameterValue="1"/>
          </component>
          <component componentGuid="62468594-13eb-4f18-beb9-bdcc993d9480" componentID="Audition.Mute" id="clipMute" name="Mute" powered="true">
            <parameter index="0" parameterValue="0"/>
            <parameter index="1" name="mute" parameterValue="0"/>
          </component>
          <component componentGuid="958dea2c-d530-4e5a-aa48-6eae0ecf66da" componentID="Audition.StereoPanner" id="clipPan" name="StereoPanner" powered="true">
            <parameter index="0" name="パン" parameterValue="0"/>
          </component>
          <fadeIn crossFadeLinkType="linkedAsymmetric" endPoint="0" shape="0" startPoint="0" type="cosine"/>
          <fadeOut crossFadeLinkType="linkedAsymmetric" endPoint="310768" shape="0" startPoint="310768" type="cosine"/>
          <editParameter parameterIndex="0" slotIndex="4294967281"/>
          <editParameter parameterIndex="0" slotIndex="4294967280"/>
          <channelMap>
            <channel index="0" sourceIndex="0"/>
          </channelMap>
        </audioClip>
        <audioClip clipAutoCrossfade="true" crossFadeHeadClipID="-1" crossFadeTailClipID="-1" endPoint="10471674" fileID="12" hue="-1" id="3" lockedInTime="false" looped="false" name="トラック 4_011" offline="false" select="false" sourceInPoint="996189" sourceOutPoint="1291419" startPoint="10176444" zOrder="18">
          <component componentGuid="a57af9f4-d722-40d2-bd32-4b298d83c8a3" componentID="Audition.Fader" id="clipGain" name="volume" powered="true">
            <parameter index="0" name="volume" parameterValue="1"/>
            <parameter index="1" name="static gain" parameterValue="1"/>
          </component>
          <component componentGuid="3d7ad2b2-5fd7-4505-864d-83f6d9e394ec" componentID="Audition.Mute" id="clipMute" name="Mute" powered="true">
            <parameter index="0" parameterValue="0"/>
            <parameter index="1" name="mute" parameterValue="0"/>
          </component>
          <component componentGuid="06cc5372-11c8-4532-bc7a-e7ad3db1fdfe" componentID="Audition.StereoPanner" id="clipPan" name="StereoPanner" powered="true">
            <parameter index="0" name="パン" parameterValue="0"/>
          </component>
          <fadeIn crossFadeLinkType="linkedAsymmetric" endPoint="0" shape="0" startPoint="0" type="cosine"/>
          <fadeOut crossFadeLinkType="linkedAsymmetric" endPoint="295230" shape="0" startPoint="295230" type="cosine"/>
          <editParameter parameterIndex="0" slotIndex="4294967281"/>
          <editParameter parameterIndex="0" slotIndex="4294967280"/>
          <channelMap>
            <channel index="0" sourceIndex="0"/>
          </channelMap>
        </audioClip>
        <audioClip clipAutoCrossfade="true" crossFadeHeadClipID="-1" crossFadeTailClipID="-1" endPoint="10806073" fileID="12" hue="-1" id="4" lockedInTime="false" looped="false" name="トラック 4_011" offline="false" select="false" sourceInPoint="1291419" sourceOutPoint="1625818" startPoint="10471674" zOrder="19">
          <component componentGuid="a3333606-4e37-4abe-a462-9dbfd9999bce" componentID="Audition.Fader" id="clipGain" name="volume" powered="true">
            <parameter index="0" name="volume" parameterValue="1"/>
            <parameter index="1" name="static gain" parameterValue="1"/>
          </component>
          <component componentGuid="1d3dfdc1-cfda-4d53-a352-17217b64dfc8" componentID="Audition.Mute" id="clipMute" name="Mute" powered="true">
            <parameter index="0" parameterValue="0"/>
            <parameter index="1" name="mute" parameterValue="0"/>
          </component>
          <component componentGuid="22e0c096-3c5f-4bbb-b39e-93f7486c2dc2" componentID="Audition.StereoPanner" id="clipPan" name="StereoPanner" powered="true">
            <parameter index="0" name="パン" parameterValue="0"/>
          </component>
          <fadeIn crossFadeLinkType="linkedAsymmetric" endPoint="0" shape="0" startPoint="0" type="cosine"/>
          <fadeOut crossFadeLinkType="linkedAsymmetric" endPoint="334399" shape="0" startPoint="334399" type="cosine"/>
          <editParameter parameterIndex="0" slotIndex="4294967281"/>
          <editParameter parameterIndex="0" slotIndex="4294967280"/>
          <channelMap>
            <channel index="0" sourceIndex="0"/>
          </channelMap>
        </audioClip>
        <audioClip clipAutoCrossfade="true" crossFadeHeadClipID="-1" crossFadeTailClipID="-1" endPoint="11100255" fileID="13" hue="-1" id="5" lockedInTime="false" looped="false" name="トラック 4_012" offline="false" select="false" sourceInPoint="0" sourceOutPoint="154126" startPoint="10946129" zOrder="20">
          <component componentGuid="25ad7007-4ea0-46b6-9320-cb82fbc0d933" componentID="Audition.Fader" id="clipGain" name="volume" powered="true">
            <parameter index="0" name="volume" parameterValue="1"/>
            <parameter index="1" name="static gain" parameterValue="1"/>
          </component>
          <component componentGuid="637e8566-59b0-470b-a719-c105184c602d" componentID="Audition.Mute" id="clipMute" name="Mute" powered="true">
            <parameter index="0" parameterValue="0"/>
            <parameter index="1" name="mute" parameterValue="0"/>
          </component>
          <component componentGuid="e3f1cb4a-604b-453a-a75b-40c30c0a8893" componentID="Audition.StereoPanner" id="clipPan" name="StereoPanner" powered="true">
            <parameter index="0" name="パン" parameterValue="0"/>
          </component>
          <fadeIn crossFadeLinkType="linkedAsymmetric" endPoint="0" shape="0" startPoint="0" type="cosine"/>
          <fadeOut crossFadeLinkType="linkedAsymmetric" endPoint="154126" shape="0" startPoint="154126" type="cosine"/>
          <take sourceInPoint="0"/>
          <editParameter parameterIndex="0" slotIndex="4294967280"/>
          <editParameter parameterIndex="0" slotIndex="4294967281"/>
          <channelMap>
            <channel index="0" sourceIndex="0"/>
          </channelMap>
        </audioClip>
      </audioTrack>
      <audioTrack automationLaneOpenState="false" id="10005" index="5" select="false" visible="true">
        <trackParameters trackHeight="98" trackHue="294" trackMinimized="false">
          <name>トラック 5</name>
        </trackParameters>
        <trackAudioParameters audioChannelType="stereo" automationMode="1" monitoring="false" recordArmed="false" solo="false" soloSafe="false">
          <trackOutput outputID="10000" type="trackID"/>
          <trackInput inputID="2"/>
          <component componentGuid="b5e1a794-5e99-4db9-80b4-cb568a043d27" componentID="Audition.Fader" id="trackFader" name="volume" powered="true">
            <parameter index="0" name="volume" parameterValue="1"/>
            <parameter index="1" name="static gain" parameterValue="1"/>
          </component>
          <component componentGuid="fd77b1aa-73dd-4612-a6ac-2b50754dae3b" componentID="Audition.Mute" id="trackMute" name="Mute" powered="true">
            <parameter index="0" parameterValue="0"/>
            <parameter index="1" name="mute" parameterValue="0"/>
          </component>
          <component componentGuid="a7849695-f096-4100-b7cf-2b1e29a8c5d9" componentID="Audition.StereoPanner" id="trackPan" name="StereoPanner" powered="true">
            <parameter index="0" name="パン" parameterValue="0"/>
          </component>
          <component componentGuid="1593bc8f-023a-48c4-aec9-324f4095e361" componentID="Audition.EQ" id="trackEQ" name="EQ" powered="false">
            <parameter index="0" name="ローシェルビング周波数" parameterValue="0.0008340000058524310588836669921875"/>
            <parameter index="1" name="ローシェルビングゲイン" parameterValue="0.5"/>
            <parameter index="2" name="ハイシェルビング周波数" parameterValue="0.74979150295257568359375"/>
            <parameter index="3" name="ハイシェルビングゲイン" parameterValue="0.5"/>
            <parameter index="4" name="EQ バンド 1 センター周波数" parameterValue="0.001250999979674816131591796875"/>
            <parameter index="5" name="EQ バンド 1 Q" parameterValue="0.000199999994947575032711029052734375"/>
            <parameter index="6" name="EQ バンド 1 ゲイン" parameterValue="0.5"/>
            <parameter index="7" name="EQ バンド 1 有効" parameterValue="1"/>
            <parameter index="8" name="EQ バンド 2 センター周波数" parameterValue="0.0075063002295792102813720703125"/>
            <parameter index="9" name="EQ バンド 2 Q" parameterValue="0.000199999994947575032711029052734375"/>
            <parameter index="10" name="EQ バンド 2 ゲイン" parameterValue="0.5"/>
            <parameter index="11" name="EQ バンド 2 有効" parameterValue="1"/>
            <parameter index="12" name="EQ バンド 3 センター周波数" parameterValue="0.0325271002948284149169921875"/>
            <parameter index="13" name="EQ バンド 3 Q" parameterValue="0.000199999994947575032711029052734375"/>
            <parameter index="14" name="EQ バンド 3 ゲイン" parameterValue="0.5"/>
            <parameter index="15" name="EQ バンド 3 有効" parameterValue="1"/>
            <parameter index="16" name="EQ バンド 4 センター周波数" parameterValue="0.132610499858856201171875"/>
            <parameter index="17" name="EQ バンド 4 Q" parameterValue="0.000199999994947575032711029052734375"/>
            <parameter index="18" name="EQ バンド 4 ゲイン" parameterValue="0.5"/>
            <parameter index="19" name="EQ バンド 4 有効" parameterValue="1"/>
            <parameter index="20" name="EQ バンド 5 センター周波数" parameterValue="0.53294408321380615234375"/>
            <parameter index="21" name="EQ バンド 5 Q" parameterValue="0.000199999994947575032711029052734375"/>
            <parameter index="22" name="EQ バンド 5 ゲイン" parameterValue="0.5"/>
            <parameter index="23" name="EQ バンド 5 有効" parameterValue="1"/>
            <parameter index="24" name="マスターゲイン" parameterValue="0.666666686534881591796875"/>
            <parameter index="25" name="ConstantQ" parameterValue="1"/>
            <parameter index="26" name="ローシェルビングフィルター次数" parameterValue="0"/>
            <parameter index="27" name="ハイシェルビングフィルター次数" parameterValue="0"/>
            <parameter index="28" name="ノイズレスモード" parameterValue="0"/>
            <parameter index="29" name="ローシェルビング有効" parameterValue="1"/>
            <parameter index="30" name="ハイシェルビング有効" parameterValue="1"/>
            <parameter index="31" name="オリジナルサンプルレート" parameterValue="0.25"/>
            <parameter index="32" name="EQ バンド 1 バンド幅" parameterValue="0.0024999999441206455230712890625"/>
            <parameter index="33" name="EQ バンド 2 バンド幅" parameterValue="0.00999999977648258209228515625"/>
            <parameter index="34" name="EQ バンド 3 バンド幅" parameterValue="0.039999999105930328369140625"/>
            <parameter index="35" name="EQ バンド 4 バンド幅" parameterValue="0.1599999964237213134765625"/>
            <parameter index="36" name="EQ バンド 5 バンド幅" parameterValue="0.63999998569488525390625"/>
            <parameter index="37" name="ハイパスフィルター有効" parameterValue="0"/>
            <parameter index="38" name="ハイパスカットオフ周波数" parameterValue="0"/>
            <parameter index="39" name="ハイパススロープ" parameterValue="0.4000000059604644775390625"/>
            <parameter index="40" name="ローパスフィルター有効" parameterValue="0"/>
            <parameter index="41" name="ローパスカットオフ周波数" parameterValue="0.833194315433502197265625"/>
            <parameter index="42" name="ローパススロープ" parameterValue="0.4000000059604644775390625"/>
            <parameter index="43" name="バイパス" parameterValue="0"/>
            <parameter index="44" name="LowGraphRange" parameterValue="1"/>
          </component>
        </trackAudioParameters>
        <editParameter parameterIndex="0" slotIndex="4294967280"/>
        <audioClip clipAutoCrossfade="true" crossFadeHeadClipID="-1" crossFadeTailClipID="-1" endPoint="11066356" fileID="14" hue="-1" id="0" lockedInTime="false" looped="false" name="トラック 5_014" offline="false" select="false" sourceInPoint="0" sourceOutPoint="1886101" startPoint="9180255" zOrder="15">
          <component componentGuid="802c8ebe-5139-4314-80bd-e5d7fd3d876d" componentID="Audition.Fader" id="clipGain" name="volume" powered="true">
            <parameter index="0" name="volume" parameterValue="1"/>
            <parameter index="1" name="static gain" parameterValue="1"/>
          </component>
          <component componentGuid="80b3b41d-665e-4946-b1b5-a182e9d5b55d" componentID="Audition.Mute" id="clipMute" name="Mute" powered="true">
            <parameter index="0" parameterValue="0"/>
            <parameter index="1" name="mute" parameterValue="0"/>
          </component>
          <component componentGuid="47a3deb8-3ee7-46be-94ff-e76501bf21e5" componentID="Audition.StereoPanner" id="clipPan" name="StereoPanner" powered="true">
            <parameter index="0" name="パン" parameterValue="0"/>
          </component>
          <fadeIn crossFadeLinkType="linkedAsymmetric" endPoint="0" shape="0" startPoint="0" type="cosine"/>
          <fadeOut crossFadeLinkType="linkedAsymmetric" endPoint="1886101" shape="0" startPoint="1886101" type="cosine"/>
          <take sourceInPoint="0"/>
          <editParameter parameterIndex="0" slotIndex="4294967280"/>
          <editParameter parameterIndex="0" slotIndex="4294967281"/>
          <channelMap>
            <channel index="0" sourceIndex="0"/>
          </channelMap>
        </audioClip>
        <audioClip clipAutoCrossfade="true" crossFadeHeadClipID="-1" crossFadeTailClipID="-1" endPoint="12201864" fileID="15" hue="-1" id="1" lockedInTime="false" looped="false" name="トラック 5_016" offline="false" select="false" sourceInPoint="866098" sourceOutPoint="1055927" startPoint="12012035" zOrder="16">
          <component componentGuid="6a277823-b6e1-4bec-80dc-55ec7244f3db" componentID="Audition.Fader" id="clipGain" name="volume" powered="true">
            <parameter index="0" name="volume" parameterValue="1"/>
            <parameter index="1" name="static gain" parameterValue="1"/>
          </component>
          <component componentGuid="e9ffe4f6-cb4b-4c5c-8321-1a6ca5b8092e" componentID="Audition.Mute" id="clipMute" name="Mute" powered="true">
            <parameter index="0" parameterValue="0"/>
            <parameter index="1" name="mute" parameterValue="0"/>
          </component>
          <component componentGuid="54f2a60a-db88-4591-bc2d-dab2dd8b765e" componentID="Audition.StereoPanner" id="clipPan" name="StereoPanner" powered="true">
            <parameter index="0" name="パン" parameterValue="0"/>
          </component>
          <fadeIn crossFadeLinkType="linkedAsymmetric" endPoint="0" shape="0" startPoint="0" type="cosine"/>
          <fadeOut crossFadeLinkType="linkedAsymmetric" endPoint="189829" shape="0" startPoint="189829" type="cosine"/>
          <editParameter parameterIndex="0" slotIndex="4294967280"/>
          <editParameter parameterIndex="0" slotIndex="4294967281"/>
          <channelMap>
            <channel index="0" sourceIndex="0"/>
          </channelMap>
        </audioClip>
        <audioClip clipAutoCrossfade="true" crossFadeHeadClipID="-1" crossFadeTailClipID="-1" endPoint="12903678" fileID="16" hue="-1" id="2" lockedInTime="false" looped="false" name="トラック 5_017" offline="false" select="false" sourceInPoint="0" sourceOutPoint="664224" startPoint="12239454" zOrder="17">
          <component componentGuid="c3748d84-adaf-493c-8737-d50b50ac0f57" componentID="Audition.Fader" id="clipGain" name="volume" powered="true">
            <parameter index="0" name="volume" parameterValue="1"/>
            <parameter index="1" name="static gain" parameterValue="1"/>
          </component>
          <component componentGuid="722d9f91-218b-43ac-b19e-199b64ae1c7e" componentID="Audition.Mute" id="clipMute" name="Mute" powered="true">
            <parameter index="0" parameterValue="0"/>
            <parameter index="1" name="mute" parameterValue="0"/>
          </component>
          <component componentGuid="9f8fc684-68e9-4ebb-8a6b-3e70f0f0df55" componentID="Audition.StereoPanner" id="clipPan" name="StereoPanner" powered="true">
            <parameter index="0" name="パン" parameterValue="0"/>
          </component>
          <fadeIn crossFadeLinkType="linkedAsymmetric" endPoint="0" shape="0" startPoint="0" type="cosine"/>
          <fadeOut crossFadeLinkType="linkedAsymmetric" endPoint="664224" shape="0" startPoint="664224" type="cosine"/>
          <take sourceInPoint="0"/>
          <editParameter parameterIndex="0" slotIndex="4294967280"/>
          <editParameter parameterIndex="0" slotIndex="4294967281"/>
          <channelMap>
            <channel index="0" sourceIndex="0"/>
          </channelMap>
        </audioClip>
        <audioClip clipAutoCrossfade="true" crossFadeHeadClipID="-1" crossFadeTailClipID="-1" endPoint="13331417" fileID="16" hue="-1" id="3" lockedInTime="false" looped="false" name="トラック 5_017" offline="false" select="false" sourceInPoint="664224" sourceOutPoint="1091963" startPoint="12903678" zOrder="18">
          <component componentGuid="7c625be1-4004-4a18-b5f6-13ad609abbf6" componentID="Audition.Fader" id="clipGain" name="volume" powered="true">
            <parameter index="0" name="volume" parameterValue="1"/>
            <parameter index="1" name="static gain" parameterValue="1"/>
          </component>
          <component componentGuid="5e8a9688-f93b-4c37-a0a5-00be32daee21" componentID="Audition.Mute" id="clipMute" name="Mute" powered="true">
            <parameter index="0" parameterValue="0"/>
            <parameter index="1" name="mute" parameterValue="0"/>
          </component>
          <component componentGuid="9cf82c4b-5ebd-4dc8-8eef-b104be2530b7" componentID="Audition.StereoPanner" id="clipPan" name="StereoPanner" powered="true">
            <parameter index="0" name="パン" parameterValue="0"/>
          </component>
          <fadeIn crossFadeLinkType="linkedAsymmetric" endPoint="0" shape="0" startPoint="0" type="cosine"/>
          <fadeOut crossFadeLinkType="linkedAsymmetric" endPoint="427739" shape="0" startPoint="427739" type="cosine"/>
          <editParameter parameterIndex="0" slotIndex="4294967280"/>
          <editParameter parameterIndex="0" slotIndex="4294967281"/>
          <channelMap>
            <channel index="0" sourceIndex="0"/>
          </channelMap>
        </audioClip>
      </audioTrack>
      <audioTrack automationLaneOpenState="false" id="10006" index="6" select="false" visible="true">
        <trackParameters trackHeight="98" trackHue="92" trackMinimized="false">
          <name>トラック 6</name>
        </trackParameters>
        <trackAudioParameters audioChannelType="stereo" automationMode="1" monitoring="false" recordArmed="false" solo="false" soloSafe="false">
          <trackOutput outputID="10000" type="trackID"/>
          <trackInput inputID="2"/>
          <component componentGuid="9579f465-267f-4a14-b160-f911f6a319d9" componentID="Audition.Fader" id="trackFader" name="volume" powered="true">
            <parameter index="0" name="volume" parameterValue="1"/>
            <parameter index="1" name="static gain" parameterValue="1"/>
          </component>
          <component componentGuid="0b09922e-2c2f-47b5-9f9e-4fcfc2c95a52" componentID="Audition.Mute" id="trackMute" name="Mute" powered="true">
            <parameter index="0" parameterValue="0"/>
            <parameter index="1" name="mute" parameterValue="0"/>
          </component>
          <component componentGuid="434ee24c-ebce-49c5-94fc-cb8db4b76a1e" componentID="Audition.StereoPanner" id="trackPan" name="StereoPanner" powered="true">
            <parameter index="0" name="パン" parameterValue="0"/>
          </component>
          <component componentGuid="24d84129-e4cc-4976-bd77-a0c47f4ba01c" componentID="Audition.EQ" id="trackEQ" name="EQ" powered="false">
            <parameter index="0" name="ローシェルビング周波数" parameterValue="0.0008340000058524310588836669921875"/>
            <parameter index="1" name="ローシェルビングゲイン" parameterValue="0.5"/>
            <parameter index="2" name="ハイシェルビング周波数" parameterValue="0.74979150295257568359375"/>
            <parameter index="3" name="ハイシェルビングゲイン" parameterValue="0.5"/>
            <parameter index="4" name="EQ バンド 1 センター周波数" parameterValue="0.001250999979674816131591796875"/>
            <parameter index="5" name="EQ バンド 1 Q" parameterValue="0.000199999994947575032711029052734375"/>
            <parameter index="6" name="EQ バンド 1 ゲイン" parameterValue="0.5"/>
            <parameter index="7" name="EQ バンド 1 有効" parameterValue="1"/>
            <parameter index="8" name="EQ バンド 2 センター周波数" parameterValue="0.0075063002295792102813720703125"/>
            <parameter index="9" name="EQ バンド 2 Q" parameterValue="0.000199999994947575032711029052734375"/>
            <parameter index="10" name="EQ バンド 2 ゲイン" parameterValue="0.5"/>
            <parameter index="11" name="EQ バンド 2 有効" parameterValue="1"/>
            <parameter index="12" name="EQ バンド 3 センター周波数" parameterValue="0.0325271002948284149169921875"/>
            <parameter index="13" name="EQ バンド 3 Q" parameterValue="0.000199999994947575032711029052734375"/>
            <parameter index="14" name="EQ バンド 3 ゲイン" parameterValue="0.5"/>
            <parameter index="15" name="EQ バンド 3 有効" parameterValue="1"/>
            <parameter index="16" name="EQ バンド 4 センター周波数" parameterValue="0.132610499858856201171875"/>
            <parameter index="17" name="EQ バンド 4 Q" parameterValue="0.000199999994947575032711029052734375"/>
            <parameter index="18" name="EQ バンド 4 ゲイン" parameterValue="0.5"/>
            <parameter index="19" name="EQ バンド 4 有効" parameterValue="1"/>
            <parameter index="20" name="EQ バンド 5 センター周波数" parameterValue="0.53294408321380615234375"/>
            <parameter index="21" name="EQ バンド 5 Q" parameterValue="0.000199999994947575032711029052734375"/>
            <parameter index="22" name="EQ バンド 5 ゲイン" parameterValue="0.5"/>
            <parameter index="23" name="EQ バンド 5 有効" parameterValue="1"/>
            <parameter index="24" name="マスターゲイン" parameterValue="0.666666686534881591796875"/>
            <parameter index="25" name="ConstantQ" parameterValue="1"/>
            <parameter index="26" name="ローシェルビングフィルター次数" parameterValue="0"/>
            <parameter index="27" name="ハイシェルビングフィルター次数" parameterValue="0"/>
            <parameter index="28" name="ノイズレスモード" parameterValue="0"/>
            <parameter index="29" name="ローシェルビング有効" parameterValue="1"/>
            <parameter index="30" name="ハイシェルビング有効" parameterValue="1"/>
            <parameter index="31" name="オリジナルサンプルレート" parameterValue="0.25"/>
            <parameter index="32" name="EQ バンド 1 バンド幅" parameterValue="0.0024999999441206455230712890625"/>
            <parameter index="33" name="EQ バンド 2 バンド幅" parameterValue="0.00999999977648258209228515625"/>
            <parameter index="34" name="EQ バンド 3 バンド幅" parameterValue="0.039999999105930328369140625"/>
            <parameter index="35" name="EQ バンド 4 バンド幅" parameterValue="0.1599999964237213134765625"/>
            <parameter index="36" name="EQ バンド 5 バンド幅" parameterValue="0.63999998569488525390625"/>
            <parameter index="37" name="ハイパスフィルター有効" parameterValue="0"/>
            <parameter index="38" name="ハイパスカットオフ周波数" parameterValue="0"/>
            <parameter index="39" name="ハイパススロープ" parameterValue="0.4000000059604644775390625"/>
            <parameter index="40" name="ローパスフィルター有効" parameterValue="0"/>
            <parameter index="41" name="ローパスカットオフ周波数" parameterValue="0.833194315433502197265625"/>
            <parameter index="42" name="ローパススロープ" parameterValue="0.4000000059604644775390625"/>
            <parameter index="43" name="バイパス" parameterValue="0"/>
            <parameter index="44" name="LowGraphRange" parameterValue="1"/>
          </component>
        </trackAudioParameters>
        <editParameter parameterIndex="0" slotIndex="4294967280"/>
        <audioClip clipAutoCrossfade="true" crossFadeHeadClipID="-1" crossFadeTailClipID="-1" endPoint="11043951" fileID="17" hue="-1" id="0" lockedInTime="false" looped="false" name="トラック 6_019" offline="false" select="false" sourceInPoint="0" sourceOutPoint="731766" startPoint="10312185" zOrder="15">
          <component componentGuid="7a656054-2247-4457-9b50-e983aac5dbf9" componentID="Audition.Fader" id="clipGain" name="volume" powered="true">
            <parameter index="0" name="volume" parameterValue="1"/>
            <parameter index="1" name="static gain" parameterValue="1"/>
          </component>
          <component componentGuid="5f48078c-314a-4802-a3aa-47333f6e9fe1" componentID="Audition.Mute" id="clipMute" name="Mute" powered="true">
            <parameter index="0" parameterValue="0"/>
            <parameter index="1" name="mute" parameterValue="0"/>
          </component>
          <component componentGuid="b9ff5179-65fe-41f9-8d2f-58e1d29787b8" componentID="Audition.StereoPanner" id="clipPan" name="StereoPanner" powered="true">
            <parameter index="0" name="パン" parameterValue="0"/>
          </component>
          <fadeIn crossFadeLinkType="linkedAsymmetric" endPoint="0" shape="0" startPoint="0" type="cosine"/>
          <fadeOut crossFadeLinkType="linkedAsymmetric" endPoint="731766" shape="0" startPoint="731766" type="cosine"/>
          <take sourceInPoint="0"/>
          <editParameter parameterIndex="0" slotIndex="4294967280"/>
          <editParameter parameterIndex="0" slotIndex="4294967281"/>
          <channelMap>
            <channel index="0" sourceIndex="0"/>
          </channelMap>
        </audioClip>
        <audioClip clipAutoCrossfade="true" crossFadeHeadClipID="-1" crossFadeTailClipID="-1" endPoint="11770826" fileID="18" hue="-1" id="1" lockedInTime="false" looped="false" name="トラック 6_020" offline="false" select="false" sourceInPoint="0" sourceOutPoint="681723" startPoint="11089103" zOrder="16">
          <component componentGuid="fff0ebca-bbfc-4181-8704-d943d292443e" componentID="Audition.Fader" id="clipGain" name="volume" powered="true">
            <parameter index="0" name="volume" parameterValue="1"/>
            <parameter index="1" name="static gain" parameterValue="1"/>
          </component>
          <component componentGuid="249f0f02-1a88-45b0-aefa-26ba6f222a25" componentID="Audition.Mute" id="clipMute" name="Mute" powered="true">
            <parameter index="0" parameterValue="0"/>
            <parameter index="1" name="mute" parameterValue="0"/>
          </component>
          <component componentGuid="b7dcc8c2-2c83-4702-9439-38dd7454eca3" componentID="Audition.StereoPanner" id="clipPan" name="StereoPanner" powered="true">
            <parameter index="0" name="パン" parameterValue="0"/>
          </component>
          <fadeIn crossFadeLinkType="linkedAsymmetric" endPoint="0" shape="0" startPoint="0" type="cosine"/>
          <fadeOut crossFadeLinkType="linkedAsymmetric" endPoint="681723" shape="0" startPoint="681723" type="cosine"/>
          <take sourceInPoint="0"/>
          <editParameter parameterIndex="0" slotIndex="4294967280"/>
          <editParameter parameterIndex="0" slotIndex="4294967281"/>
          <channelMap>
            <channel index="0" sourceIndex="0"/>
          </channelMap>
        </audioClip>
      </audioTrack>
      <audioTrack automationLaneOpenState="false" id="10020" index="7" select="false" visible="true">
        <trackParameters trackHeight="98" trackHue="319.00000227325114110499271191656589508056640625" trackMinimized="false">
          <name>トラック 15</name>
        </trackParameters>
        <trackAudioParameters audioChannelType="stereo" automationMode="1" monitoring="false" recordArmed="false" solo="false" soloSafe="false">
          <trackOutput outputID="10000" type="trackID"/>
          <trackInput inputID="1"/>
          <component componentGuid="f57a2172-a180-49a0-8cc1-388621e86c1b" componentID="Audition.Fader" id="trackFader" name="volume" powered="true">
            <parameter index="0" name="volume" parameterValue="1"/>
            <parameter index="1" name="static gain" parameterValue="1"/>
          </component>
          <component componentGuid="6c630cd6-00fb-4013-b6a0-14087ca57618" componentID="Audition.Mute" id="trackMute" name="Mute" powered="true">
            <parameter index="0" parameterValue="0"/>
            <parameter index="1" name="mute" parameterValue="0"/>
          </component>
          <component componentGuid="e0c1e555-73f1-49e9-8c3e-2d167b330117" componentID="Audition.StereoPanner" id="trackPan" name="StereoPanner" powered="true">
            <parameter index="0" name="パン" parameterValue="0"/>
          </component>
          <component componentGuid="230c97e8-0aaa-41b0-b44a-69dee9b2fe6b" componentID="Audition.EQ" id="trackEQ" name="EQ" powered="false">
            <parameter index="0" name="ローシェルビング周波数" parameterValue="0.0008340000058524310588836669921875"/>
            <parameter index="1" name="ローシェルビングゲイン" parameterValue="0.5"/>
            <parameter index="2" name="ハイシェルビング周波数" parameterValue="0.74979150295257568359375"/>
            <parameter index="3" name="ハイシェルビングゲイン" parameterValue="0.5"/>
            <parameter index="4" name="EQ バンド 1 センター周波数" parameterValue="0.001250999979674816131591796875"/>
            <parameter index="5" name="EQ バンド 1 Q" parameterValue="0.000199999994947575032711029052734375"/>
            <parameter index="6" name="EQ バンド 1 ゲイン" parameterValue="0.5"/>
            <parameter index="7" name="EQ バンド 1 有効" parameterValue="1"/>
            <parameter index="8" name="EQ バンド 2 センター周波数" parameterValue="0.0075063002295792102813720703125"/>
            <parameter index="9" name="EQ バンド 2 Q" parameterValue="0.000199999994947575032711029052734375"/>
            <parameter index="10" name="EQ バンド 2 ゲイン" parameterValue="0.5"/>
            <parameter index="11" name="EQ バンド 2 有効" parameterValue="1"/>
            <parameter index="12" name="EQ バンド 3 センター周波数" parameterValue="0.0325271002948284149169921875"/>
            <parameter index="13" name="EQ バンド 3 Q" parameterValue="0.000199999994947575032711029052734375"/>
            <parameter index="14" name="EQ バンド 3 ゲイン" parameterValue="0.5"/>
            <parameter index="15" name="EQ バンド 3 有効" parameterValue="1"/>
            <parameter index="16" name="EQ バンド 4 センター周波数" parameterValue="0.132610499858856201171875"/>
            <parameter index="17" name="EQ バンド 4 Q" parameterValue="0.000199999994947575032711029052734375"/>
            <parameter index="18" name="EQ バンド 4 ゲイン" parameterValue="0.5"/>
            <parameter index="19" name="EQ バンド 4 有効" parameterValue="1"/>
            <parameter index="20" name="EQ バンド 5 センター周波数" parameterValue="0.53294408321380615234375"/>
            <parameter index="21" name="EQ バンド 5 Q" parameterValue="0.000199999994947575032711029052734375"/>
            <parameter index="22" name="EQ バンド 5 ゲイン" parameterValue="0.5"/>
            <parameter index="23" name="EQ バンド 5 有効" parameterValue="1"/>
            <parameter index="24" name="マスターゲイン" parameterValue="0.666666686534881591796875"/>
            <parameter index="25" name="ConstantQ" parameterValue="1"/>
            <parameter index="26" name="ローシェルビングフィルター次数" parameterValue="0"/>
            <parameter index="27" name="ハイシェルビングフィルター次数" parameterValue="0"/>
            <parameter index="28" name="ノイズレスモード" parameterValue="0"/>
            <parameter index="29" name="ローシェルビング有効" parameterValue="1"/>
            <parameter index="30" name="ハイシェルビング有効" parameterValue="1"/>
            <parameter index="31" name="オリジナルサンプルレート" parameterValue="0.25"/>
            <parameter index="32" name="EQ バンド 1 バンド幅" parameterValue="0.0024999999441206455230712890625"/>
            <parameter index="33" name="EQ バンド 2 バンド幅" parameterValue="0.00999999977648258209228515625"/>
            <parameter index="34" name="EQ バンド 3 バンド幅" parameterValue="0.039999999105930328369140625"/>
            <parameter index="35" name="EQ バンド 4 バンド幅" parameterValue="0.1599999964237213134765625"/>
            <parameter index="36" name="EQ バンド 5 バンド幅" parameterValue="0.63999998569488525390625"/>
            <parameter index="37" name="ハイパスフィルター有効" parameterValue="0"/>
            <parameter index="38" name="ハイパスカットオフ周波数" parameterValue="0"/>
            <parameter index="39" name="ハイパススロープ" parameterValue="0.4000000059604644775390625"/>
            <parameter index="40" name="ローパスフィルター有効" parameterValue="0"/>
            <parameter index="41" name="ローパスカットオフ周波数" parameterValue="0.833194315433502197265625"/>
            <parameter index="42" name="ローパススロープ" parameterValue="0.4000000059604644775390625"/>
            <parameter index="43" name="バイパス" parameterValue="0"/>
            <parameter index="44" name="LowGraphRange" parameterValue="1"/>
          </component>
        </trackAudioParameters>
        <editParameter parameterIndex="0" slotIndex="4294967280"/>
        <audioClip clipAutoCrossfade="true" crossFadeHeadClipID="-1" crossFadeTailClipID="-1" endPoint="225183" fileID="2" hue="-1" id="0" lockedInTime="false" looped="false" name="トラック 1_023" offline="false" select="false" sourceInPoint="0" sourceOutPoint="225183" startPoint="0" zOrder="45">
          <component componentGuid="098baa3b-706e-45b7-9443-4272ec1ef417" componentID="Audition.Fader" id="clipGain" name="volume" powered="true">
            <parameter index="0" name="volume" parameterValue="1"/>
            <parameter index="1" name="static gain" parameterValue="1"/>
          </component>
          <component componentGuid="aab3f7cd-81b6-4b50-a0d9-a5e60271ac2e" componentID="Audition.Mute" id="clipMute" name="Mute" powered="true">
            <parameter index="0" parameterValue="0"/>
            <parameter index="1" name="mute" parameterValue="0"/>
          </component>
          <component componentGuid="9566fd84-b5f8-42e9-bdda-726a3f29b536" componentID="Audition.StereoPanner" id="clipPan" name="StereoPanner" powered="true">
            <parameter index="0" name="パン" parameterValue="0"/>
          </component>
          <fadeIn crossFadeLinkType="linkedAsymmetric" endPoint="0" shape="0" startPoint="0" type="cosine"/>
          <fadeOut crossFadeLinkType="linkedAsymmetric" endPoint="225183" shape="0" startPoint="225183" type="cosine"/>
          <take sourceInPoint="0"/>
          <editParameter parameterIndex="0" slotIndex="4294967281"/>
          <editParameter parameterIndex="0" slotIndex="4294967280"/>
          <channelMap>
            <channel index="0" sourceIndex="0"/>
          </channelMap>
        </audioClip>
        <audioClip clipAutoCrossfade="true" crossFadeHeadClipID="-1" crossFadeTailClipID="-1" endPoint="483610" fileID="1" hue="-1" id="1" lockedInTime="false" looped="false" name="トラック 1_002" offline="false" select="false" sourceInPoint="229683" sourceOutPoint="474662" startPoint="238631" zOrder="46">
          <component componentGuid="73fc17c8-84ca-4484-9ad1-24861252d290" componentID="Audition.Fader" id="clipGain" name="volume" powered="true">
            <parameter index="0" name="volume" parameterValue="1"/>
            <parameter index="1" name="static gain" parameterValue="1"/>
          </component>
          <component componentGuid="f804e179-5ed1-46a9-9d18-e208bf21d972" componentID="Audition.Mute" id="clipMute" name="Mute" powered="true">
            <parameter index="0" parameterValue="0"/>
            <parameter index="1" name="mute" parameterValue="0"/>
          </component>
          <component componentGuid="3247526a-1d12-4a28-b3b6-b24d40b1bd37" componentID="Audition.StereoPanner" id="clipPan" name="StereoPanner" powered="true">
            <parameter index="0" name="パン" parameterValue="0"/>
          </component>
          <fadeIn crossFadeLinkType="linkedAsymmetric" endPoint="0" shape="0" startPoint="0" type="cosine"/>
          <fadeOut crossFadeLinkType="linkedAsymmetric" endPoint="244979" shape="0" startPoint="244979" type="cosine"/>
          <editParameter parameterIndex="0" slotIndex="4294967280"/>
          <editParameter parameterIndex="0" slotIndex="4294967281"/>
          <channelMap>
            <channel index="0" sourceIndex="0"/>
          </channelMap>
        </audioClip>
        <audioClip clipAutoCrossfade="true" crossFadeHeadClipID="-1" crossFadeTailClipID="-1" endPoint="705906" fileID="1" hue="-1" id="2" lockedInTime="false" looped="false" name="トラック 1_002" offline="false" select="false" sourceInPoint="474662" sourceOutPoint="696958" startPoint="483610" zOrder="47">
          <component componentGuid="53420fd0-55ca-459f-9186-538a171329cc" componentID="Audition.Fader" id="clipGain" name="volume" powered="true">
            <parameter index="0" name="volume" parameterValue="1"/>
            <parameter index="1" name="static gain" parameterValue="1"/>
          </component>
          <component componentGuid="3570a50c-94fe-43d3-98d6-db332ac5d4e2" componentID="Audition.Mute" id="clipMute" name="Mute" powered="true">
            <parameter index="0" parameterValue="0"/>
            <parameter index="1" name="mute" parameterValue="0"/>
          </component>
          <component componentGuid="32feed7f-8e16-4081-a438-ab3a132a9f16" componentID="Audition.StereoPanner" id="clipPan" name="StereoPanner" powered="true">
            <parameter index="0" name="パン" parameterValue="0"/>
          </component>
          <fadeIn crossFadeLinkType="linkedAsymmetric" endPoint="0" shape="0" startPoint="0" type="cosine"/>
          <fadeOut crossFadeLinkType="linkedAsymmetric" endPoint="222296" shape="0" startPoint="222296" type="cosine"/>
          <editParameter parameterIndex="0" slotIndex="4294967280"/>
          <editParameter parameterIndex="0" slotIndex="4294967281"/>
          <channelMap>
            <channel index="0" sourceIndex="0"/>
          </channelMap>
        </audioClip>
      </audioTrack>
      <audioTrack automationLaneOpenState="false" id="10007" index="8" select="false" visible="true">
        <trackParameters trackHeight="98" trackHue="211" trackMinimized="false">
          <name>voice_01</name>
        </trackParameters>
        <trackAudioParameters audioChannelType="stereo" automationMode="1" monitoring="false" recordArmed="false" solo="false" soloSafe="false">
          <trackOutput outputID="10027" type="trackID"/>
          <trackInput inputID="1"/>
          <component componentGuid="0308c417-9b79-4212-a8c7-0d35ae897357" componentID="Audition.Fader" id="trackFader" name="volume" powered="true">
            <parameter index="0" name="volume" parameterValue="1"/>
            <parameter index="1" name="static gain" parameterValue="1"/>
          </component>
          <component componentGuid="0b06b4d4-8f8e-4f29-ac95-d1ac03e64908" componentID="Audition.Mute" id="trackMute" name="Mute" powered="true">
            <parameter index="0" parameterValue="0"/>
            <parameter index="1" name="mute" parameterValue="0"/>
          </component>
          <component componentGuid="46a2b9f6-2054-4485-a7ee-82174f04a8b1" componentID="Audition.StereoPanner" id="trackPan" name="StereoPanner" powered="true">
            <parameter index="0" name="パン" parameterValue="0"/>
          </component>
          <component componentGuid="58098527-2454-427d-bb41-5756628b5af7" componentID="Audition.EQ" id="trackEQ" name="EQ" powered="false">
            <parameter index="0" name="ローシェルビング周波数" parameterValue="0.0008340000058524310588836669921875"/>
            <parameter index="1" name="ローシェルビングゲイン" parameterValue="0.5"/>
            <parameter index="2" name="ハイシェルビング周波数" parameterValue="0.74979150295257568359375"/>
            <parameter index="3" name="ハイシェルビングゲイン" parameterValue="0.5"/>
            <parameter index="4" name="EQ バンド 1 センター周波数" parameterValue="0.001250999979674816131591796875"/>
            <parameter index="5" name="EQ バンド 1 Q" parameterValue="0.000199999994947575032711029052734375"/>
            <parameter index="6" name="EQ バンド 1 ゲイン" parameterValue="0.5"/>
            <parameter index="7" name="EQ バンド 1 有効" parameterValue="1"/>
            <parameter index="8" name="EQ バンド 2 センター周波数" parameterValue="0.0075063002295792102813720703125"/>
            <parameter index="9" name="EQ バンド 2 Q" parameterValue="0.000199999994947575032711029052734375"/>
            <parameter index="10" name="EQ バンド 2 ゲイン" parameterValue="0.5"/>
            <parameter index="11" name="EQ バンド 2 有効" parameterValue="1"/>
            <parameter index="12" name="EQ バンド 3 センター周波数" parameterValue="0.0325271002948284149169921875"/>
            <parameter index="13" name="EQ バンド 3 Q" parameterValue="0.000199999994947575032711029052734375"/>
            <parameter index="14" name="EQ バンド 3 ゲイン" parameterValue="0.5"/>
            <parameter index="15" name="EQ バンド 3 有効" parameterValue="1"/>
            <parameter index="16" name="EQ バンド 4 センター周波数" parameterValue="0.132610499858856201171875"/>
            <parameter index="17" name="EQ バンド 4 Q" parameterValue="0.000199999994947575032711029052734375"/>
            <parameter index="18" name="EQ バンド 4 ゲイン" parameterValue="0.5"/>
            <parameter index="19" name="EQ バンド 4 有効" parameterValue="1"/>
            <parameter index="20" name="EQ バンド 5 センター周波数" parameterValue="0.53294408321380615234375"/>
            <parameter index="21" name="EQ バンド 5 Q" parameterValue="0.000199999994947575032711029052734375"/>
            <parameter index="22" name="EQ バンド 5 ゲイン" parameterValue="0.5"/>
            <parameter index="23" name="EQ バンド 5 有効" parameterValue="1"/>
            <parameter index="24" name="マスターゲイン" parameterValue="0.666666686534881591796875"/>
            <parameter index="25" name="ConstantQ" parameterValue="1"/>
            <parameter index="26" name="ローシェルビングフィルター次数" parameterValue="0"/>
            <parameter index="27" name="ハイシェルビングフィルター次数" parameterValue="0"/>
            <parameter index="28" name="ノイズレスモード" parameterValue="0"/>
            <parameter index="29" name="ローシェルビング有効" parameterValue="1"/>
            <parameter index="30" name="ハイシェルビング有効" parameterValue="1"/>
            <parameter index="31" name="オリジナルサンプルレート" parameterValue="0.25"/>
            <parameter index="32" name="EQ バンド 1 バンド幅" parameterValue="0.0024999999441206455230712890625"/>
            <parameter index="33" name="EQ バンド 2 バンド幅" parameterValue="0.00999999977648258209228515625"/>
            <parameter index="34" name="EQ バンド 3 バンド幅" parameterValue="0.039999999105930328369140625"/>
            <parameter index="35" name="EQ バンド 4 バンド幅" parameterValue="0.1599999964237213134765625"/>
            <parameter index="36" name="EQ バンド 5 バンド幅" parameterValue="0.63999998569488525390625"/>
            <parameter index="37" name="ハイパスフィルター有効" parameterValue="0"/>
            <parameter index="38" name="ハイパスカットオフ周波数" parameterValue="0"/>
            <parameter index="39" name="ハイパススロープ" parameterValue="0.4000000059604644775390625"/>
            <parameter index="40" name="ローパスフィルター有効" parameterValue="0"/>
            <parameter index="41" name="ローパスカットオフ周波数" parameterValue="0.833194315433502197265625"/>
            <parameter index="42" name="ローパススロープ" parameterValue="0.4000000059604644775390625"/>
            <parameter index="43" name="バイパス" parameterValue="0"/>
            <parameter index="44" name="LowGraphRange" parameterValue="1"/>
          </component>
        </trackAudioParameters>
        <editParameter parameterIndex="0" slotIndex="4294967280"/>
        <audioClip clipAutoCrossfade="true" crossFadeHeadClipID="-1" crossFadeTailClipID="-1" endPoint="1753675" fileID="5" hue="-1" id="0" lockedInTime="false" looped="false" name="トラック 2_009" offline="false" select="false" sourceInPoint="0" sourceOutPoint="753987" startPoint="999688" zOrder="45">
          <component componentGuid="54e404c8-5cc0-4591-bb51-fc6d9ccf227a" componentID="Audition.Fader" id="clipGain" name="volume" powered="true">
            <parameter index="0" name="volume" parameterValue="1"/>
            <parameter index="1" name="static gain" parameterValue="1"/>
          </component>
          <component componentGuid="3812b31e-4351-4c5f-b4c1-fa27754fd535" componentID="Audition.Mute" id="clipMute" name="Mute" powered="true">
            <parameter index="0" parameterValue="0"/>
            <parameter index="1" name="mute" parameterValue="0"/>
          </component>
          <component componentGuid="669957c5-37ab-40b9-b2a9-f8972dd9fbfd" componentID="Audition.StereoPanner" id="clipPan" name="StereoPanner" powered="true">
            <parameter index="0" name="パン" parameterValue="0"/>
          </component>
          <fadeIn crossFadeLinkType="linkedAsymmetric" endPoint="0" shape="0" startPoint="0" type="cosine"/>
          <fadeOut crossFadeLinkType="linkedAsymmetric" endPoint="753987" shape="0" startPoint="753987" type="cosine"/>
          <take sourceInPoint="0"/>
          <editParameter parameterIndex="0" slotIndex="4294967280"/>
          <editParameter parameterIndex="0" slotIndex="4294967281"/>
          <channelMap>
            <channel index="0" sourceIndex="0"/>
          </channelMap>
        </audioClip>
      </audioTrack>
      <audioTrack automationLaneOpenState="false" id="10025" index="9" select="false" visible="true">
        <trackParameters trackHeight="98" trackHue="211" trackMinimized="false">
          <name>voice_01 1</name>
        </trackParameters>
        <trackAudioParameters audioChannelType="stereo" automationMode="1" monitoring="false" recordArmed="false" solo="false" soloSafe="false">
          <trackOutput outputID="10027" type="trackID"/>
          <trackInput inputID="1"/>
          <component componentGuid="1826b625-dddd-44cd-ad56-575f5f8ddc3d" componentID="Audition.Fader" id="trackFader" name="volume" powered="true">
            <parameter index="0" name="volume" parameterValue="0.08317638933658599853515625"/>
            <parameter index="1" name="static gain" parameterValue="1"/>
          </component>
          <component componentGuid="fbf2ae24-7736-40e3-be5f-eec36f30164a" componentID="Audition.Mute" id="trackMute" name="Mute" powered="true">
            <parameter index="0" parameterValue="0"/>
            <parameter index="1" name="mute" parameterValue="1"/>
          </component>
          <component componentGuid="9794ec22-66b4-43ee-9d73-4c3407a32a34" componentID="Audition.StereoPanner" id="trackPan" name="StereoPanner" powered="true">
            <parameter index="0" name="パン" parameterValue="0"/>
          </component>
          <component componentGuid="440765ec-9298-4d7b-af0a-336c1aee1f04" componentID="Audition.EQ" id="trackEQ" name="EQ" powered="false">
            <parameter index="0" name="ローシェルビング周波数" parameterValue="0.0008340000058524310588836669921875"/>
            <parameter index="1" name="ローシェルビングゲイン" parameterValue="0.5"/>
            <parameter index="2" name="ハイシェルビング周波数" parameterValue="0.74979150295257568359375"/>
            <parameter index="3" name="ハイシェルビングゲイン" parameterValue="0.5"/>
            <parameter index="4" name="EQ バンド 1 センター周波数" parameterValue="0.001250999979674816131591796875"/>
            <parameter index="5" name="EQ バンド 1 Q" parameterValue="0.000199999994947575032711029052734375"/>
            <parameter index="6" name="EQ バンド 1 ゲイン" parameterValue="0.5"/>
            <parameter index="7" name="EQ バンド 1 有効" parameterValue="1"/>
            <parameter index="8" name="EQ バンド 2 センター周波数" parameterValue="0.0075063002295792102813720703125"/>
            <parameter index="9" name="EQ バンド 2 Q" parameterValue="0.000199999994947575032711029052734375"/>
            <parameter index="10" name="EQ バンド 2 ゲイン" parameterValue="0.5"/>
            <parameter index="11" name="EQ バンド 2 有効" parameterValue="1"/>
            <parameter index="12" name="EQ バンド 3 センター周波数" parameterValue="0.0325271002948284149169921875"/>
            <parameter index="13" name="EQ バンド 3 Q" parameterValue="0.000199999994947575032711029052734375"/>
            <parameter index="14" name="EQ バンド 3 ゲイン" parameterValue="0.5"/>
            <parameter index="15" name="EQ バンド 3 有効" parameterValue="1"/>
            <parameter index="16" name="EQ バンド 4 センター周波数" parameterValue="0.132610499858856201171875"/>
            <parameter index="17" name="EQ バンド 4 Q" parameterValue="0.000199999994947575032711029052734375"/>
            <parameter index="18" name="EQ バンド 4 ゲイン" parameterValue="0.5"/>
            <parameter index="19" name="EQ バンド 4 有効" parameterValue="1"/>
            <parameter index="20" name="EQ バンド 5 センター周波数" parameterValue="0.53294408321380615234375"/>
            <parameter index="21" name="EQ バンド 5 Q" parameterValue="0.000199999994947575032711029052734375"/>
            <parameter index="22" name="EQ バンド 5 ゲイン" parameterValue="0.5"/>
            <parameter index="23" name="EQ バンド 5 有効" parameterValue="1"/>
            <parameter index="24" name="マスターゲイン" parameterValue="0.666666686534881591796875"/>
            <parameter index="25" name="ConstantQ" parameterValue="1"/>
            <parameter index="26" name="ローシェルビングフィルター次数" parameterValue="0"/>
            <parameter index="27" name="ハイシェルビングフィルター次数" parameterValue="0"/>
            <parameter index="28" name="ノイズレスモード" parameterValue="0"/>
            <parameter index="29" name="ローシェルビング有効" parameterValue="1"/>
            <parameter index="30" name="ハイシェルビング有効" parameterValue="1"/>
            <parameter index="31" name="オリジナルサンプルレート" parameterValue="0.25"/>
            <parameter index="32" name="EQ バンド 1 バンド幅" parameterValue="0.0024999999441206455230712890625"/>
            <parameter index="33" name="EQ バンド 2 バンド幅" parameterValue="0.00999999977648258209228515625"/>
            <parameter index="34" name="EQ バンド 3 バンド幅" parameterValue="0.039999999105930328369140625"/>
            <parameter index="35" name="EQ バンド 4 バンド幅" parameterValue="0.1599999964237213134765625"/>
            <parameter index="36" name="EQ バンド 5 バンド幅" parameterValue="0.63999998569488525390625"/>
            <parameter index="37" name="ハイパスフィルター有効" parameterValue="0"/>
            <parameter index="38" name="ハイパスカットオフ周波数" parameterValue="0"/>
            <parameter index="39" name="ハイパススロープ" parameterValue="0.4000000059604644775390625"/>
            <parameter index="40" name="ローパスフィルター有効" parameterValue="0"/>
            <parameter index="41" name="ローパスカットオフ周波数" parameterValue="0.833194315433502197265625"/>
            <parameter index="42" name="ローパススロープ" parameterValue="0.4000000059604644775390625"/>
            <parameter index="43" name="バイパス" parameterValue="0"/>
            <parameter index="44" name="LowGraphRange" parameterValue="1"/>
          </component>
        </trackAudioParameters>
        <editParameter parameterIndex="0" slotIndex="4294967280"/>
        <audioClip clipAutoCrossfade="true" crossFadeHeadClipID="-1" crossFadeTailClipID="-1" endPoint="1753675" fileID="5" hue="-1" id="0" lockedInTime="false" looped="false" name="トラック 2_009" offline="false" select="false" sourceInPoint="0" sourceOutPoint="753987" startPoint="999688" zOrder="45">
          <component componentGuid="7cc9be1d-4204-4a86-a663-8aa3d2a2070b" componentID="Audition.Fader" id="clipGain" name="volume" powered="true">
            <parameter index="0" name="volume" parameterValue="1"/>
            <parameter index="1" name="static gain" parameterValue="1"/>
          </component>
          <component componentGuid="a1f4eda6-70a9-4435-aa1f-6d59e07bf9ba" componentID="Audition.Mute" id="clipMute" name="Mute" powered="true">
            <parameter index="0" parameterValue="0"/>
            <parameter index="1" name="mute" parameterValue="0"/>
          </component>
          <component componentGuid="4c1cda9f-bbc4-47ae-bfa0-40c2740b2014" componentID="Audition.StereoPanner" id="clipPan" name="StereoPanner" powered="true">
            <parameter index="0" name="パン" parameterValue="0"/>
          </component>
          <fadeIn crossFadeLinkType="linkedAsymmetric" endPoint="0" shape="0" startPoint="0" type="cosine"/>
          <fadeOut crossFadeLinkType="linkedAsymmetric" endPoint="753987" shape="0" startPoint="753987" type="cosine"/>
          <clipStretch adaptiveWindowSize="37" pitchAdjustment="3" preserveFormants="true" stretchMode="realtime" stretchQuality="high" stretchRatio="1" stretchType="solo" transientSensitivity="40"/>
          <editParameter parameterIndex="0" slotIndex="4294967280"/>
          <editParameter parameterIndex="0" slotIndex="4294967281"/>
          <channelMap>
            <channel index="0" sourceIndex="0"/>
          </channelMap>
        </audioClip>
      </audioTrack>
      <audioTrack automationLaneOpenState="false" id="10026" index="10" select="false" visible="true">
        <trackParameters trackHeight="98" trackHue="211" trackMinimized="false">
          <name>voice_01 1 1</name>
        </trackParameters>
        <trackAudioParameters audioChannelType="stereo" automationMode="1" monitoring="false" recordArmed="false" solo="false" soloSafe="false">
          <trackOutput outputID="10027" type="trackID"/>
          <trackInput inputID="1"/>
          <component componentGuid="1a84a626-159b-4893-8a30-78809471b455" componentID="Audition.Fader" id="trackFader" name="volume" powered="true">
            <parameter index="0" name="volume" parameterValue="0.17179079353809356689453125"/>
            <parameter index="1" name="static gain" parameterValue="1"/>
          </component>
          <component componentGuid="2dfca287-4349-4d93-975c-27a1401c249d" componentID="Audition.Mute" id="trackMute" name="Mute" powered="true">
            <parameter index="0" parameterValue="0"/>
            <parameter index="1" name="mute" parameterValue="1"/>
          </component>
          <component componentGuid="57b7d0be-8dec-4b85-856d-83a71db23e63" componentID="Audition.StereoPanner" id="trackPan" name="StereoPanner" powered="true">
            <parameter index="0" name="パン" parameterValue="0"/>
          </component>
          <component componentGuid="d9b270aa-7134-4438-beae-25c350c5017f" componentID="Audition.EQ" id="trackEQ" name="EQ" powered="false">
            <parameter index="0" name="ローシェルビング周波数" parameterValue="0.0008340000058524310588836669921875"/>
            <parameter index="1" name="ローシェルビングゲイン" parameterValue="0.5"/>
            <parameter index="2" name="ハイシェルビング周波数" parameterValue="0.74979150295257568359375"/>
            <parameter index="3" name="ハイシェルビングゲイン" parameterValue="0.5"/>
            <parameter index="4" name="EQ バンド 1 センター周波数" parameterValue="0.001250999979674816131591796875"/>
            <parameter index="5" name="EQ バンド 1 Q" parameterValue="0.000199999994947575032711029052734375"/>
            <parameter index="6" name="EQ バンド 1 ゲイン" parameterValue="0.5"/>
            <parameter index="7" name="EQ バンド 1 有効" parameterValue="1"/>
            <parameter index="8" name="EQ バンド 2 センター周波数" parameterValue="0.0075063002295792102813720703125"/>
            <parameter index="9" name="EQ バンド 2 Q" parameterValue="0.000199999994947575032711029052734375"/>
            <parameter index="10" name="EQ バンド 2 ゲイン" parameterValue="0.5"/>
            <parameter index="11" name="EQ バンド 2 有効" parameterValue="1"/>
            <parameter index="12" name="EQ バンド 3 センター周波数" parameterValue="0.0325271002948284149169921875"/>
            <parameter index="13" name="EQ バンド 3 Q" parameterValue="0.000199999994947575032711029052734375"/>
            <parameter index="14" name="EQ バンド 3 ゲイン" parameterValue="0.5"/>
            <parameter index="15" name="EQ バンド 3 有効" parameterValue="1"/>
            <parameter index="16" name="EQ バンド 4 センター周波数" parameterValue="0.132610499858856201171875"/>
            <parameter index="17" name="EQ バンド 4 Q" parameterValue="0.000199999994947575032711029052734375"/>
            <parameter index="18" name="EQ バンド 4 ゲイン" parameterValue="0.5"/>
            <parameter index="19" name="EQ バンド 4 有効" parameterValue="1"/>
            <parameter index="20" name="EQ バンド 5 センター周波数" parameterValue="0.53294408321380615234375"/>
            <parameter index="21" name="EQ バンド 5 Q" parameterValue="0.000199999994947575032711029052734375"/>
            <parameter index="22" name="EQ バンド 5 ゲイン" parameterValue="0.5"/>
            <parameter index="23" name="EQ バンド 5 有効" parameterValue="1"/>
            <parameter index="24" name="マスターゲイン" parameterValue="0.666666686534881591796875"/>
            <parameter index="25" name="ConstantQ" parameterValue="1"/>
            <parameter index="26" name="ローシェルビングフィルター次数" parameterValue="0"/>
            <parameter index="27" name="ハイシェルビングフィルター次数" parameterValue="0"/>
            <parameter index="28" name="ノイズレスモード" parameterValue="0"/>
            <parameter index="29" name="ローシェルビング有効" parameterValue="1"/>
            <parameter index="30" name="ハイシェルビング有効" parameterValue="1"/>
            <parameter index="31" name="オリジナルサンプルレート" parameterValue="0.25"/>
            <parameter index="32" name="EQ バンド 1 バンド幅" parameterValue="0.0024999999441206455230712890625"/>
            <parameter index="33" name="EQ バンド 2 バンド幅" parameterValue="0.00999999977648258209228515625"/>
            <parameter index="34" name="EQ バンド 3 バンド幅" parameterValue="0.039999999105930328369140625"/>
            <parameter index="35" name="EQ バンド 4 バンド幅" parameterValue="0.1599999964237213134765625"/>
            <parameter index="36" name="EQ バンド 5 バンド幅" parameterValue="0.63999998569488525390625"/>
            <parameter index="37" name="ハイパスフィルター有効" parameterValue="0"/>
            <parameter index="38" name="ハイパスカットオフ周波数" parameterValue="0"/>
            <parameter index="39" name="ハイパススロープ" parameterValue="0.4000000059604644775390625"/>
            <parameter index="40" name="ローパスフィルター有効" parameterValue="0"/>
            <parameter index="41" name="ローパスカットオフ周波数" parameterValue="0.833194315433502197265625"/>
            <parameter index="42" name="ローパススロープ" parameterValue="0.4000000059604644775390625"/>
            <parameter index="43" name="バイパス" parameterValue="0"/>
            <parameter index="44" name="LowGraphRange" parameterValue="1"/>
          </component>
        </trackAudioParameters>
        <editParameter parameterIndex="0" slotIndex="4294967280"/>
        <audioClip clipAutoCrossfade="true" crossFadeHeadClipID="-1" crossFadeTailClipID="-1" endPoint="1753675" fileID="5" hue="-1" id="0" lockedInTime="false" looped="false" name="トラック 2_009" offline="false" select="false" sourceInPoint="0" sourceOutPoint="753987" startPoint="999688" zOrder="45">
          <component componentGuid="6e762bcf-d08c-4f63-b874-f7dd43277b97" componentID="Audition.Fader" id="clipGain" name="volume" powered="true">
            <parameter index="0" name="volume" parameterValue="1"/>
            <parameter index="1" name="static gain" parameterValue="1"/>
          </component>
          <component componentGuid="b6501d5e-9144-40a8-b993-ac6397fd901a" componentID="Audition.Mute" id="clipMute" name="Mute" powered="true">
            <parameter index="0" parameterValue="0"/>
            <parameter index="1" name="mute" parameterValue="0"/>
          </component>
          <component componentGuid="18081e15-e85f-4cc5-98b6-0b940da73966" componentID="Audition.StereoPanner" id="clipPan" name="StereoPanner" powered="true">
            <parameter index="0" name="パン" parameterValue="0"/>
          </component>
          <fadeIn crossFadeLinkType="linkedAsymmetric" endPoint="0" shape="0" startPoint="0" type="cosine"/>
          <fadeOut crossFadeLinkType="linkedAsymmetric" endPoint="753987" shape="0" startPoint="753987" type="cosine"/>
          <clipStretch adaptiveWindowSize="37" pitchAdjustment="-1" preserveFormants="true" stretchMode="realtime" stretchQuality="high" stretchRatio="1" stretchType="solo" transientSensitivity="40"/>
          <editParameter parameterIndex="0" slotIndex="4294967280"/>
          <editParameter parameterIndex="0" slotIndex="4294967281"/>
          <channelMap>
            <channel index="0" sourceIndex="0"/>
          </channelMap>
        </audioClip>
      </audioTrack>
      <audioTrack automationLaneOpenState="false" id="10013" index="12" select="false" visible="true">
        <trackParameters trackHeight="98" trackHue="267" trackMinimized="false">
          <name>トラック 13</name>
        </trackParameters>
        <trackAudioParameters audioChannelType="stereo" automationMode="1" monitoring="false" recordArmed="false" solo="false" soloSafe="false">
          <trackOutput outputID="10000" type="trackID"/>
          <trackInput inputID="1"/>
          <component componentGuid="1015f6c6-74a6-477e-9316-cc7ce49ff1a4" componentID="Audition.Fader" id="trackFader" name="volume" powered="true">
            <parameter index="0" name="volume" parameterValue="1"/>
            <parameter index="1" name="static gain" parameterValue="1"/>
          </component>
          <component componentGuid="35aa6385-8522-49e3-92c7-073f63a8ed16" componentID="Audition.Mute" id="trackMute" name="Mute" powered="true">
            <parameter index="0" parameterValue="0"/>
            <parameter index="1" name="mute" parameterValue="0"/>
          </component>
          <component componentGuid="230092c7-e913-49a0-8c60-d7e233174906" componentID="Audition.StereoPanner" id="trackPan" name="StereoPanner" powered="true">
            <parameter index="0" name="パン" parameterValue="0"/>
          </component>
          <component componentGuid="f22329de-00f3-4777-b301-1fc926d30eeb" componentID="Audition.EQ" id="trackEQ" name="EQ" powered="false">
            <parameter index="0" name="ローシェルビング周波数" parameterValue="0.0008340000058524310588836669921875"/>
            <parameter index="1" name="ローシェルビングゲイン" parameterValue="0.5"/>
            <parameter index="2" name="ハイシェルビング周波数" parameterValue="0.74979150295257568359375"/>
            <parameter index="3" name="ハイシェルビングゲイン" parameterValue="0.5"/>
            <parameter index="4" name="EQ バンド 1 センター周波数" parameterValue="0.001250999979674816131591796875"/>
            <parameter index="5" name="EQ バンド 1 Q" parameterValue="0.000199999994947575032711029052734375"/>
            <parameter index="6" name="EQ バンド 1 ゲイン" parameterValue="0.5"/>
            <parameter index="7" name="EQ バンド 1 有効" parameterValue="1"/>
            <parameter index="8" name="EQ バンド 2 センター周波数" parameterValue="0.0075063002295792102813720703125"/>
            <parameter index="9" name="EQ バンド 2 Q" parameterValue="0.000199999994947575032711029052734375"/>
            <parameter index="10" name="EQ バンド 2 ゲイン" parameterValue="0.5"/>
            <parameter index="11" name="EQ バンド 2 有効" parameterValue="1"/>
            <parameter index="12" name="EQ バンド 3 センター周波数" parameterValue="0.0325271002948284149169921875"/>
            <parameter index="13" name="EQ バンド 3 Q" parameterValue="0.000199999994947575032711029052734375"/>
            <parameter index="14" name="EQ バンド 3 ゲイン" parameterValue="0.5"/>
            <parameter index="15" name="EQ バンド 3 有効" parameterValue="1"/>
            <parameter index="16" name="EQ バンド 4 センター周波数" parameterValue="0.132610499858856201171875"/>
            <parameter index="17" name="EQ バンド 4 Q" parameterValue="0.000199999994947575032711029052734375"/>
            <parameter index="18" name="EQ バンド 4 ゲイン" parameterValue="0.5"/>
            <parameter index="19" name="EQ バンド 4 有効" parameterValue="1"/>
            <parameter index="20" name="EQ バンド 5 センター周波数" parameterValue="0.53294408321380615234375"/>
            <parameter index="21" name="EQ バンド 5 Q" parameterValue="0.000199999994947575032711029052734375"/>
            <parameter index="22" name="EQ バンド 5 ゲイン" parameterValue="0.5"/>
            <parameter index="23" name="EQ バンド 5 有効" parameterValue="1"/>
            <parameter index="24" name="マスターゲイン" parameterValue="0.666666686534881591796875"/>
            <parameter index="25" name="ConstantQ" parameterValue="1"/>
            <parameter index="26" name="ローシェルビングフィルター次数" parameterValue="0"/>
            <parameter index="27" name="ハイシェルビングフィルター次数" parameterValue="0"/>
            <parameter index="28" name="ノイズレスモード" parameterValue="0"/>
            <parameter index="29" name="ローシェルビング有効" parameterValue="1"/>
            <parameter index="30" name="ハイシェルビング有効" parameterValue="1"/>
            <parameter index="31" name="オリジナルサンプルレート" parameterValue="0.25"/>
            <parameter index="32" name="EQ バンド 1 バンド幅" parameterValue="0.0024999999441206455230712890625"/>
            <parameter index="33" name="EQ バンド 2 バンド幅" parameterValue="0.00999999977648258209228515625"/>
            <parameter index="34" name="EQ バンド 3 バンド幅" parameterValue="0.039999999105930328369140625"/>
            <parameter index="35" name="EQ バンド 4 バンド幅" parameterValue="0.1599999964237213134765625"/>
            <parameter index="36" name="EQ バンド 5 バンド幅" parameterValue="0.63999998569488525390625"/>
            <parameter index="37" name="ハイパスフィルター有効" parameterValue="0"/>
            <parameter index="38" name="ハイパスカットオフ周波数" parameterValue="0"/>
            <parameter index="39" name="ハイパススロープ" parameterValue="0.4000000059604644775390625"/>
            <parameter index="40" name="ローパスフィルター有効" parameterValue="0"/>
            <parameter index="41" name="ローパスカットオフ周波数" parameterValue="0.833194315433502197265625"/>
            <parameter index="42" name="ローパススロープ" parameterValue="0.4000000059604644775390625"/>
            <parameter index="43" name="バイパス" parameterValue="0"/>
            <parameter index="44" name="LowGraphRange" parameterValue="1"/>
          </component>
        </trackAudioParameters>
        <editParameter parameterIndex="0" slotIndex="4294967280"/>
        <audioClip clipAutoCrossfade="true" crossFadeHeadClipID="-1" crossFadeTailClipID="-1" endPoint="2047383" fileID="19" hue="-1" id="0" lockedInTime="false" looped="false" name="OPED用ジングル7_ 48000 1" offline="false" select="false" sourceInPoint="420123" sourceOutPoint="639319" startPoint="1828187" zOrder="45">
          <properties properties="{&quot;ClipRemixParameters&quot;:{&quot;type&quot;:&quot;tree::any&quot;,&quot;value&quot;:{&quot;ChromaWeight&quot;:{&quot;type&quot;:&quot;float&quot;,&quot;value&quot;:1},&quot;EditLength&quot;:{&quot;type&quot;:&quot;float&quot;,&quot;value&quot;:1},&quot;EndAtEnd&quot;:{&quot;type&quot;:&quot;bool&quot;,&quot;value&quot;:true},&quot;MaximumSlack&quot;:{&quot;type&quot;:&quot;float&quot;,&quot;value&quot;:5},&quot;MinimumLoopBeats&quot;:{&quot;type&quot;:&quot;std::uint32_t&quot;,&quot;value&quot;:8},&quot;MusicRetargetingEnabled&quot;:{&quot;type&quot;:&quot;bool&quot;,&quot;value&quot;:true},&quot;SourceClipDuration&quot;:{&quot;type&quot;:&quot;array::std::int64_t&quot;,&quot;value&quot;:[20783,1200]},&quot;SourceClipRangeStart&quot;:{&quot;type&quot;:&quot;array::std::int64_t&quot;,&quot;value&quot;:[0,1]},&quot;SplitIntoSegments&quot;:{&quot;type&quot;:&quot;bool&quot;,&quot;value&quot;:false},&quot;StartAtBeginning&quot;:{&quot;type&quot;:&quot;bool&quot;,&quot;value&quot;:true},&quot;StretchExact&quot;:{&quot;type&quot;:&quot;bool&quot;,&quot;value&quot;:false},&quot;TargetDuration&quot;:{&quot;type&quot;:&quot;array::std::int64_t&quot;,&quot;value&quot;:[10,1]},&quot;TimbreWeight&quot;:{&quot;type&quot;:&quot;float&quot;,&quot;value&quot;:1}}},&quot;ClipRetargetSourceSettings&quot;:{&quot;type&quot;:&quot;tree::any&quot;,&quot;value&quot;:{&quot;ComponentKeyframeInfoKey&quot;:{&quot;type&quot;:&quot;tree::any&quot;,&quot;value&quot;:{}}}},&quot;RemixResults&quot;:{&quot;type&quot;:&quot;tree::any&quot;,&quot;value&quot;:{&quot;AnalysisDataGuid&quot;:{&quot;type&quot;:&quot;UTF16String&quot;,&quot;value&quot;:&quot;a0cadc7b-8b26-4b5c-9170-d9000dc54336&quot;},&quot;Segments&quot;:{&quot;type&quot;:&quot;tree::any&quot;,&quot;value&quot;:{&quot;Segment_0&quot;:{&quot;type&quot;:&quot;tree::any&quot;,&quot;value&quot;:{&quot;Crossfade&quot;:{&quot;type&quot;:&quot;array::std::int64_t&quot;,&quot;value&quot;:[1953,4000]},&quot;Duration&quot;:{&quot;type&quot;:&quot;array::std::int64_t&quot;,&quot;value&quot;:[816,125]},&quot;Offset&quot;:{&quot;type&quot;:&quot;array::std::int64_t&quot;,&quot;value&quot;:[0,1]}}},&quot;Segment_1&quot;:{&quot;type&quot;:&quot;tree::any&quot;,&quot;value&quot;:{&quot;Crossfade&quot;:{&quot;type&quot;:&quot;array::std::int64_t&quot;,&quot;value&quot;:[1953,4000]},&quot;Duration&quot;:{&quot;type&quot;:&quot;array::std::int64_t&quot;,&quot;value&quot;:[13039,1920]},&quot;Offset&quot;:{&quot;type&quot;:&quot;array::std::int64_t&quot;,&quot;value&quot;:[1316,125]}}}}}}}}"/>
          <component componentGuid="52bc4451-c41f-43ca-80b9-0d60e1064035" componentID="Audition.Fader" id="clipGain" name="volume" powered="true">
            <parameter index="0" name="volume" parameterValue="0.015843801200389862060546875"/>
            <parameter index="1" name="static gain" parameterValue="1"/>
          </component>
          <component componentGuid="4d142da7-7049-4ace-b0ca-23566bc30d51" componentID="Audition.Mute" id="clipMute" name="Mute" powered="true">
            <parameter index="0" parameterValue="0"/>
            <parameter index="1" name="mute" parameterValue="0"/>
          </component>
          <component componentGuid="d462559a-1d18-452e-afbf-36215491ec03" componentID="Audition.StereoPanner" id="clipPan" name="StereoPanner" powered="true">
            <parameter index="0" name="パン" parameterValue="0">
              <parameterKeyframes enableSplines="false" readOnly="false">
                <parameterKeyframe sampleOffset="408193" select="false" type="linear" value="0.5"/>
              </parameterKeyframes>
            </parameter>
          </component>
          <fadeIn crossFadeLinkType="linkedAsymmetric" endPoint="15404" shape="6" startPoint="0" type="log"/>
          <fadeOut crossFadeLinkType="linkedAsymmetric" endPoint="219196" shape="19" startPoint="193522" type="log"/>
          <clipStretch adaptiveWindowSize="37" pitchAdjustment="0" preserveFormants="true" stretchMode="realtime" stretchQuality="high" stretchRatio="1" stretchType="normal" transientSensitivity="40"/>
          <editParameter parameterIndex="0" slotIndex="4294967280"/>
          <editParameter parameterIndex="0" slotIndex="4294967281"/>
          <channelMap>
            <channel index="0" sourceIndex="0"/>
            <channel index="1" sourceIndex="1"/>
          </channelMap>
        </audioClip>
        <audioClip clipAutoCrossfade="true" crossFadeHeadClipID="-1" crossFadeTailClipID="-1" endPoint="3873461" fileID="20" hue="-1" id="1" lockedInTime="false" looped="false" name="VSQ_MUSIC_007" offline="false" select="false" sourceInPoint="0" sourceOutPoint="1761020" startPoint="2112441" zOrder="46">
          <component componentGuid="7e242af7-7249-4924-82c9-5efb631cc19a" componentID="Audition.Fader" id="clipGain" name="volume" powered="true">
            <parameter index="0" name="volume" parameterValue="0.015843801200389862060546875"/>
            <parameter index="1" name="static gain" parameterValue="1"/>
          </component>
          <component componentGuid="cd13d25b-3dab-4fda-9d2c-fe5c5eac8833" componentID="Audition.Mute" id="clipMute" name="Mute" powered="true">
            <parameter index="0" parameterValue="0"/>
            <parameter index="1" name="mute" parameterValue="0"/>
          </component>
          <component componentGuid="5796e674-e612-4bc9-a48d-4334c6d524d0" componentID="Audition.StereoPanner" id="clipPan" name="StereoPanner" powered="true">
            <parameter index="0" name="パン" parameterValue="0"/>
          </component>
          <fadeIn crossFadeLinkType="linkedAsymmetric" endPoint="16914" shape="23" startPoint="0" type="log"/>
          <fadeOut crossFadeLinkType="linkedAsymmetric" endPoint="1761020" shape="0" startPoint="1680310" type="log"/>
          <editParameter parameterIndex="0" slotIndex="4294967281"/>
          <editParameter parameterIndex="0" slotIndex="4294967280"/>
          <channelMap>
            <channel index="0" sourceIndex="0"/>
            <channel index="1" sourceIndex="1"/>
          </channelMap>
        </audioClip>
      </audioTrack>
      <audioTrack automationLaneOpenState="false" id="10008" index="13" select="false" visible="true">
        <trackParameters trackHeight="98" trackHue="326" trackMinimized="false">
          <name>トラック 8</name>
        </trackParameters>
        <trackAudioParameters audioChannelType="stereo" automationMode="1" monitoring="false" recordArmed="false" solo="false" soloSafe="false">
          <trackOutput outputID="10027" type="trackID"/>
          <trackInput inputID="1"/>
          <component componentGuid="59fb2c08-d3b1-4575-8cd9-9df2954e2dbe" componentID="Audition.Fader" id="trackFader" name="volume" powered="true">
            <parameter index="0" name="volume" parameterValue="1"/>
            <parameter index="1" name="static gain" parameterValue="1"/>
          </component>
          <component componentGuid="ba5bd3c8-7e06-4142-b0ba-6618f56bde5c" componentID="Audition.Mute" id="trackMute" name="Mute" powered="true">
            <parameter index="0" parameterValue="0"/>
            <parameter index="1" name="mute" parameterValue="0"/>
          </component>
          <component componentGuid="e8c7fee9-2027-448c-9f2c-b81d314ef27e" componentID="Audition.StereoPanner" id="trackPan" name="StereoPanner" powered="true">
            <parameter index="0" name="パン" parameterValue="0"/>
          </component>
          <component componentGuid="bc8603dd-e0ad-4979-ac05-18573a1f9a12" componentID="Audition.EQ" id="trackEQ" name="EQ" powered="false">
            <parameter index="0" name="ローシェルビング周波数" parameterValue="0.0008340000058524310588836669921875"/>
            <parameter index="1" name="ローシェルビングゲイン" parameterValue="0.5"/>
            <parameter index="2" name="ハイシェルビング周波数" parameterValue="0.74979150295257568359375"/>
            <parameter index="3" name="ハイシェルビングゲイン" parameterValue="0.5"/>
            <parameter index="4" name="EQ バンド 1 センター周波数" parameterValue="0.001250999979674816131591796875"/>
            <parameter index="5" name="EQ バンド 1 Q" parameterValue="0.000199999994947575032711029052734375"/>
            <parameter index="6" name="EQ バンド 1 ゲイン" parameterValue="0.5"/>
            <parameter index="7" name="EQ バンド 1 有効" parameterValue="1"/>
            <parameter index="8" name="EQ バンド 2 センター周波数" parameterValue="0.0075063002295792102813720703125"/>
            <parameter index="9" name="EQ バンド 2 Q" parameterValue="0.000199999994947575032711029052734375"/>
            <parameter index="10" name="EQ バンド 2 ゲイン" parameterValue="0.5"/>
            <parameter index="11" name="EQ バンド 2 有効" parameterValue="1"/>
            <parameter index="12" name="EQ バンド 3 センター周波数" parameterValue="0.0325271002948284149169921875"/>
            <parameter index="13" name="EQ バンド 3 Q" parameterValue="0.000199999994947575032711029052734375"/>
            <parameter index="14" name="EQ バンド 3 ゲイン" parameterValue="0.5"/>
            <parameter index="15" name="EQ バンド 3 有効" parameterValue="1"/>
            <parameter index="16" name="EQ バンド 4 センター周波数" parameterValue="0.132610499858856201171875"/>
            <parameter index="17" name="EQ バンド 4 Q" parameterValue="0.000199999994947575032711029052734375"/>
            <parameter index="18" name="EQ バンド 4 ゲイン" parameterValue="0.5"/>
            <parameter index="19" name="EQ バンド 4 有効" parameterValue="1"/>
            <parameter index="20" name="EQ バンド 5 センター周波数" parameterValue="0.53294408321380615234375"/>
            <parameter index="21" name="EQ バンド 5 Q" parameterValue="0.000199999994947575032711029052734375"/>
            <parameter index="22" name="EQ バンド 5 ゲイン" parameterValue="0.5"/>
            <parameter index="23" name="EQ バンド 5 有効" parameterValue="1"/>
            <parameter index="24" name="マスターゲイン" parameterValue="0.666666686534881591796875"/>
            <parameter index="25" name="ConstantQ" parameterValue="1"/>
            <parameter index="26" name="ローシェルビングフィルター次数" parameterValue="0"/>
            <parameter index="27" name="ハイシェルビングフィルター次数" parameterValue="0"/>
            <parameter index="28" name="ノイズレスモード" parameterValue="0"/>
            <parameter index="29" name="ローシェルビング有効" parameterValue="1"/>
            <parameter index="30" name="ハイシェルビング有効" parameterValue="1"/>
            <parameter index="31" name="オリジナルサンプルレート" parameterValue="0.25"/>
            <parameter index="32" name="EQ バンド 1 バンド幅" parameterValue="0.0024999999441206455230712890625"/>
            <parameter index="33" name="EQ バンド 2 バンド幅" parameterValue="0.00999999977648258209228515625"/>
            <parameter index="34" name="EQ バンド 3 バンド幅" parameterValue="0.039999999105930328369140625"/>
            <parameter index="35" name="EQ バンド 4 バンド幅" parameterValue="0.1599999964237213134765625"/>
            <parameter index="36" name="EQ バンド 5 バンド幅" parameterValue="0.63999998569488525390625"/>
            <parameter index="37" name="ハイパスフィルター有効" parameterValue="0"/>
            <parameter index="38" name="ハイパスカットオフ周波数" parameterValue="0"/>
            <parameter index="39" name="ハイパススロープ" parameterValue="0.4000000059604644775390625"/>
            <parameter index="40" name="ローパスフィルター有効" parameterValue="0"/>
            <parameter index="41" name="ローパスカットオフ周波数" parameterValue="0.833194315433502197265625"/>
            <parameter index="42" name="ローパススロープ" parameterValue="0.4000000059604644775390625"/>
            <parameter index="43" name="バイパス" parameterValue="0"/>
            <parameter index="44" name="LowGraphRange" parameterValue="1"/>
          </component>
        </trackAudioParameters>
        <editParameter parameterIndex="0" slotIndex="4294967280"/>
        <audioClip clipAutoCrossfade="true" crossFadeHeadClipID="-1" crossFadeTailClipID="-1" endPoint="5130930" fileID="9" hue="-1" id="0" lockedInTime="false" looped="false" name="トラック 3_010" offline="false" select="false" sourceInPoint="0" sourceOutPoint="914432" startPoint="4216498" zOrder="45">
          <component componentGuid="1dfbe16a-1b23-4cac-a260-f5b38cfb054c" componentID="Audition.Fader" id="clipGain" name="volume" powered="true">
            <parameter index="0" name="volume" parameterValue="1"/>
            <parameter index="1" name="static gain" parameterValue="1"/>
          </component>
          <component componentGuid="682fd84b-3a8b-4f71-86a3-0b37d8cc6fb5" componentID="Audition.Mute" id="clipMute" name="Mute" powered="true">
            <parameter index="0" parameterValue="0"/>
            <parameter index="1" name="mute" parameterValue="0"/>
          </component>
          <component componentGuid="02c303e9-8230-4132-96ad-56fad6d2e383" componentID="Audition.StereoPanner" id="clipPan" name="StereoPanner" powered="true">
            <parameter index="0" name="パン" parameterValue="0"/>
          </component>
          <fadeIn crossFadeLinkType="linkedAsymmetric" endPoint="0" shape="0" startPoint="0" type="cosine"/>
          <fadeOut crossFadeLinkType="linkedAsymmetric" endPoint="914432" shape="0" startPoint="914432" type="cosine"/>
          <editParameter parameterIndex="0" slotIndex="4294967281"/>
          <editParameter parameterIndex="0" slotIndex="4294967280"/>
          <channelMap>
            <channel index="0" sourceIndex="0"/>
          </channelMap>
        </audioClip>
      </audioTrack>
      <audioTrack automationLaneOpenState="false" id="10009" index="14" select="false" visible="true">
        <trackParameters trackHeight="98" trackHue="326" trackMinimized="false">
          <name>トラック 9</name>
        </trackParameters>
        <trackAudioParameters audioChannelType="stereo" automationMode="1" monitoring="false" recordArmed="false" solo="false" soloSafe="false">
          <trackOutput outputID="10027" type="trackID"/>
          <trackInput inputID="1"/>
          <component componentGuid="42cab4f6-78d5-4aea-afab-98e51d08f27a" componentID="Audition.Fader" id="trackFader" name="volume" powered="true">
            <parameter index="0" name="volume" parameterValue="1"/>
            <parameter index="1" name="static gain" parameterValue="1"/>
          </component>
          <component componentGuid="0031151a-2afe-4302-9d18-6ccb61b464b6" componentID="Audition.Mute" id="trackMute" name="Mute" powered="true">
            <parameter index="0" parameterValue="0"/>
            <parameter index="1" name="mute" parameterValue="1"/>
          </component>
          <component componentGuid="7872448c-624b-4f76-b3b6-ff5007c20c35" componentID="Audition.StereoPanner" id="trackPan" name="StereoPanner" powered="true">
            <parameter index="0" name="パン" parameterValue="0"/>
          </component>
          <component componentGuid="64e85738-6377-413d-b0d5-be17c9c69f13" componentID="Audition.EQ" id="trackEQ" name="EQ" powered="false">
            <parameter index="0" name="ローシェルビング周波数" parameterValue="0.0008340000058524310588836669921875"/>
            <parameter index="1" name="ローシェルビングゲイン" parameterValue="0.5"/>
            <parameter index="2" name="ハイシェルビング周波数" parameterValue="0.74979150295257568359375"/>
            <parameter index="3" name="ハイシェルビングゲイン" parameterValue="0.5"/>
            <parameter index="4" name="EQ バンド 1 センター周波数" parameterValue="0.001250999979674816131591796875"/>
            <parameter index="5" name="EQ バンド 1 Q" parameterValue="0.000199999994947575032711029052734375"/>
            <parameter index="6" name="EQ バンド 1 ゲイン" parameterValue="0.5"/>
            <parameter index="7" name="EQ バンド 1 有効" parameterValue="1"/>
            <parameter index="8" name="EQ バンド 2 センター周波数" parameterValue="0.0075063002295792102813720703125"/>
            <parameter index="9" name="EQ バンド 2 Q" parameterValue="0.000199999994947575032711029052734375"/>
            <parameter index="10" name="EQ バンド 2 ゲイン" parameterValue="0.5"/>
            <parameter index="11" name="EQ バンド 2 有効" parameterValue="1"/>
            <parameter index="12" name="EQ バンド 3 センター周波数" parameterValue="0.0325271002948284149169921875"/>
            <parameter index="13" name="EQ バンド 3 Q" parameterValue="0.000199999994947575032711029052734375"/>
            <parameter index="14" name="EQ バンド 3 ゲイン" parameterValue="0.5"/>
            <parameter index="15" name="EQ バンド 3 有効" parameterValue="1"/>
            <parameter index="16" name="EQ バンド 4 センター周波数" parameterValue="0.132610499858856201171875"/>
            <parameter index="17" name="EQ バンド 4 Q" parameterValue="0.000199999994947575032711029052734375"/>
            <parameter index="18" name="EQ バンド 4 ゲイン" parameterValue="0.5"/>
            <parameter index="19" name="EQ バンド 4 有効" parameterValue="1"/>
            <parameter index="20" name="EQ バンド 5 センター周波数" parameterValue="0.53294408321380615234375"/>
            <parameter index="21" name="EQ バンド 5 Q" parameterValue="0.000199999994947575032711029052734375"/>
            <parameter index="22" name="EQ バンド 5 ゲイン" parameterValue="0.5"/>
            <parameter index="23" name="EQ バンド 5 有効" parameterValue="1"/>
            <parameter index="24" name="マスターゲイン" parameterValue="0.666666686534881591796875"/>
            <parameter index="25" name="ConstantQ" parameterValue="1"/>
            <parameter index="26" name="ローシェルビングフィルター次数" parameterValue="0"/>
            <parameter index="27" name="ハイシェルビングフィルター次数" parameterValue="0"/>
            <parameter index="28" name="ノイズレスモード" parameterValue="0"/>
            <parameter index="29" name="ローシェルビング有効" parameterValue="1"/>
            <parameter index="30" name="ハイシェルビング有効" parameterValue="1"/>
            <parameter index="31" name="オリジナルサンプルレート" parameterValue="0.25"/>
            <parameter index="32" name="EQ バンド 1 バンド幅" parameterValue="0.0024999999441206455230712890625"/>
            <parameter index="33" name="EQ バンド 2 バンド幅" parameterValue="0.00999999977648258209228515625"/>
            <parameter index="34" name="EQ バンド 3 バンド幅" parameterValue="0.039999999105930328369140625"/>
            <parameter index="35" name="EQ バンド 4 バンド幅" parameterValue="0.1599999964237213134765625"/>
            <parameter index="36" name="EQ バンド 5 バンド幅" parameterValue="0.63999998569488525390625"/>
            <parameter index="37" name="ハイパスフィルター有効" parameterValue="0"/>
            <parameter index="38" name="ハイパスカットオフ周波数" parameterValue="0"/>
            <parameter index="39" name="ハイパススロープ" parameterValue="0.4000000059604644775390625"/>
            <parameter index="40" name="ローパスフィルター有効" parameterValue="0"/>
            <parameter index="41" name="ローパスカットオフ周波数" parameterValue="0.833194315433502197265625"/>
            <parameter index="42" name="ローパススロープ" parameterValue="0.4000000059604644775390625"/>
            <parameter index="43" name="バイパス" parameterValue="0"/>
            <parameter index="44" name="LowGraphRange" parameterValue="1"/>
          </component>
        </trackAudioParameters>
        <editParameter parameterIndex="0" slotIndex="4294967280"/>
        <audioClip clipAutoCrossfade="true" crossFadeHeadClipID="-1" crossFadeTailClipID="-1" endPoint="5310385" fileID="12" hue="-1" id="0" lockedInTime="false" looped="false" name="トラック 4_011" offline="false" select="false" sourceInPoint="1291419" sourceOutPoint="1625818" startPoint="4975986" zOrder="45">
          <component componentGuid="683ca526-51db-415b-bac3-e47e9f5dd1e4" componentID="Audition.Fader" id="clipGain" name="volume" powered="true">
            <parameter index="0" name="volume" parameterValue="1"/>
            <parameter index="1" name="static gain" parameterValue="1"/>
          </component>
          <component componentGuid="23b9989e-41c6-45f6-ac2a-cef23f2b801b" componentID="Audition.Mute" id="clipMute" name="Mute" powered="true">
            <parameter index="0" parameterValue="0"/>
            <parameter index="1" name="mute" parameterValue="0"/>
          </component>
          <component componentGuid="c6531882-1867-45bd-b23a-19d26940e5ef" componentID="Audition.StereoPanner" id="clipPan" name="StereoPanner" powered="true">
            <parameter index="0" name="パン" parameterValue="0"/>
          </component>
          <fadeIn crossFadeLinkType="linkedAsymmetric" endPoint="0" shape="0" startPoint="0" type="cosine"/>
          <fadeOut crossFadeLinkType="linkedAsymmetric" endPoint="334399" shape="0" startPoint="334399" type="cosine"/>
          <editParameter parameterIndex="0" slotIndex="4294967281"/>
          <editParameter parameterIndex="0" slotIndex="4294967280"/>
          <channelMap>
            <channel index="0" sourceIndex="0"/>
          </channelMap>
        </audioClip>
      </audioTrack>
      <audioTrack automationLaneOpenState="false" id="10035" index="15" select="false" visible="true">
        <trackParameters trackHeight="98" trackHue="211" trackMinimized="false">
          <name>トラック 7</name>
        </trackParameters>
        <trackAudioParameters audioChannelType="stereo" automationMode="1" monitoring="false" recordArmed="false" solo="false" soloSafe="false">
          <trackOutput outputID="10000" type="trackID"/>
          <trackInput inputID="1"/>
          <component componentGuid="198d6c33-9bde-4bfe-90df-bc8ed29775b5" componentID="Audition.Fader" id="trackFader" name="volume" powered="true">
            <parameter index="0" name="volume" parameterValue="1"/>
            <parameter index="1" name="static gain" parameterValue="1"/>
          </component>
          <component componentGuid="80c9419c-3432-4bad-953b-cff476cad61e" componentID="Audition.Mute" id="trackMute" name="Mute" powered="true">
            <parameter index="0" parameterValue="0"/>
            <parameter index="1" name="mute" parameterValue="1"/>
          </component>
          <component componentGuid="fd4aaa99-6740-4754-9ccc-614867b9f456" componentID="Audition.StereoPanner" id="trackPan" name="StereoPanner" powered="true">
            <parameter index="0" name="パン" parameterValue="0"/>
          </component>
          <component componentGuid="79c643f5-9ae8-4a31-a1ac-06584ecc99dd" componentID="Audition.EQ" id="trackEQ" name="EQ" powered="false">
            <parameter index="0" name="ローシェルビング周波数" parameterValue="0.000834028352983295917510986328125"/>
            <parameter index="1" name="ローシェルビングゲイン" parameterValue="0.5"/>
            <parameter index="2" name="ハイシェルビング周波数" parameterValue="0.74979150295257568359375"/>
            <parameter index="3" name="ハイシェルビングゲイン" parameterValue="0.5"/>
            <parameter index="4" name="EQ バンド 1 センター周波数" parameterValue="0.00125104258768260478973388671875"/>
            <parameter index="5" name="EQ バンド 1 Q" parameterValue="0.000199989997781813144683837890625"/>
            <parameter index="6" name="EQ バンド 1 ゲイン" parameterValue="0.5"/>
            <parameter index="7" name="EQ バンド 1 有効" parameterValue="1"/>
            <parameter index="8" name="EQ バンド 2 センター周波数" parameterValue="0.0075062550604343414306640625"/>
            <parameter index="9" name="EQ バンド 2 Q" parameterValue="0.000199989997781813144683837890625"/>
            <parameter index="10" name="EQ バンド 2 ゲイン" parameterValue="0.5"/>
            <parameter index="11" name="EQ バンド 2 有効" parameterValue="1"/>
            <parameter index="12" name="EQ バンド 3 センター周波数" parameterValue="0.0325271077454090118408203125"/>
            <parameter index="13" name="EQ バンド 3 Q" parameterValue="0.000199989997781813144683837890625"/>
            <parameter index="14" name="EQ バンド 3 ゲイン" parameterValue="0.5"/>
            <parameter index="15" name="EQ バンド 3 有効" parameterValue="1"/>
            <parameter index="16" name="EQ バンド 4 センター周波数" parameterValue="0.13261051476001739501953125"/>
            <parameter index="17" name="EQ バンド 4 Q" parameterValue="0.000199989997781813144683837890625"/>
            <parameter index="18" name="EQ バンド 4 ゲイン" parameterValue="0.5"/>
            <parameter index="19" name="EQ バンド 4 有効" parameterValue="1"/>
            <parameter index="20" name="EQ バンド 5 センター周波数" parameterValue="0.532944142818450927734375"/>
            <parameter index="21" name="EQ バンド 5 Q" parameterValue="0.000199989997781813144683837890625"/>
            <parameter index="22" name="EQ バンド 5 ゲイン" parameterValue="0.5"/>
            <parameter index="23" name="EQ バンド 5 有効" parameterValue="1"/>
            <parameter index="24" name="マスターゲイン" parameterValue="0.666666686534881591796875"/>
            <parameter index="25" name="ConstantQ" parameterValue="1"/>
            <parameter index="26" name="ローシェルビングフィルター次数" parameterValue="0"/>
            <parameter index="27" name="ハイシェルビングフィルター次数" parameterValue="0"/>
            <parameter index="28" name="ノイズレスモード" parameterValue="0"/>
            <parameter index="29" name="ローシェルビング有効" parameterValue="1"/>
            <parameter index="30" name="ハイシェルビング有効" parameterValue="1"/>
            <parameter index="31" name="オリジナルサンプルレート" parameterValue="0.25"/>
            <parameter index="32" name="EQ バンド 1 バンド幅" parameterValue="0.002499990165233612060546875"/>
            <parameter index="33" name="EQ バンド 2 バンド幅" parameterValue="0.0099999904632568359375"/>
            <parameter index="34" name="EQ バンド 3 バンド幅" parameterValue="0.0399999916553497314453125"/>
            <parameter index="35" name="EQ バンド 4 バンド幅" parameterValue="0.15999998152256011962890625"/>
            <parameter index="36" name="EQ バンド 5 バンド幅" parameterValue="0.63999998569488525390625"/>
            <parameter index="37" name="ハイパスフィルター有効" parameterValue="0"/>
            <parameter index="38" name="ハイパスカットオフ周波数" parameterValue="0"/>
            <parameter index="39" name="ハイパススロープ" parameterValue="0.4000000059604644775390625"/>
            <parameter index="40" name="ローパスフィルター有効" parameterValue="0"/>
            <parameter index="41" name="ローパスカットオフ周波数" parameterValue="0.833194315433502197265625"/>
            <parameter index="42" name="ローパススロープ" parameterValue="0.4000000059604644775390625"/>
            <parameter index="43" name="バイパス" parameterValue="0"/>
            <parameter index="44" name="LowGraphRange" parameterValue="1"/>
          </component>
        </trackAudioParameters>
        <editParameter parameterIndex="0" slotIndex="4294967280"/>
        <audioClip clipAutoCrossfade="true" crossFadeHeadClipID="-1" crossFadeTailClipID="-1" endPoint="6201687" fileID="21" hue="-1" id="0" lockedInTime="false" looped="false" name="トラック 6_018" offline="false" select="false" sourceInPoint="57147" sourceOutPoint="535982" startPoint="5722852" zOrder="45">
          <component componentGuid="43351b26-553c-4c72-bc93-1148b8d0553f" componentID="Audition.Fader" id="clipGain" name="volume" powered="true">
            <parameter index="0" name="volume" parameterValue="1"/>
            <parameter index="1" name="static gain" parameterValue="1"/>
          </component>
          <component componentGuid="5bf7311b-48db-4785-9c07-764ec63f1fba" componentID="Audition.Mute" id="clipMute" name="Mute" powered="true">
            <parameter index="0" parameterValue="0"/>
            <parameter index="1" name="mute" parameterValue="0"/>
          </component>
          <component componentGuid="a47531ad-bbf0-4526-8690-92dc11a8448d" componentID="Audition.StereoPanner" id="clipPan" name="StereoPanner" powered="true">
            <parameter index="0" name="パン" parameterValue="0"/>
          </component>
          <fadeIn crossFadeLinkType="linkedAsymmetric" endPoint="0" shape="0" startPoint="0" type="cosine"/>
          <fadeOut crossFadeLinkType="linkedAsymmetric" endPoint="478835" shape="0" startPoint="478835" type="cosine"/>
          <take sourceInPoint="0"/>
          <editParameter parameterIndex="0" slotIndex="4294967280"/>
          <editParameter parameterIndex="0" slotIndex="4294967281"/>
          <channelMap>
            <channel index="0" sourceIndex="0"/>
          </channelMap>
        </audioClip>
      </audioTrack>
      <audioTrack automationLaneOpenState="false" id="10010" index="16" select="false" visible="true">
        <trackParameters trackHeight="98" trackHue="132" trackMinimized="false">
          <name>トラック 10</name>
        </trackParameters>
        <trackAudioParameters audioChannelType="stereo" automationMode="1" monitoring="false" recordArmed="false" solo="false" soloSafe="false">
          <trackOutput outputID="10027" type="trackID"/>
          <trackInput inputID="1"/>
          <component componentGuid="c5c99ace-0886-4fe8-98fb-062f609c4582" componentID="Audition.Fader" id="trackFader" name="volume" powered="true">
            <parameter index="0" name="volume" parameterValue="1"/>
            <parameter index="1" name="static gain" parameterValue="1"/>
          </component>
          <component componentGuid="ec9f7cc4-b3ed-418f-a1a2-9b65caa4acd6" componentID="Audition.Mute" id="trackMute" name="Mute" powered="true">
            <parameter index="0" parameterValue="0"/>
            <parameter index="1" name="mute" parameterValue="0"/>
          </component>
          <component componentGuid="c91afc01-2b58-4ce0-ae52-66b5a7db8540" componentID="Audition.StereoPanner" id="trackPan" name="StereoPanner" powered="true">
            <parameter index="0" name="パン" parameterValue="0"/>
          </component>
          <component componentGuid="b30082e7-ab67-4654-8580-9a00bc132cb0" componentID="Audition.EQ" id="trackEQ" name="EQ" powered="false">
            <parameter index="0" name="ローシェルビング周波数" parameterValue="0.0008340000058524310588836669921875"/>
            <parameter index="1" name="ローシェルビングゲイン" parameterValue="0.5"/>
            <parameter index="2" name="ハイシェルビング周波数" parameterValue="0.74979150295257568359375"/>
            <parameter index="3" name="ハイシェルビングゲイン" parameterValue="0.5"/>
            <parameter index="4" name="EQ バンド 1 センター周波数" parameterValue="0.001250999979674816131591796875"/>
            <parameter index="5" name="EQ バンド 1 Q" parameterValue="0.000199999994947575032711029052734375"/>
            <parameter index="6" name="EQ バンド 1 ゲイン" parameterValue="0.5"/>
            <parameter index="7" name="EQ バンド 1 有効" parameterValue="1"/>
            <parameter index="8" name="EQ バンド 2 センター周波数" parameterValue="0.0075063002295792102813720703125"/>
            <parameter index="9" name="EQ バンド 2 Q" parameterValue="0.000199999994947575032711029052734375"/>
            <parameter index="10" name="EQ バンド 2 ゲイン" parameterValue="0.5"/>
            <parameter index="11" name="EQ バンド 2 有効" parameterValue="1"/>
            <parameter index="12" name="EQ バンド 3 センター周波数" parameterValue="0.0325271002948284149169921875"/>
            <parameter index="13" name="EQ バンド 3 Q" parameterValue="0.000199999994947575032711029052734375"/>
            <parameter index="14" name="EQ バンド 3 ゲイン" parameterValue="0.5"/>
            <parameter index="15" name="EQ バンド 3 有効" parameterValue="1"/>
            <parameter index="16" name="EQ バンド 4 センター周波数" parameterValue="0.132610499858856201171875"/>
            <parameter index="17" name="EQ バンド 4 Q" parameterValue="0.000199999994947575032711029052734375"/>
            <parameter index="18" name="EQ バンド 4 ゲイン" parameterValue="0.5"/>
            <parameter index="19" name="EQ バンド 4 有効" parameterValue="1"/>
            <parameter index="20" name="EQ バンド 5 センター周波数" parameterValue="0.53294408321380615234375"/>
            <parameter index="21" name="EQ バンド 5 Q" parameterValue="0.000199999994947575032711029052734375"/>
            <parameter index="22" name="EQ バンド 5 ゲイン" parameterValue="0.5"/>
            <parameter index="23" name="EQ バンド 5 有効" parameterValue="1"/>
            <parameter index="24" name="マスターゲイン" parameterValue="0.666666686534881591796875"/>
            <parameter index="25" name="ConstantQ" parameterValue="1"/>
            <parameter index="26" name="ローシェルビングフィルター次数" parameterValue="0"/>
            <parameter index="27" name="ハイシェルビングフィルター次数" parameterValue="0"/>
            <parameter index="28" name="ノイズレスモード" parameterValue="0"/>
            <parameter index="29" name="ローシェルビング有効" parameterValue="1"/>
            <parameter index="30" name="ハイシェルビング有効" parameterValue="1"/>
            <parameter index="31" name="オリジナルサンプルレート" parameterValue="0.25"/>
            <parameter index="32" name="EQ バンド 1 バンド幅" parameterValue="0.0024999999441206455230712890625"/>
            <parameter index="33" name="EQ バンド 2 バンド幅" parameterValue="0.00999999977648258209228515625"/>
            <parameter index="34" name="EQ バンド 3 バンド幅" parameterValue="0.039999999105930328369140625"/>
            <parameter index="35" name="EQ バンド 4 バンド幅" parameterValue="0.1599999964237213134765625"/>
            <parameter index="36" name="EQ バンド 5 バンド幅" parameterValue="0.63999998569488525390625"/>
            <parameter index="37" name="ハイパスフィルター有効" parameterValue="0"/>
            <parameter index="38" name="ハイパスカットオフ周波数" parameterValue="0"/>
            <parameter index="39" name="ハイパススロープ" parameterValue="0.4000000059604644775390625"/>
            <parameter index="40" name="ローパスフィルター有効" parameterValue="0"/>
            <parameter index="41" name="ローパスカットオフ周波数" parameterValue="0.833194315433502197265625"/>
            <parameter index="42" name="ローパススロープ" parameterValue="0.4000000059604644775390625"/>
            <parameter index="43" name="バイパス" parameterValue="0"/>
            <parameter index="44" name="LowGraphRange" parameterValue="1"/>
          </component>
        </trackAudioParameters>
        <editParameter parameterIndex="0" slotIndex="4294967280"/>
        <audioClip clipAutoCrossfade="true" crossFadeHeadClipID="-1" crossFadeTailClipID="-1" endPoint="5842084" fileID="15" hue="-1" id="0" lockedInTime="false" looped="false" name="トラック 5_016" offline="false" select="false" sourceInPoint="0" sourceOutPoint="866098" startPoint="4975986" zOrder="45">
          <component componentGuid="1cc5b112-7dd2-473b-ab40-43ce9bdafea2" componentID="Audition.Fader" id="clipGain" name="volume" powered="true">
            <parameter index="0" name="volume" parameterValue="1"/>
            <parameter index="1" name="static gain" parameterValue="1"/>
          </component>
          <component componentGuid="941fa607-2289-4834-8597-580358b1896d" componentID="Audition.Mute" id="clipMute" name="Mute" powered="true">
            <parameter index="0" parameterValue="0"/>
            <parameter index="1" name="mute" parameterValue="0"/>
          </component>
          <component componentGuid="1f29cfe0-068a-4479-ab56-4bf3ee3ddb6b" componentID="Audition.StereoPanner" id="clipPan" name="StereoPanner" powered="true">
            <parameter index="0" name="パン" parameterValue="0"/>
          </component>
          <fadeIn crossFadeLinkType="linkedAsymmetric" endPoint="0" shape="0" startPoint="0" type="cosine"/>
          <fadeOut crossFadeLinkType="linkedAsymmetric" endPoint="866098" shape="0" startPoint="866098" type="cosine"/>
          <take sourceInPoint="0"/>
          <editParameter parameterIndex="0" slotIndex="4294967280"/>
          <editParameter parameterIndex="0" slotIndex="4294967281"/>
          <channelMap>
            <channel index="0" sourceIndex="0"/>
          </channelMap>
        </audioClip>
        <audioClip clipAutoCrossfade="true" crossFadeHeadClipID="-1" crossFadeTailClipID="-1" endPoint="6295439" fileID="16" hue="-1" id="1" lockedInTime="false" looped="false" name="トラック 5_017" offline="false" select="false" sourceInPoint="664224" sourceOutPoint="1091963" startPoint="5867700" zOrder="46">
          <component componentGuid="0c4a6c2c-5658-4b10-b6be-1c57dba305c9" componentID="Audition.Fader" id="clipGain" name="volume" powered="true">
            <parameter index="0" name="volume" parameterValue="1"/>
            <parameter index="1" name="static gain" parameterValue="1"/>
          </component>
          <component componentGuid="c36f77bf-5922-4296-85c6-36633ab73fb3" componentID="Audition.Mute" id="clipMute" name="Mute" powered="true">
            <parameter index="0" parameterValue="0"/>
            <parameter index="1" name="mute" parameterValue="0"/>
          </component>
          <component componentGuid="7ab21aca-b4c7-4216-9004-0f80da462c56" componentID="Audition.StereoPanner" id="clipPan" name="StereoPanner" powered="true">
            <parameter index="0" name="パン" parameterValue="0"/>
          </component>
          <fadeIn crossFadeLinkType="linkedAsymmetric" endPoint="0" shape="0" startPoint="0" type="cosine"/>
          <fadeOut crossFadeLinkType="linkedAsymmetric" endPoint="427739" shape="0" startPoint="427739" type="cosine"/>
          <editParameter parameterIndex="0" slotIndex="4294967280"/>
          <editParameter parameterIndex="0" slotIndex="4294967281"/>
          <channelMap>
            <channel index="0" sourceIndex="0"/>
          </channelMap>
        </audioClip>
      </audioTrack>
      <audioTrack automationLaneOpenState="false" id="10019" index="17" select="false" visible="true">
        <trackParameters trackHeight="98" trackHue="132" trackMinimized="false">
          <name>トラック 14</name>
        </trackParameters>
        <trackAudioParameters audioChannelType="stereo" automationMode="1" monitoring="false" recordArmed="false" solo="false" soloSafe="false">
          <trackOutput outputID="10000" type="trackID"/>
          <trackInput inputID="1"/>
          <component componentGuid="5509433c-ffea-438c-849f-3920b737ba2e" componentID="Audition.Fader" id="trackFader" name="volume" powered="true">
            <parameter index="0" name="volume" parameterValue="0.01949840225279331207275390625"/>
            <parameter index="1" name="static gain" parameterValue="1"/>
          </component>
          <component componentGuid="c11896a2-f175-4c1c-83d3-49fe3b98f455" componentID="Audition.Mute" id="trackMute" name="Mute" powered="true">
            <parameter index="0" parameterValue="0"/>
            <parameter index="1" name="mute" parameterValue="1"/>
          </component>
          <component componentGuid="525aaefd-e09a-4a5e-9b03-0b3640bfb947" componentID="Audition.StereoPanner" id="trackPan" name="StereoPanner" powered="true">
            <parameter index="0" name="パン" parameterValue="0"/>
          </component>
          <component componentGuid="2fdc9680-b506-49b9-a4cc-76f38f08cd33" componentID="Audition.EQ" id="trackEQ" name="EQ" powered="false">
            <parameter index="0" name="ローシェルビング周波数" parameterValue="0.0008340000058524310588836669921875"/>
            <parameter index="1" name="ローシェルビングゲイン" parameterValue="0.5"/>
            <parameter index="2" name="ハイシェルビング周波数" parameterValue="0.74979150295257568359375"/>
            <parameter index="3" name="ハイシェルビングゲイン" parameterValue="0.5"/>
            <parameter index="4" name="EQ バンド 1 センター周波数" parameterValue="0.001250999979674816131591796875"/>
            <parameter index="5" name="EQ バンド 1 Q" parameterValue="0.000199999994947575032711029052734375"/>
            <parameter index="6" name="EQ バンド 1 ゲイン" parameterValue="0.5"/>
            <parameter index="7" name="EQ バンド 1 有効" parameterValue="1"/>
            <parameter index="8" name="EQ バンド 2 センター周波数" parameterValue="0.0075063002295792102813720703125"/>
            <parameter index="9" name="EQ バンド 2 Q" parameterValue="0.000199999994947575032711029052734375"/>
            <parameter index="10" name="EQ バンド 2 ゲイン" parameterValue="0.5"/>
            <parameter index="11" name="EQ バンド 2 有効" parameterValue="1"/>
            <parameter index="12" name="EQ バンド 3 センター周波数" parameterValue="0.0325271002948284149169921875"/>
            <parameter index="13" name="EQ バンド 3 Q" parameterValue="0.000199999994947575032711029052734375"/>
            <parameter index="14" name="EQ バンド 3 ゲイン" parameterValue="0.5"/>
            <parameter index="15" name="EQ バンド 3 有効" parameterValue="1"/>
            <parameter index="16" name="EQ バンド 4 センター周波数" parameterValue="0.132610499858856201171875"/>
            <parameter index="17" name="EQ バンド 4 Q" parameterValue="0.000199999994947575032711029052734375"/>
            <parameter index="18" name="EQ バンド 4 ゲイン" parameterValue="0.5"/>
            <parameter index="19" name="EQ バンド 4 有効" parameterValue="1"/>
            <parameter index="20" name="EQ バンド 5 センター周波数" parameterValue="0.53294408321380615234375"/>
            <parameter index="21" name="EQ バンド 5 Q" parameterValue="0.000199999994947575032711029052734375"/>
            <parameter index="22" name="EQ バンド 5 ゲイン" parameterValue="0.5"/>
            <parameter index="23" name="EQ バンド 5 有効" parameterValue="1"/>
            <parameter index="24" name="マスターゲイン" parameterValue="0.666666686534881591796875"/>
            <parameter index="25" name="ConstantQ" parameterValue="1"/>
            <parameter index="26" name="ローシェルビングフィルター次数" parameterValue="0"/>
            <parameter index="27" name="ハイシェルビングフィルター次数" parameterValue="0"/>
            <parameter index="28" name="ノイズレスモード" parameterValue="0"/>
            <parameter index="29" name="ローシェルビング有効" parameterValue="1"/>
            <parameter index="30" name="ハイシェルビング有効" parameterValue="1"/>
            <parameter index="31" name="オリジナルサンプルレート" parameterValue="0.25"/>
            <parameter index="32" name="EQ バンド 1 バンド幅" parameterValue="0.0024999999441206455230712890625"/>
            <parameter index="33" name="EQ バンド 2 バンド幅" parameterValue="0.00999999977648258209228515625"/>
            <parameter index="34" name="EQ バンド 3 バンド幅" parameterValue="0.039999999105930328369140625"/>
            <parameter index="35" name="EQ バンド 4 バンド幅" parameterValue="0.1599999964237213134765625"/>
            <parameter index="36" name="EQ バンド 5 バンド幅" parameterValue="0.63999998569488525390625"/>
            <parameter index="37" name="ハイパスフィルター有効" parameterValue="0"/>
            <parameter index="38" name="ハイパスカットオフ周波数" parameterValue="0"/>
            <parameter index="39" name="ハイパススロープ" parameterValue="0.4000000059604644775390625"/>
            <parameter index="40" name="ローパスフィルター有効" parameterValue="0"/>
            <parameter index="41" name="ローパスカットオフ周波数" parameterValue="0.833194315433502197265625"/>
            <parameter index="42" name="ローパススロープ" parameterValue="0.4000000059604644775390625"/>
            <parameter index="43" name="バイパス" parameterValue="0"/>
            <parameter index="44" name="LowGraphRange" parameterValue="1"/>
          </component>
        </trackAudioParameters>
        <editParameter parameterIndex="0" slotIndex="4294967280"/>
        <audioClip clipAutoCrossfade="true" crossFadeHeadClipID="-1" crossFadeTailClipID="-1" endPoint="6593200" fileID="22" hue="-1" id="0" lockedInTime="false" looped="false" name="枯れ葉のように" offline="false" select="false" sourceInPoint="1733634" sourceOutPoint="4110336" startPoint="4216498" zOrder="45">
          <component componentGuid="62693705-9ac1-4222-820d-b2c9af9a577d" componentID="Audition.Fader" id="clipGain" name="volume" powered="true">
            <parameter index="0" name="volume" parameterValue="1"/>
            <parameter index="1" name="static gain" parameterValue="1"/>
          </component>
          <component componentGuid="aa14e600-f5fd-4d3e-b880-7f1863a0fb57" componentID="Audition.Mute" id="clipMute" name="Mute" powered="true">
            <parameter index="0" parameterValue="0"/>
            <parameter index="1" name="mute" parameterValue="0"/>
          </component>
          <component componentGuid="2960b9a3-8882-4ffb-be76-90f4e4797fcd" componentID="Audition.StereoPanner" id="clipPan" name="StereoPanner" powered="true">
            <parameter index="0" name="パン" parameterValue="0"/>
          </component>
          <fadeIn crossFadeLinkType="linkedAsymmetric" endPoint="878174" shape="23" startPoint="0" type="log"/>
          <fadeOut crossFadeLinkType="linkedAsymmetric" endPoint="2376702" shape="35" startPoint="1566779" type="log"/>
          <editParameter parameterIndex="0" slotIndex="4294967280"/>
          <editParameter parameterIndex="0" slotIndex="4294967281"/>
          <channelMap>
            <channel index="0" sourceIndex="0"/>
            <channel index="1" sourceIndex="1"/>
          </channelMap>
        </audioClip>
        <audioClip clipAutoCrossfade="true" crossFadeHeadClipID="-1" crossFadeTailClipID="-1" endPoint="14410269" fileID="22" hue="-1" id="1" lockedInTime="false" looped="false" name="枯れ葉のように" offline="false" select="false" sourceInPoint="0" sourceOutPoint="1733634" startPoint="12676635" zOrder="46">
          <component componentGuid="735b4f8a-0bbd-4bb5-bfe0-a1c957b17c63" componentID="Audition.Fader" id="clipGain" name="volume" powered="true">
            <parameter index="0" name="volume" parameterValue="1"/>
            <parameter index="1" name="static gain" parameterValue="1"/>
          </component>
          <component componentGuid="42bd795e-b6dc-4e8a-a897-3f9c0e3fa234" componentID="Audition.Mute" id="clipMute" name="Mute" powered="true">
            <parameter index="0" parameterValue="0"/>
            <parameter index="1" name="mute" parameterValue="0"/>
          </component>
          <component componentGuid="e355a06d-f723-45a6-82f6-6871971c5bcf" componentID="Audition.StereoPanner" id="clipPan" name="StereoPanner" powered="true">
            <parameter index="0" name="パン" parameterValue="0"/>
          </component>
          <fadeIn crossFadeLinkType="linkedAsymmetric" endPoint="961784" shape="19" startPoint="0" type="log"/>
          <fadeOut crossFadeLinkType="linkedAsymmetric" endPoint="1733634" shape="35" startPoint="1733634" type="log"/>
          <editParameter parameterIndex="0" slotIndex="4294967280"/>
          <editParameter parameterIndex="0" slotIndex="4294967281"/>
          <channelMap>
            <channel index="0" sourceIndex="0"/>
            <channel index="1" sourceIndex="1"/>
          </channelMap>
        </audioClip>
      </audioTrack>
      <audioTrack automationLaneOpenState="false" id="10011" index="18" select="false" visible="true">
        <trackParameters trackHeight="98" trackHue="32" trackMinimized="false">
          <name>トラック 11</name>
        </trackParameters>
        <trackAudioParameters audioChannelType="stereo" automationMode="1" monitoring="false" recordArmed="false" solo="false" soloSafe="false">
          <trackOutput outputID="10000" type="trackID"/>
          <trackInput inputID="1"/>
          <component componentGuid="14ecebf1-b15f-4f70-8575-9a5e36cbeb07" componentID="Audition.Fader" id="trackFader" name="volume" powered="true">
            <parameter index="0" name="volume" parameterValue="1.07151925563812255859375"/>
            <parameter index="1" name="static gain" parameterValue="1"/>
          </component>
          <component componentGuid="370eda8a-9282-4f3d-ae89-2268019c7f3d" componentID="Audition.Mute" id="trackMute" name="Mute" powered="true">
            <parameter index="0" parameterValue="0"/>
            <parameter index="1" name="mute" parameterValue="0"/>
          </component>
          <component componentGuid="a3a09737-04fc-488d-9594-e0f9d701b31c" componentID="Audition.StereoPanner" id="trackPan" name="StereoPanner" powered="true">
            <parameter index="0" name="パン" parameterValue="0"/>
          </component>
          <component componentGuid="518370b5-164c-43b6-832f-3122ac8d8796" componentID="Audition.EQ" id="trackEQ" name="EQ" powered="false">
            <parameter index="0" name="ローシェルビング周波数" parameterValue="0.0008340000058524310588836669921875"/>
            <parameter index="1" name="ローシェルビングゲイン" parameterValue="0.5"/>
            <parameter index="2" name="ハイシェルビング周波数" parameterValue="0.74979150295257568359375"/>
            <parameter index="3" name="ハイシェルビングゲイン" parameterValue="0.5"/>
            <parameter index="4" name="EQ バンド 1 センター周波数" parameterValue="0.001250999979674816131591796875"/>
            <parameter index="5" name="EQ バンド 1 Q" parameterValue="0.000199999994947575032711029052734375"/>
            <parameter index="6" name="EQ バンド 1 ゲイン" parameterValue="0.5"/>
            <parameter index="7" name="EQ バンド 1 有効" parameterValue="1"/>
            <parameter index="8" name="EQ バンド 2 センター周波数" parameterValue="0.0075063002295792102813720703125"/>
            <parameter index="9" name="EQ バンド 2 Q" parameterValue="0.000199999994947575032711029052734375"/>
            <parameter index="10" name="EQ バンド 2 ゲイン" parameterValue="0.5"/>
            <parameter index="11" name="EQ バンド 2 有効" parameterValue="1"/>
            <parameter index="12" name="EQ バンド 3 センター周波数" parameterValue="0.0325271002948284149169921875"/>
            <parameter index="13" name="EQ バンド 3 Q" parameterValue="0.000199999994947575032711029052734375"/>
            <parameter index="14" name="EQ バンド 3 ゲイン" parameterValue="0.5"/>
            <parameter index="15" name="EQ バンド 3 有効" parameterValue="1"/>
            <parameter index="16" name="EQ バンド 4 センター周波数" parameterValue="0.132610499858856201171875"/>
            <parameter index="17" name="EQ バンド 4 Q" parameterValue="0.000199999994947575032711029052734375"/>
            <parameter index="18" name="EQ バンド 4 ゲイン" parameterValue="0.5"/>
            <parameter index="19" name="EQ バンド 4 有効" parameterValue="1"/>
            <parameter index="20" name="EQ バンド 5 センター周波数" parameterValue="0.53294408321380615234375"/>
            <parameter index="21" name="EQ バンド 5 Q" parameterValue="0.000199999994947575032711029052734375"/>
            <parameter index="22" name="EQ バンド 5 ゲイン" parameterValue="0.5"/>
            <parameter index="23" name="EQ バンド 5 有効" parameterValue="1"/>
            <parameter index="24" name="マスターゲイン" parameterValue="0.666666686534881591796875"/>
            <parameter index="25" name="ConstantQ" parameterValue="1"/>
            <parameter index="26" name="ローシェルビングフィルター次数" parameterValue="0"/>
            <parameter index="27" name="ハイシェルビングフィルター次数" parameterValue="0"/>
            <parameter index="28" name="ノイズレスモード" parameterValue="0"/>
            <parameter index="29" name="ローシェルビング有効" parameterValue="1"/>
            <parameter index="30" name="ハイシェルビング有効" parameterValue="1"/>
            <parameter index="31" name="オリジナルサンプルレート" parameterValue="0.25"/>
            <parameter index="32" name="EQ バンド 1 バンド幅" parameterValue="0.0024999999441206455230712890625"/>
            <parameter index="33" name="EQ バンド 2 バンド幅" parameterValue="0.00999999977648258209228515625"/>
            <parameter index="34" name="EQ バンド 3 バンド幅" parameterValue="0.039999999105930328369140625"/>
            <parameter index="35" name="EQ バンド 4 バンド幅" parameterValue="0.1599999964237213134765625"/>
            <parameter index="36" name="EQ バンド 5 バンド幅" parameterValue="0.63999998569488525390625"/>
            <parameter index="37" name="ハイパスフィルター有効" parameterValue="0"/>
            <parameter index="38" name="ハイパスカットオフ周波数" parameterValue="0"/>
            <parameter index="39" name="ハイパススロープ" parameterValue="0.4000000059604644775390625"/>
            <parameter index="40" name="ローパスフィルター有効" parameterValue="0"/>
            <parameter index="41" name="ローパスカットオフ周波数" parameterValue="0.833194315433502197265625"/>
            <parameter index="42" name="ローパススロープ" parameterValue="0.4000000059604644775390625"/>
            <parameter index="43" name="バイパス" parameterValue="0"/>
            <parameter index="44" name="LowGraphRange" parameterValue="1"/>
          </component>
        </trackAudioParameters>
        <editParameter parameterIndex="0" slotIndex="4294967280"/>
        <audioClip clipAutoCrossfade="true" crossFadeHeadClipID="-1" crossFadeTailClipID="-1" endPoint="10281887" fileID="23" hue="-1" id="0" lockedInTime="false" looped="false" name="quiet-room-1 48000 1" offline="false" select="false" sourceInPoint="0" sourceOutPoint="9473044" startPoint="808843" zOrder="45">
          <component componentGuid="8036c4ad-7fe8-4368-aaae-63bf678fef16" componentID="Audition.Fader" id="clipGain" name="volume" powered="true">
            <parameter index="0" name="volume" parameterValue="0.2750211060047149658203125">
              <parameterKeyframes enableSplines="false" readOnly="false">
                <parameterKeyframe sampleOffset="50868" select="false" type="linear" value="0.5609195232391357421875"/>
                <parameterKeyframe sampleOffset="105817" select="false" type="linear" value="0.64999997615814208984375"/>
                <parameterKeyframe sampleOffset="185190" select="false" type="linear" value="0.565760910511016845703125"/>
                <parameterKeyframe sampleOffset="240140" select="false" type="linear" value="0.364673912525177001953125"/>
                <parameterKeyframe sampleOffset="1005517" select="false" type="linear" value="0.364673912525177001953125"/>
                <parameterKeyframe sampleOffset="1067251" select="false" type="linear" value="0.14408560097217559814453125"/>
                <parameterKeyframe sampleOffset="3142001" select="false" type="linear" value="0.14408560097217559814453125"/>
                <parameterKeyframe sampleOffset="3241475" select="false" type="linear" value="0.3499679863452911376953125"/>
                <parameterKeyframe sampleOffset="4020313" select="false" type="linear" value="0.3499679863452911376953125"/>
                <parameterKeyframe sampleOffset="4063082" select="true" type="linear" value="0.12774570286273956298828125"/>
              </parameterKeyframes>
            </parameter>
            <parameter index="1" name="static gain" parameterValue="1"/>
          </component>
          <component componentGuid="884e760e-4135-4d3c-ad7c-d9c2e9a7be74" componentID="Audition.Mute" id="clipMute" name="Mute" powered="true">
            <parameter index="0" parameterValue="0"/>
            <parameter index="1" name="mute" parameterValue="0"/>
          </component>
          <component componentGuid="9be16313-ea50-4bc0-a560-7dc961b2b397" componentID="Audition.StereoPanner" id="clipPan" name="StereoPanner" powered="true">
            <parameter index="0" name="パン" parameterValue="0"/>
          </component>
          <fadeIn crossFadeLinkType="linkedAsymmetric" endPoint="79372" shape="19" startPoint="0" type="log"/>
          <fadeOut crossFadeLinkType="linkedAsymmetric" endPoint="9473044" shape="0" startPoint="9473044" type="cosine"/>
          <editParameter parameterIndex="0" slotIndex="4294967281"/>
          <editParameter parameterIndex="0" slotIndex="4294967280"/>
          <channelMap>
            <channel index="0" sourceIndex="0"/>
            <channel index="1" sourceIndex="1"/>
          </channelMap>
        </audioClip>
      </audioTrack>
      <audioTrack automationLaneOpenState="false" id="10012" index="19" select="false" visible="true">
        <trackParameters trackHeight="98" trackHue="160" trackMinimized="false">
          <name>トラック 12</name>
        </trackParameters>
        <trackAudioParameters audioChannelType="stereo" automationMode="1" monitoring="false" recordArmed="false" solo="false" soloSafe="false">
          <trackOutput outputID="10000" type="trackID"/>
          <trackInput inputID="1"/>
          <component componentGuid="3997b919-25bc-4cf4-8cc3-d07ddbbbde0e" componentID="Audition.Fader" id="trackFader" name="volume" powered="true">
            <parameter index="0" name="volume" parameterValue="0.555904209613800048828125"/>
            <parameter index="1" name="static gain" parameterValue="1"/>
          </component>
          <component componentGuid="6ea4d702-9ca0-4857-86c5-d02783a574c2" componentID="Audition.Mute" id="trackMute" name="Mute" powered="true">
            <parameter index="0" parameterValue="0"/>
            <parameter index="1" name="mute" parameterValue="0"/>
          </component>
          <component componentGuid="87f9ceb1-5aae-45f0-b7e3-690615aadea4" componentID="Audition.StereoPanner" id="trackPan" name="StereoPanner" powered="true">
            <parameter index="0" name="パン" parameterValue="0"/>
          </component>
          <component componentGuid="50d6cb0e-b705-4489-bb94-fcfa3b2678b0" componentID="Audition.EQ" id="trackEQ" name="EQ" powered="false">
            <parameter index="0" name="ローシェルビング周波数" parameterValue="0.0008340000058524310588836669921875"/>
            <parameter index="1" name="ローシェルビングゲイン" parameterValue="0.5"/>
            <parameter index="2" name="ハイシェルビング周波数" parameterValue="0.74979150295257568359375"/>
            <parameter index="3" name="ハイシェルビングゲイン" parameterValue="0.5"/>
            <parameter index="4" name="EQ バンド 1 センター周波数" parameterValue="0.001250999979674816131591796875"/>
            <parameter index="5" name="EQ バンド 1 Q" parameterValue="0.000199999994947575032711029052734375"/>
            <parameter index="6" name="EQ バンド 1 ゲイン" parameterValue="0.5"/>
            <parameter index="7" name="EQ バンド 1 有効" parameterValue="1"/>
            <parameter index="8" name="EQ バンド 2 センター周波数" parameterValue="0.0075063002295792102813720703125"/>
            <parameter index="9" name="EQ バンド 2 Q" parameterValue="0.000199999994947575032711029052734375"/>
            <parameter index="10" name="EQ バンド 2 ゲイン" parameterValue="0.5"/>
            <parameter index="11" name="EQ バンド 2 有効" parameterValue="1"/>
            <parameter index="12" name="EQ バンド 3 センター周波数" parameterValue="0.0325271002948284149169921875"/>
            <parameter index="13" name="EQ バンド 3 Q" parameterValue="0.000199999994947575032711029052734375"/>
            <parameter index="14" name="EQ バンド 3 ゲイン" parameterValue="0.5"/>
            <parameter index="15" name="EQ バンド 3 有効" parameterValue="1"/>
            <parameter index="16" name="EQ バンド 4 センター周波数" parameterValue="0.132610499858856201171875"/>
            <parameter index="17" name="EQ バンド 4 Q" parameterValue="0.000199999994947575032711029052734375"/>
            <parameter index="18" name="EQ バンド 4 ゲイン" parameterValue="0.5"/>
            <parameter index="19" name="EQ バンド 4 有効" parameterValue="1"/>
            <parameter index="20" name="EQ バンド 5 センター周波数" parameterValue="0.53294408321380615234375"/>
            <parameter index="21" name="EQ バンド 5 Q" parameterValue="0.000199999994947575032711029052734375"/>
            <parameter index="22" name="EQ バンド 5 ゲイン" parameterValue="0.5"/>
            <parameter index="23" name="EQ バンド 5 有効" parameterValue="1"/>
            <parameter index="24" name="マスターゲイン" parameterValue="0.666666686534881591796875"/>
            <parameter index="25" name="ConstantQ" parameterValue="1"/>
            <parameter index="26" name="ローシェルビングフィルター次数" parameterValue="0"/>
            <parameter index="27" name="ハイシェルビングフィルター次数" parameterValue="0"/>
            <parameter index="28" name="ノイズレスモード" parameterValue="0"/>
            <parameter index="29" name="ローシェルビング有効" parameterValue="1"/>
            <parameter index="30" name="ハイシェルビング有効" parameterValue="1"/>
            <parameter index="31" name="オリジナルサンプルレート" parameterValue="0.25"/>
            <parameter index="32" name="EQ バンド 1 バンド幅" parameterValue="0.0024999999441206455230712890625"/>
            <parameter index="33" name="EQ バンド 2 バンド幅" parameterValue="0.00999999977648258209228515625"/>
            <parameter index="34" name="EQ バンド 3 バンド幅" parameterValue="0.039999999105930328369140625"/>
            <parameter index="35" name="EQ バンド 4 バンド幅" parameterValue="0.1599999964237213134765625"/>
            <parameter index="36" name="EQ バンド 5 バンド幅" parameterValue="0.63999998569488525390625"/>
            <parameter index="37" name="ハイパスフィルター有効" parameterValue="0"/>
            <parameter index="38" name="ハイパスカットオフ周波数" parameterValue="0"/>
            <parameter index="39" name="ハイパススロープ" parameterValue="0.4000000059604644775390625"/>
            <parameter index="40" name="ローパスフィルター有効" parameterValue="0"/>
            <parameter index="41" name="ローパスカットオフ周波数" parameterValue="0.833194315433502197265625"/>
            <parameter index="42" name="ローパススロープ" parameterValue="0.4000000059604644775390625"/>
            <parameter index="43" name="バイパス" parameterValue="0"/>
            <parameter index="44" name="LowGraphRange" parameterValue="1"/>
          </component>
        </trackAudioParameters>
        <editParameter parameterIndex="0" slotIndex="4294967280"/>
        <audioClip clipAutoCrossfade="true" crossFadeHeadClipID="-1" crossFadeTailClipID="-1" endPoint="1887140" fileID="24" hue="-1" id="0" lockedInTime="false" looped="false" name="VSQSE_0299_PC_machine_noise 48000 1" offline="false" select="false" sourceInPoint="0" sourceOutPoint="291974" startPoint="1595166" zOrder="45">
          <component componentGuid="6d7ae351-c6b6-408d-b19d-cf0e8ab89733" componentID="Audition.Fader" id="clipGain" name="volume" powered="true">
            <parameter index="0" name="volume" parameterValue="1"/>
            <parameter index="1" name="static gain" parameterValue="1"/>
          </component>
          <component componentGuid="858c65f6-ceb7-4dda-93f1-26edbb6ddae2" componentID="Audition.Mute" id="clipMute" name="Mute" powered="true">
            <parameter index="0" parameterValue="0"/>
            <parameter index="1" name="mute" parameterValue="0"/>
          </component>
          <component componentGuid="cb15fa6a-3ad7-42c9-8784-067eb50f42e5" componentID="Audition.StereoPanner" id="clipPan" name="StereoPanner" powered="true">
            <parameter index="0" name="パン" parameterValue="0">
              <parameterKeyframes enableSplines="false" readOnly="false">
                <parameterKeyframe sampleOffset="480494" select="false" type="linear" value="0.5"/>
              </parameterKeyframes>
            </parameter>
          </component>
          <fadeIn crossFadeLinkType="linkedAsymmetric" endPoint="79372" shape="6" startPoint="0" type="log"/>
          <fadeOut crossFadeLinkType="linkedAsymmetric" endPoint="291974" shape="14" startPoint="79373" type="log"/>
          <editParameter parameterIndex="0" slotIndex="4294967281"/>
          <editParameter parameterIndex="0" slotIndex="4294967280"/>
          <channelMap>
            <channel index="0" sourceIndex="0"/>
            <channel index="1" sourceIndex="1"/>
          </channelMap>
        </audioClip>
      </audioTrack>
      <audioTrack automationLaneOpenState="false" id="10041" index="20" select="true" visible="true">
        <trackParameters trackHeight="98" trackHue="326" trackMinimized="false">
          <name>トラック 17</name>
        </trackParameters>
        <trackAudioParameters audioChannelType="stereo" automationMode="1" monitoring="false" recordArmed="false" solo="false" soloSafe="false">
          <trackOutput outputID="10000" type="trackID"/>
          <trackInput inputID="1"/>
          <component componentGuid="5911dec6-a7f4-44cf-a7f4-a1ac3c7cc0bd" componentID="Audition.Fader" id="trackFader" name="volume" powered="true">
            <parameter index="0" name="volume" parameterValue="0.065313063561916351318359375"/>
            <parameter index="1" name="static gain" parameterValue="1"/>
          </component>
          <component componentGuid="20fc33ce-3082-47bf-87db-f840f4a0e0f0" componentID="Audition.Mute" id="trackMute" name="Mute" powered="true">
            <parameter index="0" parameterValue="0"/>
            <parameter index="1" name="mute" parameterValue="0"/>
          </component>
          <component componentGuid="7c06e772-b808-4c95-a5fb-7f30b7a91b67" componentID="Audition.StereoPanner" id="trackPan" name="StereoPanner" powered="true">
            <parameter index="0" name="パン" parameterValue="0"/>
          </component>
          <component componentGuid="078e1d79-ecea-45e2-a59a-8c7f07af056b" componentID="Audition.EQ" id="trackEQ" name="EQ" powered="false">
            <parameter index="0" name="ローシェルビング周波数" parameterValue="0.000834028352983295917510986328125"/>
            <parameter index="1" name="ローシェルビングゲイン" parameterValue="0.5"/>
            <parameter index="2" name="ハイシェルビング周波数" parameterValue="0.74979150295257568359375"/>
            <parameter index="3" name="ハイシェルビングゲイン" parameterValue="0.5"/>
            <parameter index="4" name="EQ バンド 1 センター周波数" parameterValue="0.00125104258768260478973388671875"/>
            <parameter index="5" name="EQ バンド 1 Q" parameterValue="0.000199989997781813144683837890625"/>
            <parameter index="6" name="EQ バンド 1 ゲイン" parameterValue="0.5"/>
            <parameter index="7" name="EQ バンド 1 有効" parameterValue="1"/>
            <parameter index="8" name="EQ バンド 2 センター周波数" parameterValue="0.0075062550604343414306640625"/>
            <parameter index="9" name="EQ バンド 2 Q" parameterValue="0.000199989997781813144683837890625"/>
            <parameter index="10" name="EQ バンド 2 ゲイン" parameterValue="0.5"/>
            <parameter index="11" name="EQ バンド 2 有効" parameterValue="1"/>
            <parameter index="12" name="EQ バンド 3 センター周波数" parameterValue="0.0325271077454090118408203125"/>
            <parameter index="13" name="EQ バンド 3 Q" parameterValue="0.000199989997781813144683837890625"/>
            <parameter index="14" name="EQ バンド 3 ゲイン" parameterValue="0.5"/>
            <parameter index="15" name="EQ バンド 3 有効" parameterValue="1"/>
            <parameter index="16" name="EQ バンド 4 センター周波数" parameterValue="0.13261051476001739501953125"/>
            <parameter index="17" name="EQ バンド 4 Q" parameterValue="0.000199989997781813144683837890625"/>
            <parameter index="18" name="EQ バンド 4 ゲイン" parameterValue="0.5"/>
            <parameter index="19" name="EQ バンド 4 有効" parameterValue="1"/>
            <parameter index="20" name="EQ バンド 5 センター周波数" parameterValue="0.532944142818450927734375"/>
            <parameter index="21" name="EQ バンド 5 Q" parameterValue="0.000199989997781813144683837890625"/>
            <parameter index="22" name="EQ バンド 5 ゲイン" parameterValue="0.5"/>
            <parameter index="23" name="EQ バンド 5 有効" parameterValue="1"/>
            <parameter index="24" name="マスターゲイン" parameterValue="0.666666686534881591796875"/>
            <parameter index="25" name="ConstantQ" parameterValue="1"/>
            <parameter index="26" name="ローシェルビングフィルター次数" parameterValue="0"/>
            <parameter index="27" name="ハイシェルビングフィルター次数" parameterValue="0"/>
            <parameter index="28" name="ノイズレスモード" parameterValue="0"/>
            <parameter index="29" name="ローシェルビング有効" parameterValue="1"/>
            <parameter index="30" name="ハイシェルビング有効" parameterValue="1"/>
            <parameter index="31" name="オリジナルサンプルレート" parameterValue="0.25"/>
            <parameter index="32" name="EQ バンド 1 バンド幅" parameterValue="0.002499990165233612060546875"/>
            <parameter index="33" name="EQ バンド 2 バンド幅" parameterValue="0.0099999904632568359375"/>
            <parameter index="34" name="EQ バンド 3 バンド幅" parameterValue="0.0399999916553497314453125"/>
            <parameter index="35" name="EQ バンド 4 バンド幅" parameterValue="0.15999998152256011962890625"/>
            <parameter index="36" name="EQ バンド 5 バンド幅" parameterValue="0.63999998569488525390625"/>
            <parameter index="37" name="ハイパスフィルター有効" parameterValue="0"/>
            <parameter index="38" name="ハイパスカットオフ周波数" parameterValue="0"/>
            <parameter index="39" name="ハイパススロープ" parameterValue="0.4000000059604644775390625"/>
            <parameter index="40" name="ローパスフィルター有効" parameterValue="0"/>
            <parameter index="41" name="ローパスカットオフ周波数" parameterValue="0.833194315433502197265625"/>
            <parameter index="42" name="ローパススロープ" parameterValue="0.4000000059604644775390625"/>
            <parameter index="43" name="バイパス" parameterValue="0"/>
            <parameter index="44" name="LowGraphRange" parameterValue="1"/>
          </component>
        </trackAudioParameters>
        <editParameter parameterIndex="0" slotIndex="4294967280"/>
        <audioClip clipAutoCrossfade="true" crossFadeHeadClipID="-1" crossFadeTailClipID="-1" endPoint="7860751" fileID="25" hue="-1" id="0" lockedInTime="false" looped="false" name="VSQ_MUSIC_003 48000 3" offline="false" select="true" sourceInPoint="0" sourceOutPoint="3727777" startPoint="4132974" zOrder="48">
          <component componentGuid="59c9c63c-3277-432d-b8ab-8751f6623c72" componentID="Audition.Fader" id="clipGain" name="volume" powered="true">
            <parameter index="0" name="volume" parameterValue="1"/>
            <parameter index="1" name="static gain" parameterValue="1"/>
          </component>
          <component componentGuid="5408a4ad-f977-4d63-9681-36b52a81a611" componentID="Audition.Mute" id="clipMute" name="Mute" powered="true">
            <parameter index="0" parameterValue="0"/>
            <parameter index="1" name="mute" parameterValue="0"/>
          </component>
          <component componentGuid="7d4a4077-9906-4e52-a2be-d24d3ac2f4df" componentID="Audition.StereoPanner" id="clipPan" name="StereoPanner" powered="true">
            <parameter index="0" name="パン" parameterValue="0"/>
          </component>
          <fadeIn crossFadeLinkType="linkedAsymmetric" endPoint="2323475" shape="14" startPoint="0" type="log"/>
          <fadeOut crossFadeLinkType="linkedAsymmetric" endPoint="3727777" shape="13" startPoint="2323476" type="log"/>
          <editParameter parameterIndex="0" slotIndex="4294967280"/>
          <editParameter parameterIndex="0" slotIndex="4294967281"/>
          <channelMap>
            <channel index="0" sourceIndex="0"/>
            <channel index="1" sourceIndex="1"/>
          </channelMap>
        </audioClip>
      </audioTrack>
      <busTrack automationLaneOpenState="false" id="10027" index="11" select="false" visible="true">
        <trackParameters trackHeight="98" trackHue="-1" trackMinimized="false">
          <name>speaker</name>
        </trackParameters>
        <trackAudioParameters audioChannelType="stereo" automationMode="1" monitoring="false" recordArmed="false" solo="false" soloSafe="true">
          <trackOutput outputID="10000" type="trackID"/>
          <trackInput inputID="-1"/>
          <component componentGuid="dc92c81c-7ef6-4777-8fb1-8936343bf79b" componentID="Audition.Fader" id="trackFader" name="volume" powered="true">
            <parameter index="0" name="volume" parameterValue="0.59566211700439453125"/>
            <parameter index="1" name="static gain" parameterValue="1"/>
          </component>
          <component componentGuid="c5251f91-f255-47b8-b522-c67eeaea488a" componentID="Audition.Mute" id="trackMute" name="Mute" powered="true">
            <parameter index="0" parameterValue="0"/>
            <parameter index="1" name="mute" parameterValue="0"/>
          </component>
          <component componentGuid="0dfeaa22-a373-4cef-be98-4513af1c63c2" componentID="Audition.StereoPanner" id="trackPan" name="StereoPanner" powered="true">
            <parameter index="0" name="パン" parameterValue="0"/>
          </component>
          <component componentGuid="a985efe2-33e2-47b6-a02e-251c3c347e51" componentID="Audition.EQ" id="trackEQ" name="EQ" powered="false">
            <parameter index="0" name="ローシェルビング周波数" parameterValue="0.0008340000058524310588836669921875"/>
            <parameter index="1" name="ローシェルビングゲイン" parameterValue="0.5"/>
            <parameter index="2" name="ハイシェルビング周波数" parameterValue="0.74979150295257568359375"/>
            <parameter index="3" name="ハイシェルビングゲイン" parameterValue="0.5"/>
            <parameter index="4" name="EQ バンド 1 センター周波数" parameterValue="0.001250999979674816131591796875"/>
            <parameter index="5" name="EQ バンド 1 Q" parameterValue="0.000199999994947575032711029052734375"/>
            <parameter index="6" name="EQ バンド 1 ゲイン" parameterValue="0.5"/>
            <parameter index="7" name="EQ バンド 1 有効" parameterValue="1"/>
            <parameter index="8" name="EQ バンド 2 センター周波数" parameterValue="0.0075063002295792102813720703125"/>
            <parameter index="9" name="EQ バンド 2 Q" parameterValue="0.000199999994947575032711029052734375"/>
            <parameter index="10" name="EQ バンド 2 ゲイン" parameterValue="0.5"/>
            <parameter index="11" name="EQ バンド 2 有効" parameterValue="1"/>
            <parameter index="12" name="EQ バンド 3 センター周波数" parameterValue="0.0325271002948284149169921875"/>
            <parameter index="13" name="EQ バンド 3 Q" parameterValue="0.000199999994947575032711029052734375"/>
            <parameter index="14" name="EQ バンド 3 ゲイン" parameterValue="0.5"/>
            <parameter index="15" name="EQ バンド 3 有効" parameterValue="1"/>
            <parameter index="16" name="EQ バンド 4 センター周波数" parameterValue="0.132610499858856201171875"/>
            <parameter index="17" name="EQ バンド 4 Q" parameterValue="0.000199999994947575032711029052734375"/>
            <parameter index="18" name="EQ バンド 4 ゲイン" parameterValue="0.5"/>
            <parameter index="19" name="EQ バンド 4 有効" parameterValue="1"/>
            <parameter index="20" name="EQ バンド 5 センター周波数" parameterValue="0.53294408321380615234375"/>
            <parameter index="21" name="EQ バンド 5 Q" parameterValue="0.000199999994947575032711029052734375"/>
            <parameter index="22" name="EQ バンド 5 ゲイン" parameterValue="0.5"/>
            <parameter index="23" name="EQ バンド 5 有効" parameterValue="1"/>
            <parameter index="24" name="マスターゲイン" parameterValue="0.666666686534881591796875"/>
            <parameter index="25" name="ConstantQ" parameterValue="1"/>
            <parameter index="26" name="ローシェルビングフィルター次数" parameterValue="0"/>
            <parameter index="27" name="ハイシェルビングフィルター次数" parameterValue="0"/>
            <parameter index="28" name="ノイズレスモード" parameterValue="0"/>
            <parameter index="29" name="ローシェルビング有効" parameterValue="1"/>
            <parameter index="30" name="ハイシェルビング有効" parameterValue="1"/>
            <parameter index="31" name="オリジナルサンプルレート" parameterValue="0.25"/>
            <parameter index="32" name="EQ バンド 1 バンド幅" parameterValue="0.0024999999441206455230712890625"/>
            <parameter index="33" name="EQ バンド 2 バンド幅" parameterValue="0.00999999977648258209228515625"/>
            <parameter index="34" name="EQ バンド 3 バンド幅" parameterValue="0.039999999105930328369140625"/>
            <parameter index="35" name="EQ バンド 4 バンド幅" parameterValue="0.1599999964237213134765625"/>
            <parameter index="36" name="EQ バンド 5 バンド幅" parameterValue="0.63999998569488525390625"/>
            <parameter index="37" name="ハイパスフィルター有効" parameterValue="0"/>
            <parameter index="38" name="ハイパスカットオフ周波数" parameterValue="0"/>
            <parameter index="39" name="ハイパススロープ" parameterValue="0.4000000059604644775390625"/>
            <parameter index="40" name="ローパスフィルター有効" parameterValue="0"/>
            <parameter index="41" name="ローパスカットオフ周波数" parameterValue="0.833194315433502197265625"/>
            <parameter index="42" name="ローパススロープ" parameterValue="0.4000000059604644775390625"/>
            <parameter index="43" name="バイパス" parameterValue="0"/>
            <parameter index="44" name="LowGraphRange" parameterValue="1"/>
          </component>
        </trackAudioParameters>
        <effectsRack preFader="true">
          <component componentGuid="e3ac8cd6-4dca-4219-9606-d139c52dc60d" componentID="Audition.ComponentGroup" id="rackMix" powered="true">
            <parameter index="0" parameterValue="0"/>
            <parameter index="1" parameterValue="0"/>
          </component>
          <component componentGuid="7d217297-1fa0-4774-9e52-e815dd48c0a0" id="rackInput" powered="true">
            <parameter index="0" parameterValue="1"/>
            <parameter index="1" parameterValue="0"/>
          </component>
          <component componentGuid="d5e66088-dd64-4237-9d67-a8bb6c918620" id="rackOutput" powered="true">
            <parameter index="0" parameterValue="1"/>
            <parameter index="1" parameterValue="0"/>
          </component>
          <slot powered="true" slotIndex="0">
            <component componentGuid="28a7d86c-03b6-46c1-8aa7-be31ea3138e7" componentID="c23a8acb-affc-4ff4-9ca6-2b560b340a56" editorHeight="464" editorLeft="556" editorTop="226" editorWidth="704" name="ギタースイート" presetName="(カスタム)">
              <busConfig><![CDATA[{"in":[{"layout":[100,101],"name":"","type":0}],"out":[{"layout":[100,101],"name":"","type":0}]}]]></busConfig>
              <channelMap direction="input">
                <channel index="0" sourceIndex="0"/>
                <channel index="1" sourceIndex="1"/>
              </channelMap>
              <channelMap direction="output">
                <channel index="0" sourceIndex="0"/>
                <channel index="1" sourceIndex="1"/>
              </channelMap>
              <presetChunkData><![CDATA[EyBuYWZldFMNAAAAAQAAAJqZS0IAcApFAAAAAAAASELRxYtCAAEBAAAAAAAAAAAAAgAAAAYAAAA=]]></presetChunkData>
            </component>
          </slot>
        </effectsRack>
        <editParameter parameterIndex="0" slotIndex="4294967280"/>
      </busTrack>
      <masterTrack automationLaneOpenState="false" id="10000" index="21" select="false" visible="true">
        <trackParameters trackHeight="98" trackHue="-1" trackMinimized="false">
          <name>マスター</name>
        </trackParameters>
        <trackAudioParameters audioChannelType="stereo" automationMode="1" monitoring="false" recordArmed="false" solo="false" soloSafe="true">
          <trackOutput outputID="1" type="hardwareOutput"/>
          <trackInput inputID="-1"/>
          <component componentGuid="9a7a2775-06f6-4ac4-a2a1-025319d869bb" componentID="Audition.Fader" id="trackFader" name="volume" powered="true">
            <parameter index="0" name="volume" parameterValue="1"/>
            <parameter index="1" name="static gain" parameterValue="1"/>
          </component>
          <component componentGuid="aeb7e460-f2ec-470d-b509-8f08ca43b480" componentID="Audition.Mute" id="trackMute" name="Mute" powered="true">
            <parameter index="0" parameterValue="0"/>
            <parameter index="1" name="mute" parameterValue="0"/>
          </component>
          <component componentGuid="95791f8e-93aa-455f-83f1-193098aca353" componentID="Audition.StereoPanner" id="trackPan" name="StereoPanner" powered="true">
            <parameter index="0" name="パン" parameterValue="0"/>
          </component>
          <component componentGuid="01882b84-9e66-4111-8d43-0ecd6b8d0fde" componentID="Audition.EQ" id="trackEQ" name="EQ" powered="false">
            <parameter index="0" name="ローシェルビング周波数" parameterValue="0.0008340000058524310588836669921875"/>
            <parameter index="1" name="ローシェルビングゲイン" parameterValue="0.5"/>
            <parameter index="2" name="ハイシェルビング周波数" parameterValue="0.74979150295257568359375"/>
            <parameter index="3" name="ハイシェルビングゲイン" parameterValue="0.5"/>
            <parameter index="4" name="EQ バンド 1 センター周波数" parameterValue="0.001250999979674816131591796875"/>
            <parameter index="5" name="EQ バンド 1 Q" parameterValue="0.000199999994947575032711029052734375"/>
            <parameter index="6" name="EQ バンド 1 ゲイン" parameterValue="0.5"/>
            <parameter index="7" name="EQ バンド 1 有効" parameterValue="1"/>
            <parameter index="8" name="EQ バンド 2 センター周波数" parameterValue="0.0075063002295792102813720703125"/>
            <parameter index="9" name="EQ バンド 2 Q" parameterValue="0.000199999994947575032711029052734375"/>
            <parameter index="10" name="EQ バンド 2 ゲイン" parameterValue="0.5"/>
            <parameter index="11" name="EQ バンド 2 有効" parameterValue="1"/>
            <parameter index="12" name="EQ バンド 3 センター周波数" parameterValue="0.0325271002948284149169921875"/>
            <parameter index="13" name="EQ バンド 3 Q" parameterValue="0.000199999994947575032711029052734375"/>
            <parameter index="14" name="EQ バンド 3 ゲイン" parameterValue="0.5"/>
            <parameter index="15" name="EQ バンド 3 有効" parameterValue="1"/>
            <parameter index="16" name="EQ バンド 4 センター周波数" parameterValue="0.132610499858856201171875"/>
            <parameter index="17" name="EQ バンド 4 Q" parameterValue="0.000199999994947575032711029052734375"/>
            <parameter index="18" name="EQ バンド 4 ゲイン" parameterValue="0.5"/>
            <parameter index="19" name="EQ バンド 4 有効" parameterValue="1"/>
            <parameter index="20" name="EQ バンド 5 センター周波数" parameterValue="0.53294408321380615234375"/>
            <parameter index="21" name="EQ バンド 5 Q" parameterValue="0.000199999994947575032711029052734375"/>
            <parameter index="22" name="EQ バンド 5 ゲイン" parameterValue="0.5"/>
            <parameter index="23" name="EQ バンド 5 有効" parameterValue="1"/>
            <parameter index="24" name="マスターゲイン" parameterValue="0.666666686534881591796875"/>
            <parameter index="25" name="ConstantQ" parameterValue="1"/>
            <parameter index="26" name="ローシェルビングフィルター次数" parameterValue="0"/>
            <parameter index="27" name="ハイシェルビングフィルター次数" parameterValue="0"/>
            <parameter index="28" name="ノイズレスモード" parameterValue="0"/>
            <parameter index="29" name="ローシェルビング有効" parameterValue="1"/>
            <parameter index="30" name="ハイシェルビング有効" parameterValue="1"/>
            <parameter index="31" name="オリジナルサンプルレート" parameterValue="0.25"/>
            <parameter index="32" name="EQ バンド 1 バンド幅" parameterValue="0.0024999999441206455230712890625"/>
            <parameter index="33" name="EQ バンド 2 バンド幅" parameterValue="0.00999999977648258209228515625"/>
            <parameter index="34" name="EQ バンド 3 バンド幅" parameterValue="0.039999999105930328369140625"/>
            <parameter index="35" name="EQ バンド 4 バンド幅" parameterValue="0.1599999964237213134765625"/>
            <parameter index="36" name="EQ バンド 5 バンド幅" parameterValue="0.63999998569488525390625"/>
            <parameter index="37" name="ハイパスフィルター有効" parameterValue="0"/>
            <parameter index="38" name="ハイパスカットオフ周波数" parameterValue="0"/>
            <parameter index="39" name="ハイパススロープ" parameterValue="0.4000000059604644775390625"/>
            <parameter index="40" name="ローパスフィルター有効" parameterValue="0"/>
            <parameter index="41" name="ローパスカットオフ周波数" parameterValue="0.833194315433502197265625"/>
            <parameter index="42" name="ローパススロープ" parameterValue="0.4000000059604644775390625"/>
            <parameter index="43" name="バイパス" parameterValue="0"/>
            <parameter index="44" name="LowGraphRange" parameterValue="1"/>
          </component>
        </trackAudioParameters>
        <editParameter parameterIndex="0" slotIndex="4294967280"/>
      </masterTrack>
    </tracks>
    <sessionState ctiPosition="1330218" smpteStart="0">
      <selectionState selectionDuration="0" selectionStart="1330218"/>
      <viewState horizontalViewDuration="12469223" horizontalViewStart="240698" trackControlsWidth="224" verticalScrollOffset="-660"/>
      <timeFormatState beatsPerBar="4" beatsPerMinute="120" customFrameRate="12" linkToDefaultTimeSettings="true" noteLength="4" subdivisions="16" timeCodeDropFrame="false" timeCodeFrameRate="30" timeCodeNTSC="false" timeFormat="timeFormatTimeCode"/>
      <mixingOptionState defaultPanModeLogarithmic="false" panPower="-3" playOverlappingClips="false"/>
    </sessionState>
    <xmpMetadata><![CDATA[<?xpacket begin="﻿" id="W5M0MpCehiHzreSzNTczkc9d"?>
<x:xmpmeta xmlns:x="adobe:ns:meta/" x:xmptk="Adobe XMP Core 5.6-c148 79.164036, 2019/08/13-01:06:57        ">
   <rdf:RDF xmlns:rdf="http://www.w3.org/1999/02/22-rdf-syntax-ns#">
      <rdf:Description rdf:about=""
            xmlns:xmp="http://ns.adobe.com/xap/1.0/"
            xmlns:xmpMM="http://ns.adobe.com/xap/1.0/mm/"
            xmlns:stEvt="http://ns.adobe.com/xap/1.0/sType/ResourceEvent#"
            xmlns:stRef="http://ns.adobe.com/xap/1.0/sType/ResourceRef#"
            xmlns:dc="http://purl.org/dc/elements/1.1/"
            xmlns:xmpDM="http://ns.adobe.com/xmp/1.0/DynamicMedia/">
         <xmp:CreatorTool>Adobe Audition 13.0 (Windows)</xmp:CreatorTool>
         <xmp:CreateDate>2019-12-30T16:55:37+09:00</xmp:CreateDate>
         <xmp:MetadataDate>2020-01-17T21:55:06+09:00</xmp:MetadataDate>
         <xmp:ModifyDate>2020-01-17T21:55:06+09:00</xmp:ModifyDate>
         <xmpMM:InstanceID>xmp.iid:560371e6-1e26-a141-84f8-5dfdcacb0ed8</xmpMM:InstanceID>
         <xmpMM:DocumentID>xmp.did:dfd58704-e09d-0442-a3da-d626aee827b0</xmpMM:DocumentID>
         <xmpMM:OriginalDocumentID>xmp.did:017cf8cf-d5f1-2742-a4d9-382e4f6def59</xmpMM:OriginalDocumentID>
         <xmpMM:History>
            <rdf:Seq>
               <rdf:li rdf:parseType="Resource">
                  <stEvt:action>saved</stEvt:action>
                  <stEvt:instanceID>xmp.iid:017cf8cf-d5f1-2742-a4d9-382e4f6def59</stEvt:instanceID>
                  <stEvt:when>2019-12-30T16:55:37+09:00</stEvt:when>
                  <stEvt:softwareAgent>Adobe Audition 13.0 (Windows)</stEvt:softwareAgent>
                  <stEvt:changed>/metadata</stEvt:changed>
               </rdf:li>
               <rdf:li rdf:parseType="Resource">
                  <stEvt:action>saved</stEvt:action>
                  <stEvt:instanceID>xmp.iid:9a3089bd-c5c6-1e45-b57e-ccebbb9041c5</stEvt:instanceID>
                  <stEvt:when>2019-12-30T18:10:50+09:00</stEvt:when>
                  <stEvt:softwareAgent>Adobe Audition 13.0 (Windows)</stEvt:softwareAgent>
                  <stEvt:changed>/metadata</stEvt:changed>
               </rdf:li>
               <rdf:li rdf:parseType="Resource">
                  <stEvt:action>saved</stEvt:action>
                  <stEvt:instanceID>xmp.iid:928e5ae8-8457-0f43-817f-cd215b647109</stEvt:instanceID>
                  <stEvt:when>2019-12-30T18:10:50+09:00</stEvt:when>
                  <stEvt:softwareAgent>Adobe Audition 13.0 (Windows)</stEvt:softwareAgent>
                  <stEvt:changed>/</stEvt:changed>
               </rdf:li>
               <rdf:li rdf:parseType="Resource">
                  <stEvt:action>saved</stEvt:action>
                  <stEvt:instanceID>xmp.iid:f58a1b6c-2805-f241-9a02-ba9e4b03316b</stEvt:instanceID>
                  <stEvt:when>2019-12-30T18:11:18+09:00</stEvt:when>
                  <stEvt:softwareAgent>Adobe Audition 13.0 (Windows)</stEvt:softwareAgent>
                  <stEvt:changed>/metadata</stEvt:changed>
               </rdf:li>
               <rdf:li rdf:parseType="Resource">
                  <stEvt:action>saved</stEvt:action>
                  <stEvt:instanceID>xmp.iid:ce6182d3-ed48-0d4f-a4fe-65e3450784f0</stEvt:instanceID>
                  <stEvt:when>2019-12-30T18:11:18+09:00</stEvt:when>
                  <stEvt:softwareAgent>Adobe Audition 13.0 (Windows)</stEvt:softwareAgent>
                  <stEvt:changed>/</stEvt:changed>
               </rdf:li>
               <rdf:li rdf:parseType="Resource">
                  <stEvt:action>saved</stEvt:action>
                  <stEvt:instanceID>xmp.iid:e7ef1978-989e-0847-a6db-57dca1ebb6cf</stEvt:instanceID>
                  <stEvt:when>2020-01-05T15:29:38+09:00</stEvt:when>
                  <stEvt:softwareAgent>Adobe Audition 13.0 (Windows)</stEvt:softwareAgent>
                  <stEvt:changed>/metadata</stEvt:changed>
               </rdf:li>
               <rdf:li rdf:parseType="Resource">
                  <stEvt:action>saved</stEvt:action>
                  <stEvt:instanceID>xmp.iid:1414cc77-9af8-9c4a-b5df-a2ef73c49ff8</stEvt:instanceID>
                  <stEvt:when>2020-01-05T15:29:38+09:00</stEvt:when>
                  <stEvt:softwareAgent>Adobe Audition 13.0 (Windows)</stEvt:softwareAgent>
                  <stEvt:changed>/</stEvt:changed>
               </rdf:li>
               <rdf:li rdf:parseType="Resource">
                  <stEvt:action>saved</stEvt:action>
                  <stEvt:instanceID>xmp.iid:2912e67b-f23d-4842-a59e-eb76bbc6c92d</stEvt:instanceID>
                  <stEvt:when>2020-01-14T02:56:24+09:00</stEvt:when>
                  <stEvt:softwareAgent>Adobe Audition 13.0 (Windows)</stEvt:softwareAgent>
                  <stEvt:changed>/metadata</stEvt:changed>
               </rdf:li>
               <rdf:li rdf:parseType="Resource">
                  <stEvt:action>saved</stEvt:action>
                  <stEvt:instanceID>xmp.iid:eea327ec-d3bf-cd47-8dff-f01ccd3a596b</stEvt:instanceID>
                  <stEvt:when>2020-01-14T02:56:24+09:00</stEvt:when>
                  <stEvt:softwareAgent>Adobe Audition 13.0 (Windows)</stEvt:softwareAgent>
                  <stEvt:changed>/</stEvt:changed>
               </rdf:li>
               <rdf:li rdf:parseType="Resource">
                  <stEvt:action>saved</stEvt:action>
                  <stEvt:instanceID>xmp.iid:e4f6b09d-2938-bc44-a446-376ab81c1da6</stEvt:instanceID>
                  <stEvt:when>2020-01-15T03:17:54+09:00</stEvt:when>
                  <stEvt:softwareAgent>Adobe Audition 13.0 (Windows)</stEvt:softwareAgent>
                  <stEvt:changed>/metadata</stEvt:changed>
               </rdf:li>
               <rdf:li rdf:parseType="Resource">
                  <stEvt:action>saved</stEvt:action>
                  <stEvt:instanceID>xmp.iid:5f44f3a7-ba56-7d4d-8c37-a0b684af140d</stEvt:instanceID>
                  <stEvt:when>2020-01-15T03:17:54+09:00</stEvt:when>
                  <stEvt:softwareAgent>Adobe Audition 13.0 (Windows)</stEvt:softwareAgent>
                  <stEvt:changed>/</stEvt:changed>
               </rdf:li>
               <rdf:li rdf:parseType="Resource">
                  <stEvt:action>saved</stEvt:action>
                  <stEvt:instanceID>xmp.iid:b4cbe377-e297-534d-997d-21319811ff2b</stEvt:instanceID>
                  <stEvt:when>2020-01-16T14:01+09:00</stEvt:when>
                  <stEvt:softwareAgent>Adobe Audition CC 2018.1 (Windows)</stEvt:softwareAgent>
                  <stEvt:changed>/metadata</stEvt:changed>
               </rdf:li>
               <rdf:li rdf:parseType="Resource">
                  <stEvt:action>saved</stEvt:action>
                  <stEvt:instanceID>xmp.iid:0fc3c31d-a653-e04e-b661-87746c6581ac</stEvt:instanceID>
                  <stEvt:when>2020-01-16T14:01+09:00</stEvt:when>
                  <stEvt:softwareAgent>Adobe Audition CC 2018.1 (Windows)</stEvt:softwareAgent>
                  <stEvt:changed>/</stEvt:changed>
               </rdf:li>
               <rdf:li rdf:parseType="Resource">
                  <stEvt:action>saved</stEvt:action>
                  <stEvt:instanceID>xmp.iid:5f6c8bb1-8749-9241-9070-967813cb4679</stEvt:instanceID>
                  <stEvt:when>2020-01-16T14:25:28+09:00</stEvt:when>
                  <stEvt:softwareAgent>Adobe Audition CC 2018.1 (Windows)</stEvt:softwareAgent>
                  <stEvt:changed>/metadata</stEvt:changed>
               </rdf:li>
               <rdf:li rdf:parseType="Resource">
                  <stEvt:action>saved</stEvt:action>
                  <stEvt:instanceID>xmp.iid:1ac652cb-9339-b645-a63e-a9ed76d79db3</stEvt:instanceID>
                  <stEvt:when>2020-01-16T14:25:28+09:00</stEvt:when>
                  <stEvt:softwareAgent>Adobe Audition CC 2018.1 (Windows)</stEvt:softwareAgent>
                  <stEvt:changed>/</stEvt:changed>
               </rdf:li>
               <rdf:li rdf:parseType="Resource">
                  <stEvt:action>saved</stEvt:action>
                  <stEvt:instanceID>xmp.iid:e8af8e52-554b-5a4d-872a-64ddfa89aa3d</stEvt:instanceID>
                  <stEvt:when>2020-01-16T14:55:12+09:00</stEvt:when>
                  <stEvt:softwareAgent>Adobe Audition CC 2018.1 (Windows)</stEvt:softwareAgent>
                  <stEvt:changed>/metadata</stEvt:changed>
               </rdf:li>
               <rdf:li rdf:parseType="Resource">
                  <stEvt:action>saved</stEvt:action>
                  <stEvt:instanceID>xmp.iid:b712722d-f3f0-6147-a238-14bc411f868a</stEvt:instanceID>
                  <stEvt:when>2020-01-16T14:55:12+09:00</stEvt:when>
                  <stEvt:softwareAgent>Adobe Audition CC 2018.1 (Windows)</stEvt:softwareAgent>
                  <stEvt:changed>/</stEvt:changed>
               </rdf:li>
               <rdf:li rdf:parseType="Resource">
                  <stEvt:action>saved</stEvt:action>
                  <stEvt:instanceID>xmp.iid:b439b7a4-59a4-bf44-a601-37744d20cb0e</stEvt:instanceID>
                  <stEvt:when>2020-01-16T15:11:40+09:00</stEvt:when>
                  <stEvt:softwareAgent>Adobe Audition CC 2018.1 (Windows)</stEvt:softwareAgent>
                  <stEvt:changed>/metadata</stEvt:changed>
               </rdf:li>
               <rdf:li rdf:parseType="Resource">
                  <stEvt:action>saved</stEvt:action>
                  <stEvt:instanceID>xmp.iid:dfd58704-e09d-0442-a3da-d626aee827b0</stEvt:instanceID>
                  <stEvt:when>2020-01-16T15:11:40+09:00</stEvt:when>
                  <stEvt:softwareAgent>Adobe Audition CC 2018.1 (Windows)</stEvt:softwareAgent>
                  <stEvt:changed>/</stEvt:changed>
               </rdf:li>
               <rdf:li rdf:parseType="Resource">
                  <stEvt:action>saved</stEvt:action>
                  <stEvt:instanceID>xmp.iid:f01f39af-b3ba-6e45-b0a8-0f623bfe24be</stEvt:instanceID>
                  <stEvt:when>2020-01-17T01:11:52+09:00</stEvt:when>
                  <stEvt:softwareAgent>Adobe Audition 13.0 (Windows)</stEvt:softwareAgent>
                  <stEvt:changed>/metadata</stEvt:changed>
               </rdf:li>
               <rdf:li rdf:parseType="Resource">
                  <stEvt:action>saved</stEvt:action>
                  <stEvt:instanceID>xmp.iid:9380a2e4-33df-5541-b3bd-5ef0858fd5d6</stEvt:instanceID>
                  <stEvt:when>2020-01-17T01:11:52+09:00</stEvt:when>
                  <stEvt:softwareAgent>Adobe Audition 13.0 (Windows)</stEvt:softwareAgent>
                  <stEvt:changed>/</stEvt:changed>
               </rdf:li>
               <rdf:li rdf:parseType="Resource">
                  <stEvt:action>saved</stEvt:action>
                  <stEvt:instanceID>xmp.iid:5b007637-a4a6-cc43-a501-3a972f56c687</stEvt:instanceID>
                  <stEvt:when>2020-01-17T21:55:06+09:00</stEvt:when>
                  <stEvt:softwareAgent>Adobe Audition 13.0 (Windows)</stEvt:softwareAgent>
                  <stEvt:changed>/metadata</stEvt:changed>
               </rdf:li>
               <rdf:li rdf:parseType="Resource">
                  <stEvt:action>saved</stEvt:action>
                  <stEvt:instanceID>xmp.iid:560371e6-1e26-a141-84f8-5dfdcacb0ed8</stEvt:instanceID>
                  <stEvt:when>2020-01-17T21:55:06+09:00</stEvt:when>
                  <stEvt:softwareAgent>Adobe Audition 13.0 (Windows)</stEvt:softwareAgent>
                  <stEvt:changed>/</stEvt:changed>
               </rdf:li>
            </rdf:Seq>
         </xmpMM:History>
         <xmpMM:DerivedFrom rdf:parseType="Resource">
            <stRef:instanceID>xmp.iid:b439b7a4-59a4-bf44-a601-37744d20cb0e</stRef:instanceID>
            <stRef:documentID>xmp.did:1ac652cb-9339-b645-a63e-a9ed76d79db3</stRef:documentID>
            <stRef:originalDocumentID>xmp.did:017cf8cf-d5f1-2742-a4d9-382e4f6def59</stRef:originalDocumentID>
         </xmpMM:DerivedFrom>
         <dc:format>application/xml</dc:format>
         <xmpDM:Tracks>
            <rdf:Bag>
               <rdf:li rdf:parseType="Resource">
                  <xmpDM:trackName>CuePoint Markers</xmpDM:trackName>
                  <xmpDM:trackType>Cue</xmpDM:trackType>
                  <xmpDM:frameRate>f48000</xmpDM:frameRate>
               </rdf:li>
               <rdf:li rdf:parseType="Resource">
                  <xmpDM:trackName>CD Track Markers</xmpDM:trackName>
                  <xmpDM:trackType>Track</xmpDM:trackType>
                  <xmpDM:frameRate>f48000</xmpDM:frameRate>
               </rdf:li>
               <rdf:li rdf:parseType="Resource">
                  <xmpDM:trackName>Subclip Markers</xmpDM:trackName>
                  <xmpDM:trackType>InOut</xmpDM:trackType>
                  <xmpDM:frameRate>f48000</xmpDM:frameRate>
               </rdf:li>
            </rdf:Bag>
         </xmpDM:Tracks>
      </rdf:Description>
   </rdf:RDF>
</x:xmpmeta>
                                                                                                    
                                                                                                    
                                                                                                    
                                                                                                    
                                                                                                    
                                                                                                    
                                                                                                    
                                                                                                    
                                                                                                    
                                                                                                    
                                                                                                    
                                                                                                    
                                                                                                    
                                                                                                    
                                                                                                    
                                                                                                    
                                                                                                    
                                                                                                    
                                                                                                    
                                                                                                    
                           
<?xpacket end="w"?>]]></xmpMetadata>
    <clipGroups/>
    <metronome enabled="false" pattern="downBeat subdivision subdivision subdivision " soundSet="sticks">
      <metronomeTrack automationLaneOpenState="false" id="40000" index="0" select="false" visible="false">
        <trackParameters trackHeight="77" trackHue="-1" trackMinimized="false">
          <name>メトロノーム</name>
        </trackParameters>
        <trackAudioParameters audioChannelType="mono" automationMode="1" monitoring="false" recordArmed="false" solo="false" soloSafe="true">
          <trackOutput outputID="10000" type="trackID"/>
          <trackInput inputID="-1"/>
          <component componentGuid="cf751d05-485c-4366-a408-f9b4e37253c0" componentID="Audition.Fader" id="trackFader" name="volume" powered="true">
            <parameter index="0" name="volume" parameterValue="0.50118720531463623046875"/>
            <parameter index="1" name="static gain" parameterValue="1"/>
          </component>
          <component componentGuid="4bd9560c-a9ff-4bdc-894c-36438390a68e" componentID="Audition.Mute" id="trackMute" name="Mute" powered="true">
            <parameter index="0" parameterValue="0"/>
            <parameter index="1" name="mute" parameterValue="0"/>
          </component>
          <component componentGuid="6a3af77b-7d50-43d8-8b70-0f4a9d3125bd" componentID="Audition.StereoPanner" id="trackPan" name="StereoPanner" powered="true">
            <parameter index="0" name="パン" parameterValue="0"/>
          </component>
          <component componentGuid="9149b564-ff82-4b56-a3cc-f79b773b2b71" componentID="Audition.EQ" id="trackEQ" name="EQ" powered="false">
            <parameter index="0" name="ローシェルビング周波数" parameterValue="0.0008340000058524310588836669921875"/>
            <parameter index="1" name="ローシェルビングゲイン" parameterValue="0.5"/>
            <parameter index="2" name="ハイシェルビング周波数" parameterValue="0.74979150295257568359375"/>
            <parameter index="3" name="ハイシェルビングゲイン" parameterValue="0.5"/>
            <parameter index="4" name="EQ バンド 1 センター周波数" parameterValue="0.001250999979674816131591796875"/>
            <parameter index="5" name="EQ バンド 1 Q" parameterValue="0.000199999994947575032711029052734375"/>
            <parameter index="6" name="EQ バンド 1 ゲイン" parameterValue="0.5"/>
            <parameter index="7" name="EQ バンド 1 有効" parameterValue="1"/>
            <parameter index="8" name="EQ バンド 2 センター周波数" parameterValue="0.0075063002295792102813720703125"/>
            <parameter index="9" name="EQ バンド 2 Q" parameterValue="0.000199999994947575032711029052734375"/>
            <parameter index="10" name="EQ バンド 2 ゲイン" parameterValue="0.5"/>
            <parameter index="11" name="EQ バンド 2 有効" parameterValue="1"/>
            <parameter index="12" name="EQ バンド 3 センター周波数" parameterValue="0.0325271002948284149169921875"/>
            <parameter index="13" name="EQ バンド 3 Q" parameterValue="0.000199999994947575032711029052734375"/>
            <parameter index="14" name="EQ バンド 3 ゲイン" parameterValue="0.5"/>
            <parameter index="15" name="EQ バンド 3 有効" parameterValue="1"/>
            <parameter index="16" name="EQ バンド 4 センター周波数" parameterValue="0.132610499858856201171875"/>
            <parameter index="17" name="EQ バンド 4 Q" parameterValue="0.000199999994947575032711029052734375"/>
            <parameter index="18" name="EQ バンド 4 ゲイン" parameterValue="0.5"/>
            <parameter index="19" name="EQ バンド 4 有効" parameterValue="1"/>
            <parameter index="20" name="EQ バンド 5 センター周波数" parameterValue="0.53294408321380615234375"/>
            <parameter index="21" name="EQ バンド 5 Q" parameterValue="0.000199999994947575032711029052734375"/>
            <parameter index="22" name="EQ バンド 5 ゲイン" parameterValue="0.5"/>
            <parameter index="23" name="EQ バンド 5 有効" parameterValue="1"/>
            <parameter index="24" name="マスターゲイン" parameterValue="0.666666686534881591796875"/>
            <parameter index="25" name="ConstantQ" parameterValue="1"/>
            <parameter index="26" name="ローシェルビングフィルター次数" parameterValue="0"/>
            <parameter index="27" name="ハイシェルビングフィルター次数" parameterValue="0"/>
            <parameter index="28" name="ノイズレスモード" parameterValue="0"/>
            <parameter index="29" name="ローシェルビング有効" parameterValue="1"/>
            <parameter index="30" name="ハイシェルビング有効" parameterValue="1"/>
            <parameter index="31" name="オリジナルサンプルレート" parameterValue="0.25"/>
            <parameter index="32" name="EQ バンド 1 バンド幅" parameterValue="0.0024999999441206455230712890625"/>
            <parameter index="33" name="EQ バンド 2 バンド幅" parameterValue="0.00999999977648258209228515625"/>
            <parameter index="34" name="EQ バンド 3 バンド幅" parameterValue="0.039999999105930328369140625"/>
            <parameter index="35" name="EQ バンド 4 バンド幅" parameterValue="0.1599999964237213134765625"/>
            <parameter index="36" name="EQ バンド 5 バンド幅" parameterValue="0.63999998569488525390625"/>
            <parameter index="37" name="ハイパスフィルター有効" parameterValue="0"/>
            <parameter index="38" name="ハイパスカットオフ周波数" parameterValue="0"/>
            <parameter index="39" name="ハイパススロープ" parameterValue="0.4000000059604644775390625"/>
            <parameter index="40" name="ローパスフィルター有効" parameterValue="0"/>
            <parameter index="41" name="ローパスカットオフ周波数" parameterValue="0.833194315433502197265625"/>
            <parameter index="42" name="ローパススロープ" parameterValue="0.4000000059604644775390625"/>
            <parameter index="43" name="バイパス" parameterValue="0"/>
            <parameter index="44" name="LowGraphRange" parameterValue="1"/>
          </component>
        </trackAudioParameters>
        <editParameter parameterIndex="0" slotIndex="4294967280"/>
      </metronomeTrack>
    </metronome>
    <properties>
      <property key="EssentialSoundConfigurations">[{"Guid":"a8b40e3e-13e7-4c1f-b382-96058f1f691d","Name":"$$$/app/Presets/DefaultPresetName=(Default)","PresetData":{"ModeID":"ambience","Models":{"model_ducking":{},"model_loudness":{"DefaultLoudness":{"type":"float","value":-30},"LoudnessStandard":{"type":"std::uint32_t","value":0},"MaxLoudness":{"type":"float","value":-12},"MinLoudness":{"type":"float","value":-42}},"model_soundeffects":{"ReverbPresets":{"type":"tree::any","value":{"$$$/app/Presets/EssentialSound/ReverbPreset/LargeRoomAmbience=Large Room Ambience":{"type":"array::float","value":[0.051507499068975449,0.32432401180267334,0.29292899370193481,0.30000001192092896,0.20000000298023224,0,0.14285700023174286,0.40000000596046448,0.5,0.69999998807907104,0.30000001192092896,0.25125628709793091,0.03125]},"$$$/app/Presets/EssentialSound/ReverbPreset/OutsideAmbience=Outside Ambience":{"type":"array::float","value":[0.091708503663539886,0.043893899768590927,1,0.5,0.20000000298023224,0.80000001192092896,0.18367299437522888,1,0.5,0,0.80000001192092896,0.25125628709793091,0.03125]},"$$$/app/Presets/EssentialSound/ReverbPreset/RoomAmbience=Room Ambience":{"type":"array::float","value":[0.057788901031017303,0.44944900274276733,0.49494898319244385,0.89999997615814209,0.10000000149011612,0.15000000596046448,0.081632703542709351,0.40000000596046448,0.5,0.80000001192092896,0.20000000298023224,0.25125628709793091,0.03125]},"$$$/app/Presets/EssentialSound/ReverbPreset/WindEffect=Wind Effect":{"type":"array::float","value":[0.19597999751567841,0.6896899938583374,0.69696998596191406,0.25,0.5,0.5,0.23469400405883789,0.51999998092651367,0.5,0.75,0.25,0.25125628709793091,0.03125]}}}},"model_stereowidth":{},"model_volume":{"MaxGain":{"type":"float","value":15},"MinGain":{"type":"float","value":-60}}}},"Type":"1c19ca71-c24c-49cd-8dd5-2cc46018507a","Version":1},{"Guid":"58dc27a8-6a2a-480c-bd0c-4b45fff346a6","Name":"$$$/app/Presets/DefaultPresetName=(Default)","PresetData":{"ModeID":"dialog","Models":{"model_clarity":{"EQPresets":{"type":"tree::any","value":{"$$$/app/Presets/EssentialSound/EQPreset/BackgroundVoice=Background Voice":{"type":"array::float","value":[0.12099699676036835,0.5,0.39240506291389465,0,0.5,0.5,0.5,0.5,0.5,0.47827938199043274,0.45772689580917358,0.45778733491897583,0.47946760058403015,0.5,0]},"$$$/app/Presets/EssentialSound/EQPreset/Intercom=Intercom":{"type":"array::float","value":[0.19432899355888367,0.5,1,0,0.071499988436698914,0.071499988436698914,0.071499988436698914,0.40238627791404724,0.48571401834487915,0.5,0.55155748128890991,0.59602576494216919,0.22246670722961426,0.071499988436698914,0]},"$$$/app/Presets/EssentialSound/EQPreset/LockedInTheTrunk=Locked in the Trunk":{"type":"array::float","value":[0.12099699676036835,0.5,0.79746836423873901,0,0.5,0.5,0.5,0.5,0.5,0.32846158742904663,0.15721426904201508,0.15721426904201508,0.15721426904201508,0.15721426904201508,0]},"$$$/app/Presets/EssentialSound/EQPreset/OldRadio=Old Radio":{"type":"array::float","value":[0.12099699676036835,0.5,0.79746836423873901,0,0.15721426904201508,0.15721426904201508,0.15721426904201508,0.28442040085792542,0.48315632343292236,0.36498492956161499,0.52853888273239136,0.43511500954627991,0.27154684066772461,0.15721426904201508,0]},"$$$/app/Presets/EssentialSound/EQPreset/OnTheTelephone=On the Telephone":{"type":"array::float","value":[0.12099699676036835,0.5,0.39240506291389465,0,0.32864287495613098,0.32864287495613098,0.32864287495613098,0.32864287495613098,0.48571401834487915,0.53071397542953491,0.53071397542953491,0.48357096314430237,0.32864287495613098,0.32864287495613098,0]},"$$$/app/Presets/EssentialSound/EQPreset/OutsideOfTheRoom=Outside of the Room":{"type":"array::float","value":[0.12099699676036835,0.5,0.79746836423873901,0,0.42539370059967041,0.47865453362464905,0.5,0.5,0.48571401834487915,0.40073278546333313,0.25656309723854065,0.15721426904201508,0.15721426904201508,0.15721426904201508,0]},"$$$/app/Presets/EssentialSound/EQPreset/PodcastVoice=Podcast Voice":{"type":"array::float","value":[0.12099699676036835,0.5,0.39240506291389465,0,0.5,0.5,0.5,0.51789408922195435,0.50770342350006104,0.5,0.51789408922195435,0.528114914894104,0.5102812647819519,0.5,0]},"$$$/app/Presets/EssentialSound/EQPreset/SubtleBoostFemale=Subtle Boost (Female)":{"type":"array::float","value":[0.096553400158882141,0.5,0.29113924503326416,0,0.5,0.5,0.5,0.5,0.5,0.51933407783508301,0.54642897844314575,0.52706766128540039,0.5,0.5,0]},"$$$/app/Presets/EssentialSound/EQPreset/SubtleBoostMale=Subtle Boost (Male)":{"type":"array::float","value":[0.096553400158882141,0.5,0.29113924503326416,0,0.5,0.5,0.5,0.5,0.5,0.5135338306427002,0.54642897844314575,0.51933407783508301,0.5,0.5,0]},"$$$/app/Presets/EssentialSound/EQPreset/ThatPublicRadioSound=That Public Radio Sound":{"type":"array::float","value":[0.12099699676036835,0.5,0.79746836423873901,0,0.15721426904201508,0.15721426904201508,0.15721426904201508,0.36334344744682312,0.49468311667442322,0.5,0.5,0.5,0.5,0.5,0]},"$$$/app/Presets/EssentialSound/EQPreset/VocalPresence=Vocal Presence":{"type":"array::float","value":[0.096553400158882141,0.5,0.32489451766014099,0,0.3572143018245697,0.3572143018245697,0.46428570151329041,0.47857141494750977,0.4763694703578949,0.49570354819297791,0.55924957990646362,0.56523394584655762,0.50859290361404419,0.46992480754852295,0]}}}},"model_loudness":{"DefaultLoudness":{"type":"float","value":-23},"LoudnessStandard":{"type":"std::uint32_t","value":0},"MaxLoudness":{"type":"float","value":-12},"MinLoudness":{"type":"float","value":-42}},"model_restoration":{"ReduceNoiseMaxSetting":{"type":"array::float","value":[0.60000002384185791,0.40000000596046448,0.5,0.5,0.2465750128030777,0.60000002384185791,2048,0,0]},"ReduceNoiseMinSetting":{"type":"array::float","value":[0.375,0.20000000298023224,0.60000002384185791,0.5625,0.10958899557590485,0.30000001192092896,512,0,0]},"ReduceRumbleMaxSetting":{"type":"array::float","value":[1,0.084112152457237244,0.375,0,0,0.00083333335351198912,1,0,1,0.0390625,0.00083408987848088145,0,0.0041666668839752674,0.00022554649331141263,0.0046875001862645149,0.75,0.0052083334885537624,0.75,1,0.75,0.0040520834736526012,0.75,0.0042629167437553406,0.00022554649331141263,0.0064883334562182426,0.00022554649331141263,0.006866666954010725,0.75,0.0071704164147377014,0.00022554649331141263,0.01041458360850811,0.00022554649331141263,0.010900000110268593,0.75,0.011407917365431786,0.00022554649331141263,0.015606249682605267,0.00022554649331141263,0.016333334147930145,0.75,0.017094582319259644,0.00022554649331141263,0.026243748143315315,0.00022554649331141263,0.0274666678160429,0.75,0.028746666386723518,0.00022554649331141263,0.041658751666545868,0.00022554649331141263,0.043600000441074371,0.75,0.045631669461727142,0.00022554649331141263,0.062424581497907639,0.00022554649331141263,0.065333336591720581,0.75,0.068377502262592316,0.00022554649331141263,0.10497540980577469,0.00022554649331141263,0.1098666712641716,0.75,0.11498583108186722,0.00022554649331141263,0.16663584113121033,0.00022554649331141263,0.17440000176429749,0.75,0.18252624571323395,0.00022554649331141263,0.91874998807907104,0.00022554649331141263,1,0.00022554649331141263,0,0,0,0,0,0,0,0,0,0,0,0,0,0,0,0,0,0,0,0,0,0,0,0,0,0,0,0,0,0,0,0,0,0,0,0,0,0,0,0,0,0,0,0,0,0,0,0,0,0,0,0,0,0,0,0,0,0,0,0,0,0,0,0,0,0,0,0,0,0,0,0,0,0,0,0,0,0,0,0,0,0,0,0,0,0,0,0,0,0,0,0,0,0,0,0,0,0,0,0,0,0,0,0,0,0,0,0,0,0,0,0,0,0,0,0,0,0,0,0,0,0,0,0,0,0,0,0,0,0,0,0,0,0,0,0,0,0,0,0,0,0,0,0,0,0,0,0,0,0,0,0,0,0,0,0,0,0,0,0,0,0,0,0,0,0,0,0,0,0,0,0,0,0,0,0,0,0,0,0,0,0,0,0,0,0,0,0,0,0]},"ReduceRumbleMinSetting":{"type":"array::float","value":[1,0.084112152457237244,0.375,0,0,0.00083333335351198912,1,0,1,0.0390625,0.00083408987848088145,0.75,0.0041666668839752674,0.75,0.0046875001862645149,0.75,0.0052083334885537624,0.75,1,0.75,0.91874998807907104,0.61237245798110962,1,0.61237245798110962,0,0,0,0,0,0,0,0,0,0,0,0,0,0,0,0,0,0,0,0,0,0,0,0,0,0,0,0,0,0,0,0,0,0,0,0,0,0,0,0,0,0,0,0,0,0,0,0,0,0,0,0,0,0,0,0,0,0,0,0,0,0,0,0,0,0,0,0,0,0,0,0,0,0,0,0,0,0,0,0,0,0,0,0,0,0,0,0,0,0,0,0,0,0,0,0,0,0,0,0,0,0,0,0,0,0,0,0,0,0,0,0,0,0,0,0,0,0,0,0,0,0,0,0,0,0,0,0,0,0,0,0,0,0,0,0,0,0,0,0,0,0,0,0,0,0,0,0,0,0,0,0,0,0,0,0,0,0,0,0,0,0,0,0,0,0,0,0,0,0,0,0,0,0,0,0,0,0,0,0,0,0,0,0,0,0,0,0,0,0,0,0,0,0,0,0,0,0,0,0,0,0,0,0,0,0,0,0,0,0,0,0,0,0,0,0,0,0,0,0,0,0,0,0,0,0,0,0,0,0,0,0,0,0,0,0,0,0,0,0,0,0]},"ReduceSibilanceMaxSetting":{"type":"array::float","value":[0.5,0.19983997941017151,0.18367347121238708,0.26086956262588501,0.52702701091766357,0,1,0,0,0,0,0.75,1,1,0.40000000596046448]},"ReduceSibilanceMinSetting":{"type":"array::float","value":[0.875,0.19983997941017151,0.18367347121238708,0.19130434095859528,0.25675675272941589,0,1,0,0,0,0,0.75,1,1,0.40000000596046448]}},"model_soundeffects":{"ReverbPresets":{"type":"tree::any","value":{"$$$/app/Presets/EssentialSound/ReverbPreset/Auditorium=Auditorium":{"type":"array::float","value":[0.013047545216977596,0.15895412862300873,1,0.89999997615814209,0,0.52007436752319336,0.41663265228271484,0.46000000834465027,0.5,0.73000001907348633,0.15999999642372131,0.75376886129379272,0.03125]},"$$$/app/Presets/EssentialSound/ReverbPreset/Church=Church":{"type":"array::float","value":[0.032663315534591675,0.39939939975738525,0.79797977209091187,0.25,0.5,0.5,0.2297959178686142,0.72000002861022949,0.5,0.62999999523162842,0.87999999523162842,0.25125628709793091,0.03125]},"$$$/app/Presets/EssentialSound/ReverbPreset/LargeReflectiveRoom=Large Reflective Room":{"type":"array::float","value":[0.0074449013918638229,0.098988421261310577,0.79890537261962891,0.89999997615814209,0.10000000149011612,0.40110713243484497,0.060284845530986786,0.27522978186607361,0.5,0.73000001907348633,0.31999999284744263,0.25125628709793091,0.03125]},"$$$/app/Presets/EssentialSound/ReverbPreset/OutsideTheClub=Outside the Club":{"type":"array::float","value":[0.020615793764591217,0.050136558711528778,0.69696998596191406,0.25,0.094355784356594086,0.22242647409439087,0.1071428582072258,0.2800000011920929,0.5,0.73000001907348633,0.46000000834465027,0.25125628709793091,0.03125]},"$$$/app/Presets/EssentialSound/ReverbPreset/SmallDryRoom=Small Dry Room":{"type":"array::float","value":[0.24623115360736847,0.69975000619888306,0.29292899370193481,0.40000000596046448,0.20000000298023224,0.40000000596046448,0.039285715669393539,0.10000000149011612,0.5,1,0.5,0.75376886129379272,0.03125]},"$$$/app/Presets/EssentialSound/ReverbPreset/ThickenVoice=Thicken Voice":{"type":"array::float","value":[0.19597999751567841,0.23931467533111572,0.69696998596191406,0.25,0.5,0.53999996185302734,0.020408162847161293,0.20945435762405396,0.5,1,0.34999999403953552,0.25125628709793091,0.03125]},"$$$/app/Presets/EssentialSound/ReverbPreset/WarmRoom=Warm Room":{"type":"array::float","value":[0.020100502297282219,0.074074074625968933,0.49494948983192444,0.40000000596046448,0.74960309267044067,0.40000000596046448,0.1239795908331871,0.67000001668930054,0.5,0.85000002384185791,0.56000000238418579,0.25125628709793091,0.03125]},"$$$/app/Presets/EssentialSound/ReverbPreset/WarmVoice=Warm Voice":{"type":"array::float","value":[0.19597989320755005,0.89989989995956421,0,0.40000000596046448,0.20000000298023224,0.40000000596046448,0.10204081982374191,0.090000003576278687,0.5,1,0.30000001192092896,0.25125628709793091,0.03125]}}}},"model_volume":{"MaxGain":{"type":"float","value":15},"MinGain":{"type":"float","value":-60}}}},"Type":"1c19ca71-c24c-49cd-8dd5-2cc46018507a","Version":1},{"Guid":"353811fa-4179-435e-8e5e-23028ba15a7a","Name":"$$$/app/Presets/DefaultPresetName=(Default)","PresetData":{"ModeID":"generic","Models":{"model_loudness":{"DefaultLoudness":{"type":"float","value":-24},"LoudnessStandard":{"type":"std::uint32_t","value":0},"MaxLoudness":{"type":"float","value":-12},"MinLoudness":{"type":"float","value":-42}},"model_volume":{"MaxGain":{"type":"float","value":15},"MinGain":{"type":"float","value":-60}}}},"Type":"1c19ca71-c24c-49cd-8dd5-2cc46018507a","Version":1},{"Guid":"31ba96a6-5d3e-4d89-b1e1-1dbe3c055d0c","Name":"$$$/app/Presets/DefaultPresetName=(Default)","PresetData":{"ModeID":"music","Models":{"model_ducking":{},"model_duration":{},"model_loudness":{"DefaultLoudness":{"type":"float","value":-25},"LoudnessStandard":{"type":"std::uint32_t","value":0},"MaxLoudness":{"type":"float","value":-12},"MinLoudness":{"type":"float","value":-42}},"model_volume":{"MaxGain":{"type":"float","value":15},"MinGain":{"type":"float","value":-60}}}},"Type":"1c19ca71-c24c-49cd-8dd5-2cc46018507a","Version":1},{"Guid":"cea63332-1adc-44a9-a6eb-5490f965859b","Name":"$$$/app/Presets/DefaultPresetName=(Default)","PresetData":{"ModeID":"sfx","Models":{"model_loudness":{"DefaultLoudness":{"type":"float","value":-21},"LoudnessStandard":{"type":"std::uint32_t","value":0},"MaxLoudness":{"type":"float","value":-12},"MinLoudness":{"type":"float","value":-42}},"model_pan":{},"model_soundeffects":{"ReverbPresets":{"type":"tree::any","value":{"$$$/app/Presets/EssentialSound/ReverbPreset/HeavyReverb=Heavy Reverb":{"type":"array::float","value":[0.13316600024700165,0.29929900169372559,1,0.95999997854232788,0.85000002384185791,0.5,0.51530599594116211,0.30000001192092896,0.5,0.5,0.5,0.25125628709793091,0.0625]},"$$$/app/Presets/EssentialSound/ReverbPreset/LightReverb=Light Reverb":{"type":"array::float","value":[0.095477402210235596,0.29929900169372559,0.090909101068973541,1,1,0.80000001192092896,0.22449000179767609,0.60000002384185791,0.5,0.69999998807907104,0.30000001192092896,0.25125628709793091,0.0625]},"$$$/app/Presets/EssentialSound/ReverbPreset/OutsideReverb=Outside Reverb":{"type":"array::float","value":[0.091708503663539886,0.043893899768590927,1,0.5,0.20000000298023224,0.80000001192092896,0.18367299437522888,1,0.5,0,0.80000001192092896,0.25125628709793091,0.0625]},"$$$/app/Presets/EssentialSound/ReverbPreset/RoomReverb=Room Reverb":{"type":"array::float","value":[0.057788901031017303,0.44944900274276733,0.49494898319244385,0.89999997615814209,0.10000000149011612,0.15000000596046448,0.081632703542709351,0.40000000596046448,0.5,0.80000001192092896,0.20000000298023224,0.25125628709793091,0.0625]}}}},"model_volume":{"MaxGain":{"type":"float","value":15},"MinGain":{"type":"float","value":-60}}}},"Type":"1c19ca71-c24c-49cd-8dd5-2cc46018507a","Version":1}]</property>
    </properties>
  </session>

  <files>
    <file absolutePath="D:\git_Project_AI\sound\読み込まれたファイル\トラック 1_001.wav" id="0" importerPrivateSettings="Compression:0:0;LargeFileSupport:0:0;SampleType:0:20;" mediaHandler="AmioWav" relativePath="読み込まれたファイル/トラック 1_001.wav"/>
    <file absolutePath="D:\git_Project_AI\sound\読み込まれたファイル\トラック 1_002.wav" id="1" importerPrivateSettings="Compression:0:0;LargeFileSupport:0:0;SampleType:0:20;" mediaHandler="AmioWav" relativePath="読み込まれたファイル/トラック 1_002.wav"/>
    <file absolutePath="D:\git_Project_AI\sound\読み込まれたファイル\トラック 1_023.wav" id="2" importerPrivateSettings="Compression:0:0;LargeFileSupport:0:0;SampleType:0:20;" mediaHandler="AmioWav" relativePath="読み込まれたファイル/トラック 1_023.wav"/>
    <file absolutePath="D:\git_Project_AI\sound\読み込まれたファイル\トラック 1_024.wav" id="3" importerPrivateSettings="Compression:0:0;LargeFileSupport:0:0;SampleType:0:20;" mediaHandler="AmioWav" relativePath="読み込まれたファイル/トラック 1_024.wav"/>
    <file absolutePath="D:\git_Project_AI\sound\読み込まれたファイル\トラック 2_003.wav" id="4" importerPrivateSettings="Compression:0:0;LargeFileSupport:0:0;SampleType:0:20;" mediaHandler="AmioWav" relativePath="読み込まれたファイル/トラック 2_003.wav"/>
    <file absolutePath="D:\git_Project_AI\sound\読み込まれたファイル\トラック 2_009.wav" id="5" importerPrivateSettings="Compression:0:0;LargeFileSupport:0:0;SampleType:0:20;" mediaHandler="AmioWav" relativePath="読み込まれたファイル/トラック 2_009.wav"/>
    <file absolutePath="D:\git_Project_AI\sound\読み込まれたファイル\トラック 2_025.wav" id="6" importerPrivateSettings="Compression:0:0;LargeFileSupport:0:0;SampleType:0:20;" mediaHandler="AmioWav" relativePath="読み込まれたファイル/トラック 2_025.wav"/>
    <file absolutePath="D:\git_Project_AI\sound\読み込まれたファイル\トラック 2_026.wav" id="7" importerPrivateSettings="Compression:0:0;LargeFileSupport:0:0;SampleType:0:20;" mediaHandler="AmioWav" relativePath="読み込まれたファイル/トラック 2_026.wav"/>
    <file absolutePath="D:\git_Project_AI\sound\読み込まれたファイル\トラック 2_027.wav" id="8" importerPrivateSettings="Compression:0:0;LargeFileSupport:0:0;SampleType:0:20;" mediaHandler="AmioWav" relativePath="読み込まれたファイル/トラック 2_027.wav"/>
    <file absolutePath="D:\git_Project_AI\sound\読み込まれたファイル\トラック 3_010.wav" id="9" importerPrivateSettings="Compression:0:0;LargeFileSupport:0:0;SampleType:0:20;" mediaHandler="AmioWav" relativePath="読み込まれたファイル/トラック 3_010.wav"/>
    <file absolutePath="D:\git_Project_AI\sound\読み込まれたファイル\トラック 3_021.wav" id="10" importerPrivateSettings="Compression:0:0;LargeFileSupport:0:0;SampleType:0:20;" mediaHandler="AmioWav" relativePath="読み込まれたファイル/トラック 3_021.wav"/>
    <file absolutePath="D:\git_Project_AI\sound\読み込まれたファイル\トラック 3_022.wav" id="11" importerPrivateSettings="Compression:0:0;LargeFileSupport:0:0;SampleType:0:20;" mediaHandler="AmioWav" relativePath="読み込まれたファイル/トラック 3_022.wav"/>
    <file absolutePath="D:\git_Project_AI\sound\読み込まれたファイル\トラック 4_011.wav" id="12" importerPrivateSettings="Compression:0:0;LargeFileSupport:0:0;SampleType:0:20;" mediaHandler="AmioWav" relativePath="読み込まれたファイル/トラック 4_011.wav"/>
    <file absolutePath="D:\git_Project_AI\sound\読み込まれたファイル\トラック 4_012.wav" id="13" importerPrivateSettings="Compression:0:0;LargeFileSupport:0:0;SampleType:0:20;" mediaHandler="AmioWav" relativePath="読み込まれたファイル/トラック 4_012.wav"/>
    <file absolutePath="D:\git_Project_AI\sound\読み込まれたファイル\トラック 5_014.wav" id="14" importerPrivateSettings="Compression:0:0;LargeFileSupport:0:0;SampleType:0:20;" mediaHandler="AmioWav" relativePath="読み込まれたファイル/トラック 5_014.wav"/>
    <file absolutePath="D:\git_Project_AI\sound\読み込まれたファイル\トラック 5_016.wav" id="15" importerPrivateSettings="Compression:0:0;LargeFileSupport:0:0;SampleType:0:20;" mediaHandler="AmioWav" relativePath="読み込まれたファイル/トラック 5_016.wav"/>
    <file absolutePath="D:\git_Project_AI\sound\読み込まれたファイル\トラック 5_017.wav" id="16" importerPrivateSettings="Compression:0:0;LargeFileSupport:0:0;SampleType:0:20;" mediaHandler="AmioWav" relativePath="読み込まれたファイル/トラック 5_017.wav"/>
    <file absolutePath="D:\git_Project_AI\sound\読み込まれたファイル\トラック 6_019.wav" id="17" importerPrivateSettings="Compression:0:0;LargeFileSupport:0:0;SampleType:0:20;" mediaHandler="AmioWav" relativePath="読み込まれたファイル/トラック 6_019.wav"/>
    <file absolutePath="D:\git_Project_AI\sound\読み込まれたファイル\トラック 6_020.wav" id="18" importerPrivateSettings="Compression:0:0;LargeFileSupport:0:0;SampleType:0:20;" mediaHandler="AmioWav" relativePath="読み込まれたファイル/トラック 6_020.wav"/>
    <file absolutePath="D:\git_Project_AI\sound\読み込まれたファイル\OPED用ジングル7_ 48000 1.wav" id="19" importerPrivateSettings="Compression:0:0;LargeFileSupport:0:0;SampleType:0:1;" mediaHandler="AmioWav" relativePath="読み込まれたファイル/OPED用ジングル7_ 48000 1.wav"/>
    <file absolutePath="D:\git_Project_AI\sound\読み込まれたファイル\VSQ_MUSIC_007.mp3" id="20" importerPrivateSettings="BitsPerSecond:0:320000;CompressionQuality:0:4;CompressionType:0:0;" mediaHandler="AmioMP3" relativePath="読み込まれたファイル/VSQ_MUSIC_007.mp3"/>
    <file absolutePath="D:\git_Project_AI\sound\読み込まれたファイル\トラック 6_018.wav" id="21" importerPrivateSettings="Compression:0:0;LargeFileSupport:0:0;SampleType:0:20;" mediaHandler="AmioWav" relativePath="読み込まれたファイル/トラック 6_018.wav"/>
    <file absolutePath="D:\git_Project_AI\sound\読み込まれたファイル\枯れ葉のように.mp3" id="22" importerPrivateSettings="BitsPerSecond:0:320000;CompressionQuality:0:4;CompressionType:0:0;" mediaHandler="AmioMP3" relativePath="読み込まれたファイル/枯れ葉のように.mp3"/>
    <file absolutePath="D:\git_Project_AI\sound\読み込まれたファイル\quiet-room-1 48000 1.wav" id="23" importerPrivateSettings="Compression:0:0;LargeFileSupport:0:0;SampleType:0:1;" mediaHandler="AmioWav" relativePath="読み込まれたファイル/quiet-room-1 48000 1.wav"/>
    <file absolutePath="D:\git_Project_AI\sound\読み込まれたファイル\VSQSE_0299_PC_machine_noise 48000 1.wav" id="24" importerPrivateSettings="Compression:0:0;LargeFileSupport:0:0;SampleType:0:1;" mediaHandler="AmioWav" relativePath="読み込まれたファイル/VSQSE_0299_PC_machine_noise 48000 1.wav"/>
    <file absolutePath="D:\git_Project_AI\sound\Conformed Files\VSQ_MUSIC_003 48000 3.wav" id="25" mediaHandler="AmioWav" relativePath="Conformed Files/VSQ_MUSIC_003 48000 3.wav"/>
  </files>

  <audioDevice inputID="1D58A5F2-E70A-43C6-A712-7194CEDE46CE" outputID="2760083D-A359-44AC-913D-42FB2BC2C842">
    <inputPort id="1" name="デフォルトのステレオ入力"/>
    <inputPort id="2" name="[01M] ライン (Steinberg UR22) 1"/>
    <inputPort id="3" name="[02M] ライン (Steinberg UR22) 2"/>
    <inputPort id="4" name="[01S] ライン (Steinberg UR22) 1"/>
    <outputPort id="1" name="デフォルト出力"/>
    <outputPort id="2" name="[01M] ライン (Steinberg UR22) 1"/>
    <outputPort id="3" name="[02M] ライン (Steinberg UR22) 2"/>
    <outputPort id="4" name="デフォルトのステレオ出力"/>
    <outputPort id="5" name="[01S] ライン (Steinberg UR22) 1"/>
    <outputPort id="6" name="デフォルトのサラウンド出力"/>
  </audioDevice>

</sesx>
