<?xml version="1.0" encoding="UTF-8" standalone="no" ?>
<!DOCTYPE sesx>
<sesx version="1.8">

  <session appBuild="13.0.1.35" appVersion="13.0" audioChannelType="stereo" bitDepth="24" duration="5886217" sampleRate="48000">
    <tracks>
      <audioTrack automationLaneOpenState="false" id="10001" index="1" select="false" visible="true">
        <trackParameters trackHeight="156" trackHue="160" trackMinimized="false">
          <name>トラック 1</name>
        </trackParameters>
        <trackAudioParameters audioChannelType="stereo" automationMode="1" monitoring="false" recordArmed="false" solo="false" soloSafe="false">
          <trackOutput outputID="10000" type="trackID"/>
          <trackInput inputID="2"/>
          <component componentGuid="a5e09783-1be3-46db-b9cb-b72f70ad7133" componentID="Audition.Fader" id="trackFader" name="volume" powered="true">
            <parameter index="0" name="volume" parameterValue="1"/>
            <parameter index="1" name="static gain" parameterValue="1"/>
          </component>
          <component componentGuid="178c803d-f585-44ff-89b7-357b299940fc" componentID="Audition.Mute" id="trackMute" name="Mute" powered="true">
            <parameter index="0" parameterValue="1"/>
            <parameter index="1" name="mute" parameterValue="0"/>
          </component>
          <component componentGuid="3aa531b8-957b-411e-9f6c-20a64648f596" componentID="Audition.StereoPanner" id="trackPan" name="StereoPanner" powered="true">
            <parameter index="0" name="パン" parameterValue="0"/>
          </component>
          <component componentGuid="c98cfbe5-074d-4da6-b918-c87d1d898828" componentID="Audition.EQ" id="trackEQ" name="EQ" powered="false">
            <parameter index="0" name="ローシェルビング周波数" parameterValue="0.000834028352983295917510986328125"/>
            <parameter index="1" name="ローシェルビングゲイン" parameterValue="0.5"/>
            <parameter index="2" name="ハイシェルビング周波数" parameterValue="0.74979150295257568359375"/>
            <parameter index="3" name="ハイシェルビングゲイン" parameterValue="0.5"/>
            <parameter index="4" name="EQ バンド 1 センター周波数" parameterValue="0.00125104258768260478973388671875"/>
            <parameter index="5" name="EQ バンド 1 Q" parameterValue="0.000199989997781813144683837890625"/>
            <parameter index="6" name="EQ バンド 1 ゲイン" parameterValue="0.5"/>
            <parameter index="7" name="EQ バンド 1 有効" parameterValue="1"/>
            <parameter index="8" name="EQ バンド 2 センター周波数" parameterValue="0.0075062550604343414306640625"/>
            <parameter index="9" name="EQ バンド 2 Q" parameterValue="0.000199989997781813144683837890625"/>
            <parameter index="10" name="EQ バンド 2 ゲイン" parameterValue="0.5"/>
            <parameter index="11" name="EQ バンド 2 有効" parameterValue="1"/>
            <parameter index="12" name="EQ バンド 3 センター周波数" parameterValue="0.0325271077454090118408203125"/>
            <parameter index="13" name="EQ バンド 3 Q" parameterValue="0.000199989997781813144683837890625"/>
            <parameter index="14" name="EQ バンド 3 ゲイン" parameterValue="0.5"/>
            <parameter index="15" name="EQ バンド 3 有効" parameterValue="1"/>
            <parameter index="16" name="EQ バンド 4 センター周波数" parameterValue="0.13261051476001739501953125"/>
            <parameter index="17" name="EQ バンド 4 Q" parameterValue="0.000199989997781813144683837890625"/>
            <parameter index="18" name="EQ バンド 4 ゲイン" parameterValue="0.5"/>
            <parameter index="19" name="EQ バンド 4 有効" parameterValue="1"/>
            <parameter index="20" name="EQ バンド 5 センター周波数" parameterValue="0.532944142818450927734375"/>
            <parameter index="21" name="EQ バンド 5 Q" parameterValue="0.000199989997781813144683837890625"/>
            <parameter index="22" name="EQ バンド 5 ゲイン" parameterValue="0.5"/>
            <parameter index="23" name="EQ バンド 5 有効" parameterValue="1"/>
            <parameter index="24" name="マスターゲイン" parameterValue="0.666666686534881591796875"/>
            <parameter index="25" name="ConstantQ" parameterValue="1"/>
            <parameter index="26" name="ローシェルビングフィルター次数" parameterValue="0"/>
            <parameter index="27" name="ハイシェルビングフィルター次数" parameterValue="0"/>
            <parameter index="28" name="ノイズレスモード" parameterValue="0"/>
            <parameter index="29" name="ローシェルビング有効" parameterValue="1"/>
            <parameter index="30" name="ハイシェルビング有効" parameterValue="1"/>
            <parameter index="31" name="オリジナルサンプルレート" parameterValue="0.25"/>
            <parameter index="32" name="EQ バンド 1 バンド幅" parameterValue="0.002499990165233612060546875"/>
            <parameter index="33" name="EQ バンド 2 バンド幅" parameterValue="0.0099999904632568359375"/>
            <parameter index="34" name="EQ バンド 3 バンド幅" parameterValue="0.0399999916553497314453125"/>
            <parameter index="35" name="EQ バンド 4 バンド幅" parameterValue="0.15999998152256011962890625"/>
            <parameter index="36" name="EQ バンド 5 バンド幅" parameterValue="0.63999998569488525390625"/>
            <parameter index="37" name="ハイパスフィルター有効" parameterValue="0"/>
            <parameter index="38" name="ハイパスカットオフ周波数" parameterValue="0"/>
            <parameter index="39" name="ハイパススロープ" parameterValue="0.4000000059604644775390625"/>
            <parameter index="40" name="ローパスフィルター有効" parameterValue="0"/>
            <parameter index="41" name="ローパスカットオフ周波数" parameterValue="0.833194315433502197265625"/>
            <parameter index="42" name="ローパススロープ" parameterValue="0.4000000059604644775390625"/>
            <parameter index="43" name="バイパス" parameterValue="0"/>
            <parameter index="44" name="LowGraphRange" parameterValue="1"/>
          </component>
        </trackAudioParameters>
        <editParameter parameterIndex="0" slotIndex="4294967280"/>
        <audioClip clipAutoCrossfade="true" crossFadeHeadClipID="-1" crossFadeTailClipID="-1" endPoint="1025169" fileID="0" hue="-1" id="0" lockedInTime="false" looped="false" name="トラック 1_001" offline="false" select="false" sourceInPoint="0" sourceOutPoint="1025169" startPoint="0" zOrder="0">
          <component componentGuid="0d98dc97-eba4-4b0d-8d77-e256248d1e69" componentID="Audition.Fader" id="clipGain" name="volume" powered="true">
            <parameter index="0" name="volume" parameterValue="1"/>
            <parameter index="1" name="static gain" parameterValue="1"/>
          </component>
          <component componentGuid="2dc28bd3-73ba-41fa-a88d-d50ccbc44ad3" componentID="Audition.Mute" id="clipMute" name="Mute" powered="true">
            <parameter index="0" parameterValue="0"/>
            <parameter index="1" name="mute" parameterValue="0"/>
          </component>
          <component componentGuid="3ff7b740-b51e-416c-aa6c-1a5b15b452da" componentID="Audition.StereoPanner" id="clipPan" name="StereoPanner" powered="true">
            <parameter index="0" name="パン" parameterValue="0"/>
          </component>
          <fadeIn crossFadeLinkType="linkedAsymmetric" endPoint="0" shape="0" startPoint="0" type="cosine"/>
          <fadeOut crossFadeLinkType="linkedAsymmetric" endPoint="1025169" shape="0" startPoint="1025169" type="cosine"/>
          <take sourceInPoint="0"/>
          <editParameter parameterIndex="0" slotIndex="4294967280"/>
          <editParameter parameterIndex="0" slotIndex="4294967281"/>
          <channelMap>
            <channel index="0" sourceIndex="0"/>
            <channel index="1" sourceIndex="1"/>
          </channelMap>
        </audioClip>
        <audioClip clipAutoCrossfade="true" crossFadeHeadClipID="-1" crossFadeTailClipID="-1" endPoint="1957994" fileID="1" hue="-1" id="1" lockedInTime="false" looped="false" name="トラック 1_002" offline="false" select="false" sourceInPoint="0" sourceOutPoint="923708" startPoint="1034286" zOrder="1">
          <component componentGuid="b64f10c1-ccb2-4982-a889-75eae09f4c66" componentID="Audition.Fader" id="clipGain" name="volume" powered="true">
            <parameter index="0" name="volume" parameterValue="1"/>
            <parameter index="1" name="static gain" parameterValue="1"/>
          </component>
          <component componentGuid="3e6ee2e2-01ba-44b7-9ace-e646257962fc" componentID="Audition.Mute" id="clipMute" name="Mute" powered="true">
            <parameter index="0" parameterValue="0"/>
            <parameter index="1" name="mute" parameterValue="0"/>
          </component>
          <component componentGuid="b22b52b2-e855-46b7-ada4-d7f43036879a" componentID="Audition.StereoPanner" id="clipPan" name="StereoPanner" powered="true">
            <parameter index="0" name="パン" parameterValue="0"/>
          </component>
          <fadeIn crossFadeLinkType="linkedAsymmetric" endPoint="0" shape="0" startPoint="0" type="cosine"/>
          <fadeOut crossFadeLinkType="linkedAsymmetric" endPoint="923708" shape="0" startPoint="923708" type="cosine"/>
          <take sourceInPoint="0"/>
          <editParameter parameterIndex="0" slotIndex="4294967280"/>
          <editParameter parameterIndex="0" slotIndex="4294967281"/>
          <channelMap>
            <channel index="0" sourceIndex="0"/>
            <channel index="1" sourceIndex="1"/>
          </channelMap>
        </audioClip>
        <audioClip clipAutoCrossfade="true" crossFadeHeadClipID="-1" crossFadeTailClipID="-1" endPoint="3293259" fileID="15" hue="-1" id="2" lockedInTime="false" looped="false" name="トラック 1_023" offline="false" select="false" sourceInPoint="0" sourceOutPoint="1165312" startPoint="2127947" zOrder="2">
          <component componentGuid="098baa3b-706e-45b7-9443-4272ec1ef417" componentID="Audition.Fader" id="clipGain" name="volume" powered="true">
            <parameter index="0" name="volume" parameterValue="1"/>
            <parameter index="1" name="static gain" parameterValue="1"/>
          </component>
          <component componentGuid="2a8e6f4b-56c0-4062-a271-a986ce3a333b" componentID="Audition.Mute" id="clipMute" name="Mute" powered="true">
            <parameter index="0" parameterValue="0"/>
            <parameter index="1" name="mute" parameterValue="0"/>
          </component>
          <component componentGuid="9566fd84-b5f8-42e9-bdda-726a3f29b536" componentID="Audition.StereoPanner" id="clipPan" name="StereoPanner" powered="true">
            <parameter index="0" name="パン" parameterValue="0"/>
          </component>
          <fadeIn crossFadeLinkType="linkedAsymmetric" endPoint="0" shape="0" startPoint="0" type="cosine"/>
          <fadeOut crossFadeLinkType="linkedAsymmetric" endPoint="1165312" shape="0" startPoint="1165312" type="cosine"/>
          <take sourceInPoint="0"/>
          <editParameter parameterIndex="0" slotIndex="4294967280"/>
          <editParameter parameterIndex="0" slotIndex="4294967281"/>
          <channelMap>
            <channel index="0" sourceIndex="0"/>
          </channelMap>
        </audioClip>
        <audioClip clipAutoCrossfade="true" crossFadeHeadClipID="-1" crossFadeTailClipID="-1" endPoint="4343341" fileID="16" hue="-1" id="3" lockedInTime="false" looped="false" name="トラック 1_024" offline="false" select="false" sourceInPoint="0" sourceOutPoint="939418" startPoint="3403923" zOrder="3">
          <component componentGuid="9216af1b-2e1e-42f9-a6cf-56eda09f9744" componentID="Audition.Fader" id="clipGain" name="volume" powered="true">
            <parameter index="0" name="volume" parameterValue="1"/>
            <parameter index="1" name="static gain" parameterValue="1"/>
          </component>
          <component componentGuid="5e5b9c35-e3e3-4c44-8591-90d7cb557482" componentID="Audition.Mute" id="clipMute" name="Mute" powered="true">
            <parameter index="0" parameterValue="0"/>
            <parameter index="1" name="mute" parameterValue="0"/>
          </component>
          <component componentGuid="028fcc98-b4f7-480d-9d6c-63159a4edf0b" componentID="Audition.StereoPanner" id="clipPan" name="StereoPanner" powered="true">
            <parameter index="0" name="パン" parameterValue="0"/>
          </component>
          <fadeIn crossFadeLinkType="linkedAsymmetric" endPoint="0" shape="0" startPoint="0" type="cosine"/>
          <fadeOut crossFadeLinkType="linkedAsymmetric" endPoint="939418" shape="0" startPoint="939418" type="cosine"/>
          <take sourceInPoint="0"/>
          <editParameter parameterIndex="0" slotIndex="4294967280"/>
          <editParameter parameterIndex="0" slotIndex="4294967281"/>
          <channelMap>
            <channel index="0" sourceIndex="0"/>
          </channelMap>
        </audioClip>
      </audioTrack>
      <audioTrack automationLaneOpenState="false" id="10002" index="2" select="false" visible="true">
        <trackParameters trackHeight="156" trackHue="267" trackMinimized="false">
          <name>トラック 2</name>
        </trackParameters>
        <trackAudioParameters audioChannelType="stereo" automationMode="1" monitoring="false" recordArmed="true" solo="true" soloSafe="false">
          <trackOutput outputID="10000" type="trackID"/>
          <trackInput inputID="2"/>
          <component componentGuid="ef914467-cdcf-48cb-a236-806f0af40750" componentID="Audition.Fader" id="trackFader" name="volume" powered="true">
            <parameter index="0" name="volume" parameterValue="1"/>
            <parameter index="1" name="static gain" parameterValue="1"/>
          </component>
          <component componentGuid="a2833a16-7237-4250-b4fa-2b9e876f28d7" componentID="Audition.Mute" id="trackMute" name="Mute" powered="true">
            <parameter index="0" parameterValue="0"/>
            <parameter index="1" name="mute" parameterValue="0"/>
          </component>
          <component componentGuid="3f3b1619-2135-4b84-98cf-3642f9beed70" componentID="Audition.StereoPanner" id="trackPan" name="StereoPanner" powered="true">
            <parameter index="0" name="パン" parameterValue="0"/>
          </component>
          <component componentGuid="37cdf6ae-7791-49f9-a575-909a185f76eb" componentID="Audition.EQ" id="trackEQ" name="EQ" powered="false">
            <parameter index="0" name="ローシェルビング周波数" parameterValue="0.000834028352983295917510986328125"/>
            <parameter index="1" name="ローシェルビングゲイン" parameterValue="0.5"/>
            <parameter index="2" name="ハイシェルビング周波数" parameterValue="0.74979150295257568359375"/>
            <parameter index="3" name="ハイシェルビングゲイン" parameterValue="0.5"/>
            <parameter index="4" name="EQ バンド 1 センター周波数" parameterValue="0.00125104258768260478973388671875"/>
            <parameter index="5" name="EQ バンド 1 Q" parameterValue="0.000199989997781813144683837890625"/>
            <parameter index="6" name="EQ バンド 1 ゲイン" parameterValue="0.5"/>
            <parameter index="7" name="EQ バンド 1 有効" parameterValue="1"/>
            <parameter index="8" name="EQ バンド 2 センター周波数" parameterValue="0.0075062550604343414306640625"/>
            <parameter index="9" name="EQ バンド 2 Q" parameterValue="0.000199989997781813144683837890625"/>
            <parameter index="10" name="EQ バンド 2 ゲイン" parameterValue="0.5"/>
            <parameter index="11" name="EQ バンド 2 有効" parameterValue="1"/>
            <parameter index="12" name="EQ バンド 3 センター周波数" parameterValue="0.0325271077454090118408203125"/>
            <parameter index="13" name="EQ バンド 3 Q" parameterValue="0.000199989997781813144683837890625"/>
            <parameter index="14" name="EQ バンド 3 ゲイン" parameterValue="0.5"/>
            <parameter index="15" name="EQ バンド 3 有効" parameterValue="1"/>
            <parameter index="16" name="EQ バンド 4 センター周波数" parameterValue="0.13261051476001739501953125"/>
            <parameter index="17" name="EQ バンド 4 Q" parameterValue="0.000199989997781813144683837890625"/>
            <parameter index="18" name="EQ バンド 4 ゲイン" parameterValue="0.5"/>
            <parameter index="19" name="EQ バンド 4 有効" parameterValue="1"/>
            <parameter index="20" name="EQ バンド 5 センター周波数" parameterValue="0.532944142818450927734375"/>
            <parameter index="21" name="EQ バンド 5 Q" parameterValue="0.000199989997781813144683837890625"/>
            <parameter index="22" name="EQ バンド 5 ゲイン" parameterValue="0.5"/>
            <parameter index="23" name="EQ バンド 5 有効" parameterValue="1"/>
            <parameter index="24" name="マスターゲイン" parameterValue="0.666666686534881591796875"/>
            <parameter index="25" name="ConstantQ" parameterValue="1"/>
            <parameter index="26" name="ローシェルビングフィルター次数" parameterValue="0"/>
            <parameter index="27" name="ハイシェルビングフィルター次数" parameterValue="0"/>
            <parameter index="28" name="ノイズレスモード" parameterValue="0"/>
            <parameter index="29" name="ローシェルビング有効" parameterValue="1"/>
            <parameter index="30" name="ハイシェルビング有効" parameterValue="1"/>
            <parameter index="31" name="オリジナルサンプルレート" parameterValue="0.25"/>
            <parameter index="32" name="EQ バンド 1 バンド幅" parameterValue="0.002499990165233612060546875"/>
            <parameter index="33" name="EQ バンド 2 バンド幅" parameterValue="0.0099999904632568359375"/>
            <parameter index="34" name="EQ バンド 3 バンド幅" parameterValue="0.0399999916553497314453125"/>
            <parameter index="35" name="EQ バンド 4 バンド幅" parameterValue="0.15999998152256011962890625"/>
            <parameter index="36" name="EQ バンド 5 バンド幅" parameterValue="0.63999998569488525390625"/>
            <parameter index="37" name="ハイパスフィルター有効" parameterValue="0"/>
            <parameter index="38" name="ハイパスカットオフ周波数" parameterValue="0"/>
            <parameter index="39" name="ハイパススロープ" parameterValue="0.4000000059604644775390625"/>
            <parameter index="40" name="ローパスフィルター有効" parameterValue="0"/>
            <parameter index="41" name="ローパスカットオフ周波数" parameterValue="0.833194315433502197265625"/>
            <parameter index="42" name="ローパススロープ" parameterValue="0.4000000059604644775390625"/>
            <parameter index="43" name="バイパス" parameterValue="0"/>
            <parameter index="44" name="LowGraphRange" parameterValue="1"/>
          </component>
        </trackAudioParameters>
        <editParameter parameterIndex="0" slotIndex="4294967280"/>
        <audioClip clipAutoCrossfade="true" crossFadeHeadClipID="-1" crossFadeTailClipID="-1" endPoint="1108168" fileID="2" hue="-1" id="0" lockedInTime="false" looped="false" name="トラック 2_003" offline="false" select="false" sourceInPoint="0" sourceOutPoint="1108168" startPoint="0" zOrder="0">
          <component componentGuid="fa688506-e830-48da-98d4-edddc1dceee5" componentID="Audition.Fader" id="clipGain" name="volume" powered="true">
            <parameter index="0" name="volume" parameterValue="1"/>
            <parameter index="1" name="static gain" parameterValue="1"/>
          </component>
          <component componentGuid="ca6d1274-b6cc-4dbd-a03c-b13a9981ba5d" componentID="Audition.Mute" id="clipMute" name="Mute" powered="true">
            <parameter index="0" parameterValue="0"/>
            <parameter index="1" name="mute" parameterValue="0"/>
          </component>
          <component componentGuid="3abc1808-bbb2-43af-8de2-5d39616d517b" componentID="Audition.StereoPanner" id="clipPan" name="StereoPanner" powered="true">
            <parameter index="0" name="パン" parameterValue="0"/>
          </component>
          <fadeIn crossFadeLinkType="linkedAsymmetric" endPoint="0" shape="0" startPoint="0" type="cosine"/>
          <fadeOut crossFadeLinkType="linkedAsymmetric" endPoint="1108168" shape="0" startPoint="1108168" type="cosine"/>
          <take sourceInPoint="0"/>
          <editParameter parameterIndex="0" slotIndex="4294967280"/>
          <editParameter parameterIndex="0" slotIndex="4294967281"/>
          <channelMap>
            <channel index="0" sourceIndex="0"/>
            <channel index="1" sourceIndex="1"/>
          </channelMap>
        </audioClip>
        <audioClip clipAutoCrossfade="true" crossFadeHeadClipID="-1" crossFadeTailClipID="-1" endPoint="2149331" fileID="3" hue="-1" id="1" lockedInTime="false" looped="false" name="トラック 2_009" offline="false" select="false" sourceInPoint="0" sourceOutPoint="1009883" startPoint="1139448" zOrder="1">
          <component componentGuid="54e404c8-5cc0-4591-bb51-fc6d9ccf227a" componentID="Audition.Fader" id="clipGain" name="volume" powered="true">
            <parameter index="0" name="volume" parameterValue="1"/>
            <parameter index="1" name="static gain" parameterValue="1"/>
          </component>
          <component componentGuid="baebe49c-5748-47de-97b4-505013740964" componentID="Audition.Mute" id="clipMute" name="Mute" powered="true">
            <parameter index="0" parameterValue="0"/>
            <parameter index="1" name="mute" parameterValue="0"/>
          </component>
          <component componentGuid="58cd2ce0-36b9-48bd-a57d-ddd74d5972b3" componentID="Audition.StereoPanner" id="clipPan" name="StereoPanner" powered="true">
            <parameter index="0" name="パン" parameterValue="0"/>
          </component>
          <fadeIn crossFadeLinkType="linkedAsymmetric" endPoint="0" shape="0" startPoint="0" type="cosine"/>
          <fadeOut crossFadeLinkType="linkedAsymmetric" endPoint="1009883" shape="0" startPoint="1009883" type="cosine"/>
          <take sourceInPoint="0"/>
          <editParameter parameterIndex="0" slotIndex="4294967280"/>
          <editParameter parameterIndex="0" slotIndex="4294967281"/>
          <channelMap>
            <channel index="0" sourceIndex="0"/>
            <channel index="1" sourceIndex="1"/>
          </channelMap>
        </audioClip>
        <audioClip clipAutoCrossfade="true" crossFadeHeadClipID="-1" crossFadeTailClipID="-1" endPoint="3251861" fileID="17" hue="-1" id="2" lockedInTime="false" looped="false" name="トラック 2_025" offline="false" select="false" sourceInPoint="0" sourceOutPoint="918528" startPoint="2333333" zOrder="2">
          <component componentGuid="adfa9685-285a-42b1-9a4f-6d55f60a717b" componentID="Audition.Fader" id="clipGain" name="volume" powered="true">
            <parameter index="0" name="volume" parameterValue="1"/>
            <parameter index="1" name="static gain" parameterValue="1"/>
          </component>
          <component componentGuid="18ba7a6d-88b4-4d61-a84b-7ec47b82340f" componentID="Audition.Mute" id="clipMute" name="Mute" powered="true">
            <parameter index="0" parameterValue="0"/>
            <parameter index="1" name="mute" parameterValue="0"/>
          </component>
          <component componentGuid="a860131c-0efd-44eb-b879-4153f944e387" componentID="Audition.StereoPanner" id="clipPan" name="StereoPanner" powered="true">
            <parameter index="0" name="パン" parameterValue="0"/>
          </component>
          <fadeIn crossFadeLinkType="linkedAsymmetric" endPoint="0" shape="0" startPoint="0" type="cosine"/>
          <fadeOut crossFadeLinkType="linkedAsymmetric" endPoint="918528" shape="0" startPoint="918528" type="cosine"/>
          <take sourceInPoint="0"/>
          <editParameter parameterIndex="0" slotIndex="4294967280"/>
          <editParameter parameterIndex="0" slotIndex="4294967281"/>
          <channelMap>
            <channel index="0" sourceIndex="0"/>
            <channel index="1" sourceIndex="1"/>
          </channelMap>
        </audioClip>
        <audioClip clipAutoCrossfade="true" crossFadeHeadClipID="-1" crossFadeTailClipID="-1" endPoint="4075960" fileID="19" hue="-1" id="3" lockedInTime="false" looped="false" name="トラック 2_026" offline="false" select="false" sourceInPoint="0" sourceOutPoint="763213" startPoint="3312747" zOrder="3">
          <component componentGuid="6fb33a9f-f8dc-48c1-90f7-0191842b7302" componentID="Audition.Fader" id="clipGain" name="volume" powered="true">
            <parameter index="0" name="volume" parameterValue="1"/>
            <parameter index="1" name="static gain" parameterValue="1"/>
          </component>
          <component componentGuid="088be110-4839-4d42-9c15-8d7270fe3193" componentID="Audition.Mute" id="clipMute" name="Mute" powered="true">
            <parameter index="0" parameterValue="0"/>
            <parameter index="1" name="mute" parameterValue="0"/>
          </component>
          <component componentGuid="a6c91203-a1ec-4eee-9a94-5857ef22f267" componentID="Audition.StereoPanner" id="clipPan" name="StereoPanner" powered="true">
            <parameter index="0" name="パン" parameterValue="0"/>
          </component>
          <fadeIn crossFadeLinkType="linkedAsymmetric" endPoint="0" shape="0" startPoint="0" type="cosine"/>
          <fadeOut crossFadeLinkType="linkedAsymmetric" endPoint="763213" shape="0" startPoint="763213" type="cosine"/>
          <take sourceInPoint="0"/>
          <editParameter parameterIndex="0" slotIndex="4294967280"/>
          <editParameter parameterIndex="0" slotIndex="4294967281"/>
          <channelMap>
            <channel index="0" sourceIndex="0"/>
          </channelMap>
        </audioClip>
        <audioClip clipAutoCrossfade="true" crossFadeHeadClipID="-1" crossFadeTailClipID="-1" endPoint="5457091" fileID="18" hue="-1" id="4" lockedInTime="false" looped="false" name="トラック 2_027" offline="false" select="false" sourceInPoint="0" sourceOutPoint="1065984" startPoint="4391107" zOrder="4">
          <component componentGuid="b696ee92-18af-4b98-8304-5ec35eb1b3d6" componentID="Audition.Fader" id="clipGain" name="volume" powered="true">
            <parameter index="0" name="volume" parameterValue="1"/>
            <parameter index="1" name="static gain" parameterValue="1"/>
          </component>
          <component componentGuid="69728592-8685-4dba-b7b9-727901c4f6d7" componentID="Audition.Mute" id="clipMute" name="Mute" powered="true">
            <parameter index="0" parameterValue="0"/>
            <parameter index="1" name="mute" parameterValue="0"/>
          </component>
          <component componentGuid="24819ae8-ff56-440c-9992-9116d62ff33d" componentID="Audition.StereoPanner" id="clipPan" name="StereoPanner" powered="true">
            <parameter index="0" name="パン" parameterValue="0"/>
          </component>
          <fadeIn crossFadeLinkType="linkedAsymmetric" endPoint="0" shape="0" startPoint="0" type="cosine"/>
          <fadeOut crossFadeLinkType="linkedAsymmetric" endPoint="1065984" shape="0" startPoint="1065984" type="cosine"/>
          <take sourceInPoint="0"/>
          <editParameter parameterIndex="0" slotIndex="4294967280"/>
          <editParameter parameterIndex="0" slotIndex="4294967281"/>
          <channelMap>
            <channel index="0" sourceIndex="0"/>
          </channelMap>
        </audioClip>
      </audioTrack>
      <audioTrack automationLaneOpenState="false" id="10003" index="3" select="false" visible="true">
        <trackParameters trackHeight="156" trackHue="51" trackMinimized="false">
          <name>トラック 3</name>
        </trackParameters>
        <trackAudioParameters audioChannelType="stereo" automationMode="1" monitoring="false" recordArmed="false" solo="false" soloSafe="false">
          <trackOutput outputID="10000" type="trackID"/>
          <trackInput inputID="1"/>
          <component componentGuid="74320560-433b-4101-849f-9739358ec9f6" componentID="Audition.Fader" id="trackFader" name="volume" powered="true">
            <parameter index="0" name="volume" parameterValue="1"/>
            <parameter index="1" name="static gain" parameterValue="1"/>
          </component>
          <component componentGuid="ca38bf77-50c5-41fe-b99a-b929ae15a8cf" componentID="Audition.Mute" id="trackMute" name="Mute" powered="true">
            <parameter index="0" parameterValue="1"/>
            <parameter index="1" name="mute" parameterValue="0"/>
          </component>
          <component componentGuid="cd90f143-9e12-4191-bbf9-e65aa95dd89a" componentID="Audition.StereoPanner" id="trackPan" name="StereoPanner" powered="true">
            <parameter index="0" name="パン" parameterValue="0"/>
          </component>
          <component componentGuid="dfb45e3b-839a-49d9-83ca-9888d1d3f704" componentID="Audition.EQ" id="trackEQ" name="EQ" powered="false">
            <parameter index="0" name="ローシェルビング周波数" parameterValue="0.000834028352983295917510986328125"/>
            <parameter index="1" name="ローシェルビングゲイン" parameterValue="0.5"/>
            <parameter index="2" name="ハイシェルビング周波数" parameterValue="0.74979150295257568359375"/>
            <parameter index="3" name="ハイシェルビングゲイン" parameterValue="0.5"/>
            <parameter index="4" name="EQ バンド 1 センター周波数" parameterValue="0.00125104258768260478973388671875"/>
            <parameter index="5" name="EQ バンド 1 Q" parameterValue="0.000199989997781813144683837890625"/>
            <parameter index="6" name="EQ バンド 1 ゲイン" parameterValue="0.5"/>
            <parameter index="7" name="EQ バンド 1 有効" parameterValue="1"/>
            <parameter index="8" name="EQ バンド 2 センター周波数" parameterValue="0.0075062550604343414306640625"/>
            <parameter index="9" name="EQ バンド 2 Q" parameterValue="0.000199989997781813144683837890625"/>
            <parameter index="10" name="EQ バンド 2 ゲイン" parameterValue="0.5"/>
            <parameter index="11" name="EQ バンド 2 有効" parameterValue="1"/>
            <parameter index="12" name="EQ バンド 3 センター周波数" parameterValue="0.0325271077454090118408203125"/>
            <parameter index="13" name="EQ バンド 3 Q" parameterValue="0.000199989997781813144683837890625"/>
            <parameter index="14" name="EQ バンド 3 ゲイン" parameterValue="0.5"/>
            <parameter index="15" name="EQ バンド 3 有効" parameterValue="1"/>
            <parameter index="16" name="EQ バンド 4 センター周波数" parameterValue="0.13261051476001739501953125"/>
            <parameter index="17" name="EQ バンド 4 Q" parameterValue="0.000199989997781813144683837890625"/>
            <parameter index="18" name="EQ バンド 4 ゲイン" parameterValue="0.5"/>
            <parameter index="19" name="EQ バンド 4 有効" parameterValue="1"/>
            <parameter index="20" name="EQ バンド 5 センター周波数" parameterValue="0.532944142818450927734375"/>
            <parameter index="21" name="EQ バンド 5 Q" parameterValue="0.000199989997781813144683837890625"/>
            <parameter index="22" name="EQ バンド 5 ゲイン" parameterValue="0.5"/>
            <parameter index="23" name="EQ バンド 5 有効" parameterValue="1"/>
            <parameter index="24" name="マスターゲイン" parameterValue="0.666666686534881591796875"/>
            <parameter index="25" name="ConstantQ" parameterValue="1"/>
            <parameter index="26" name="ローシェルビングフィルター次数" parameterValue="0"/>
            <parameter index="27" name="ハイシェルビングフィルター次数" parameterValue="0"/>
            <parameter index="28" name="ノイズレスモード" parameterValue="0"/>
            <parameter index="29" name="ローシェルビング有効" parameterValue="1"/>
            <parameter index="30" name="ハイシェルビング有効" parameterValue="1"/>
            <parameter index="31" name="オリジナルサンプルレート" parameterValue="0.25"/>
            <parameter index="32" name="EQ バンド 1 バンド幅" parameterValue="0.002499990165233612060546875"/>
            <parameter index="33" name="EQ バンド 2 バンド幅" parameterValue="0.0099999904632568359375"/>
            <parameter index="34" name="EQ バンド 3 バンド幅" parameterValue="0.0399999916553497314453125"/>
            <parameter index="35" name="EQ バンド 4 バンド幅" parameterValue="0.15999998152256011962890625"/>
            <parameter index="36" name="EQ バンド 5 バンド幅" parameterValue="0.63999998569488525390625"/>
            <parameter index="37" name="ハイパスフィルター有効" parameterValue="0"/>
            <parameter index="38" name="ハイパスカットオフ周波数" parameterValue="0"/>
            <parameter index="39" name="ハイパススロープ" parameterValue="0.4000000059604644775390625"/>
            <parameter index="40" name="ローパスフィルター有効" parameterValue="0"/>
            <parameter index="41" name="ローパスカットオフ周波数" parameterValue="0.833194315433502197265625"/>
            <parameter index="42" name="ローパススロープ" parameterValue="0.4000000059604644775390625"/>
            <parameter index="43" name="バイパス" parameterValue="0"/>
            <parameter index="44" name="LowGraphRange" parameterValue="1"/>
          </component>
        </trackAudioParameters>
        <editParameter parameterIndex="0" slotIndex="4294967280"/>
        <audioClip clipAutoCrossfade="true" crossFadeHeadClipID="-1" crossFadeTailClipID="-1" endPoint="971579" fileID="4" hue="-1" id="0" lockedInTime="false" looped="false" name="トラック 3_010" offline="false" select="false" sourceInPoint="0" sourceOutPoint="914432" startPoint="57147" zOrder="0">
          <component componentGuid="19daf163-144c-4b49-859e-6ad70e1d60ed" componentID="Audition.Fader" id="clipGain" name="volume" powered="true">
            <parameter index="0" name="volume" parameterValue="1"/>
            <parameter index="1" name="static gain" parameterValue="1"/>
          </component>
          <component componentGuid="93afe296-7b85-419e-9634-418c9c7b242d" componentID="Audition.Mute" id="clipMute" name="Mute" powered="true">
            <parameter index="0" parameterValue="0"/>
            <parameter index="1" name="mute" parameterValue="0"/>
          </component>
          <component componentGuid="074a9051-8a53-4a6c-8730-36bbc0ab9713" componentID="Audition.StereoPanner" id="clipPan" name="StereoPanner" powered="true">
            <parameter index="0" name="パン" parameterValue="0"/>
          </component>
          <fadeIn crossFadeLinkType="linkedAsymmetric" endPoint="0" shape="0" startPoint="0" type="cosine"/>
          <fadeOut crossFadeLinkType="linkedAsymmetric" endPoint="914432" shape="0" startPoint="914432" type="cosine"/>
          <take sourceInPoint="0"/>
          <editParameter parameterIndex="0" slotIndex="4294967280"/>
          <editParameter parameterIndex="0" slotIndex="4294967281"/>
          <channelMap>
            <channel index="0" sourceIndex="0"/>
            <channel index="1" sourceIndex="1"/>
          </channelMap>
        </audioClip>
        <audioClip clipAutoCrossfade="true" crossFadeHeadClipID="-1" crossFadeTailClipID="-1" endPoint="1489821" fileID="13" hue="-1" id="1" lockedInTime="false" looped="false" name="トラック 3_021" offline="false" select="false" sourceInPoint="0" sourceOutPoint="182966" startPoint="1306855" zOrder="1">
          <component componentGuid="5f541b95-a7c1-464a-a754-f1c8b73ea2a7" componentID="Audition.Fader" id="clipGain" name="volume" powered="true">
            <parameter index="0" name="volume" parameterValue="1"/>
            <parameter index="1" name="static gain" parameterValue="1"/>
          </component>
          <component componentGuid="5b906c7b-ec8b-4553-9aa6-53b1d2fe33e8" componentID="Audition.Mute" id="clipMute" name="Mute" powered="true">
            <parameter index="0" parameterValue="0"/>
            <parameter index="1" name="mute" parameterValue="0"/>
          </component>
          <component componentGuid="190e12dd-e350-48ea-8501-6ef8d14be735" componentID="Audition.StereoPanner" id="clipPan" name="StereoPanner" powered="true">
            <parameter index="0" name="パン" parameterValue="0"/>
          </component>
          <fadeIn crossFadeLinkType="linkedAsymmetric" endPoint="0" shape="0" startPoint="0" type="cosine"/>
          <fadeOut crossFadeLinkType="linkedAsymmetric" endPoint="182966" shape="0" startPoint="182966" type="cosine"/>
          <take sourceInPoint="0"/>
          <editParameter parameterIndex="0" slotIndex="4294967280"/>
          <editParameter parameterIndex="0" slotIndex="4294967281"/>
          <channelMap>
            <channel index="0" sourceIndex="0"/>
            <channel index="1" sourceIndex="1"/>
          </channelMap>
        </audioClip>
        <audioClip clipAutoCrossfade="true" crossFadeHeadClipID="-1" crossFadeTailClipID="-1" endPoint="1917690" fileID="14" hue="-1" id="2" lockedInTime="false" looped="false" name="トラック 3_022" offline="false" select="false" sourceInPoint="0" sourceOutPoint="267763" startPoint="1649927" zOrder="2">
          <component componentGuid="b8676b70-c85c-46ef-adb2-7e40ca59f96e" componentID="Audition.Fader" id="clipGain" name="volume" powered="true">
            <parameter index="0" name="volume" parameterValue="1"/>
            <parameter index="1" name="static gain" parameterValue="1"/>
          </component>
          <component componentGuid="46658591-b222-47cd-987b-713792260bc1" componentID="Audition.Mute" id="clipMute" name="Mute" powered="true">
            <parameter index="0" parameterValue="0"/>
            <parameter index="1" name="mute" parameterValue="0"/>
          </component>
          <component componentGuid="f51afaf8-177f-4a5b-97c1-2718ddf80dbe" componentID="Audition.StereoPanner" id="clipPan" name="StereoPanner" powered="true">
            <parameter index="0" name="パン" parameterValue="0"/>
          </component>
          <fadeIn crossFadeLinkType="linkedAsymmetric" endPoint="0" shape="0" startPoint="0" type="cosine"/>
          <fadeOut crossFadeLinkType="linkedAsymmetric" endPoint="267763" shape="0" startPoint="267763" type="cosine"/>
          <take sourceInPoint="0"/>
          <editParameter parameterIndex="0" slotIndex="4294967280"/>
          <editParameter parameterIndex="0" slotIndex="4294967281"/>
          <channelMap>
            <channel index="0" sourceIndex="0"/>
            <channel index="1" sourceIndex="1"/>
          </channelMap>
        </audioClip>
      </audioTrack>
      <audioTrack automationLaneOpenState="false" id="10004" index="4" select="true" visible="true">
        <trackParameters trackHeight="156" trackHue="182" trackMinimized="false">
          <name>トラック 4</name>
        </trackParameters>
        <trackAudioParameters audioChannelType="stereo" automationMode="1" monitoring="false" recordArmed="false" solo="false" soloSafe="false">
          <trackOutput outputID="10000" type="trackID"/>
          <trackInput inputID="1"/>
          <component componentGuid="3f998ab3-ee3b-4316-99a0-1f9f1b4dac40" componentID="Audition.Fader" id="trackFader" name="volume" powered="true">
            <parameter index="0" name="volume" parameterValue="1"/>
            <parameter index="1" name="static gain" parameterValue="1"/>
          </component>
          <component componentGuid="8b3d2cbe-7745-48df-90b8-58b3754ec0fd" componentID="Audition.Mute" id="trackMute" name="Mute" powered="true">
            <parameter index="0" parameterValue="1"/>
            <parameter index="1" name="mute" parameterValue="0"/>
          </component>
          <component componentGuid="592158c4-94c7-4a83-84e8-0d038e053a33" componentID="Audition.StereoPanner" id="trackPan" name="StereoPanner" powered="true">
            <parameter index="0" name="パン" parameterValue="0"/>
          </component>
          <component componentGuid="1871216e-72aa-4cfd-aa6e-f93c0e6c5c5a" componentID="Audition.EQ" id="trackEQ" name="EQ" powered="false">
            <parameter index="0" name="ローシェルビング周波数" parameterValue="0.000834028352983295917510986328125"/>
            <parameter index="1" name="ローシェルビングゲイン" parameterValue="0.5"/>
            <parameter index="2" name="ハイシェルビング周波数" parameterValue="0.74979150295257568359375"/>
            <parameter index="3" name="ハイシェルビングゲイン" parameterValue="0.5"/>
            <parameter index="4" name="EQ バンド 1 センター周波数" parameterValue="0.00125104258768260478973388671875"/>
            <parameter index="5" name="EQ バンド 1 Q" parameterValue="0.000199989997781813144683837890625"/>
            <parameter index="6" name="EQ バンド 1 ゲイン" parameterValue="0.5"/>
            <parameter index="7" name="EQ バンド 1 有効" parameterValue="1"/>
            <parameter index="8" name="EQ バンド 2 センター周波数" parameterValue="0.0075062550604343414306640625"/>
            <parameter index="9" name="EQ バンド 2 Q" parameterValue="0.000199989997781813144683837890625"/>
            <parameter index="10" name="EQ バンド 2 ゲイン" parameterValue="0.5"/>
            <parameter index="11" name="EQ バンド 2 有効" parameterValue="1"/>
            <parameter index="12" name="EQ バンド 3 センター周波数" parameterValue="0.0325271077454090118408203125"/>
            <parameter index="13" name="EQ バンド 3 Q" parameterValue="0.000199989997781813144683837890625"/>
            <parameter index="14" name="EQ バンド 3 ゲイン" parameterValue="0.5"/>
            <parameter index="15" name="EQ バンド 3 有効" parameterValue="1"/>
            <parameter index="16" name="EQ バンド 4 センター周波数" parameterValue="0.13261051476001739501953125"/>
            <parameter index="17" name="EQ バンド 4 Q" parameterValue="0.000199989997781813144683837890625"/>
            <parameter index="18" name="EQ バンド 4 ゲイン" parameterValue="0.5"/>
            <parameter index="19" name="EQ バンド 4 有効" parameterValue="1"/>
            <parameter index="20" name="EQ バンド 5 センター周波数" parameterValue="0.532944142818450927734375"/>
            <parameter index="21" name="EQ バンド 5 Q" parameterValue="0.000199989997781813144683837890625"/>
            <parameter index="22" name="EQ バンド 5 ゲイン" parameterValue="0.5"/>
            <parameter index="23" name="EQ バンド 5 有効" parameterValue="1"/>
            <parameter index="24" name="マスターゲイン" parameterValue="0.666666686534881591796875"/>
            <parameter index="25" name="ConstantQ" parameterValue="1"/>
            <parameter index="26" name="ローシェルビングフィルター次数" parameterValue="0"/>
            <parameter index="27" name="ハイシェルビングフィルター次数" parameterValue="0"/>
            <parameter index="28" name="ノイズレスモード" parameterValue="0"/>
            <parameter index="29" name="ローシェルビング有効" parameterValue="1"/>
            <parameter index="30" name="ハイシェルビング有効" parameterValue="1"/>
            <parameter index="31" name="オリジナルサンプルレート" parameterValue="0.25"/>
            <parameter index="32" name="EQ バンド 1 バンド幅" parameterValue="0.002499990165233612060546875"/>
            <parameter index="33" name="EQ バンド 2 バンド幅" parameterValue="0.0099999904632568359375"/>
            <parameter index="34" name="EQ バンド 3 バンド幅" parameterValue="0.0399999916553497314453125"/>
            <parameter index="35" name="EQ バンド 4 バンド幅" parameterValue="0.15999998152256011962890625"/>
            <parameter index="36" name="EQ バンド 5 バンド幅" parameterValue="0.63999998569488525390625"/>
            <parameter index="37" name="ハイパスフィルター有効" parameterValue="0"/>
            <parameter index="38" name="ハイパスカットオフ周波数" parameterValue="0"/>
            <parameter index="39" name="ハイパススロープ" parameterValue="0.4000000059604644775390625"/>
            <parameter index="40" name="ローパスフィルター有効" parameterValue="0"/>
            <parameter index="41" name="ローパスカットオフ周波数" parameterValue="0.833194315433502197265625"/>
            <parameter index="42" name="ローパススロープ" parameterValue="0.4000000059604644775390625"/>
            <parameter index="43" name="バイパス" parameterValue="0"/>
            <parameter index="44" name="LowGraphRange" parameterValue="1"/>
          </component>
        </trackAudioParameters>
        <editParameter parameterIndex="0" slotIndex="4294967280"/>
        <audioClip clipAutoCrossfade="true" crossFadeHeadClipID="-1" crossFadeTailClipID="-1" endPoint="1625818" fileID="5" hue="-1" id="0" lockedInTime="false" looped="false" name="トラック 4_011" offline="false" select="false" sourceInPoint="0" sourceOutPoint="1625818" startPoint="0" zOrder="2">
          <component componentGuid="ee184f9b-e492-4513-8f18-05073e7d9aec" componentID="Audition.Fader" id="clipGain" name="volume" powered="true">
            <parameter index="0" name="volume" parameterValue="1"/>
            <parameter index="1" name="static gain" parameterValue="1"/>
          </component>
          <component componentGuid="ae3cf048-3101-41cf-a5df-90e9a286a2dd" componentID="Audition.Mute" id="clipMute" name="Mute" powered="true">
            <parameter index="0" parameterValue="0"/>
            <parameter index="1" name="mute" parameterValue="0"/>
          </component>
          <component componentGuid="001e553a-2f13-4dff-9dc4-a4cba499be25" componentID="Audition.StereoPanner" id="clipPan" name="StereoPanner" powered="true">
            <parameter index="0" name="パン" parameterValue="0"/>
          </component>
          <fadeIn crossFadeLinkType="linkedAsymmetric" endPoint="0" shape="0" startPoint="0" type="cosine"/>
          <fadeOut crossFadeLinkType="linkedAsymmetric" endPoint="1625818" shape="0" startPoint="1625818" type="cosine"/>
          <take sourceInPoint="0"/>
          <editParameter parameterIndex="0" slotIndex="4294967281"/>
          <editParameter parameterIndex="0" slotIndex="4294967280"/>
          <channelMap>
            <channel index="0" sourceIndex="0"/>
            <channel index="1" sourceIndex="1"/>
          </channelMap>
        </audioClip>
        <audioClip clipAutoCrossfade="true" crossFadeHeadClipID="-1" crossFadeTailClipID="-1" endPoint="2086593" fileID="6" hue="-1" id="1" lockedInTime="false" looped="false" name="トラック 4_012" offline="false" select="false" sourceInPoint="0" sourceOutPoint="320719" startPoint="1765874" zOrder="3">
          <component componentGuid="25ad7007-4ea0-46b6-9320-cb82fbc0d933" componentID="Audition.Fader" id="clipGain" name="volume" powered="true">
            <parameter index="0" name="volume" parameterValue="1"/>
            <parameter index="1" name="static gain" parameterValue="1"/>
          </component>
          <component componentGuid="e204b1f7-d588-4e01-8fd4-34c402469222" componentID="Audition.Mute" id="clipMute" name="Mute" powered="true">
            <parameter index="0" parameterValue="0"/>
            <parameter index="1" name="mute" parameterValue="0"/>
          </component>
          <component componentGuid="e0ceb09c-91f9-4656-96e7-59940d2af563" componentID="Audition.StereoPanner" id="clipPan" name="StereoPanner" powered="true">
            <parameter index="0" name="パン" parameterValue="0"/>
          </component>
          <fadeIn crossFadeLinkType="linkedAsymmetric" endPoint="0" shape="0" startPoint="0" type="cosine"/>
          <fadeOut crossFadeLinkType="linkedAsymmetric" endPoint="320719" shape="0" startPoint="320719" type="cosine"/>
          <take sourceInPoint="0"/>
          <editParameter parameterIndex="0" slotIndex="4294967280"/>
          <editParameter parameterIndex="0" slotIndex="4294967281"/>
          <channelMap>
            <channel index="0" sourceIndex="0"/>
            <channel index="1" sourceIndex="1"/>
          </channelMap>
        </audioClip>
      </audioTrack>
      <audioTrack automationLaneOpenState="false" id="10005" index="5" select="false" visible="true">
        <trackParameters trackHeight="156" trackHue="294" trackMinimized="false">
          <name>トラック 5</name>
        </trackParameters>
        <trackAudioParameters audioChannelType="stereo" automationMode="1" monitoring="false" recordArmed="false" solo="false" soloSafe="false">
          <trackOutput outputID="10000" type="trackID"/>
          <trackInput inputID="2"/>
          <component componentGuid="b5e1a794-5e99-4db9-80b4-cb568a043d27" componentID="Audition.Fader" id="trackFader" name="volume" powered="true">
            <parameter index="0" name="volume" parameterValue="1"/>
            <parameter index="1" name="static gain" parameterValue="1"/>
          </component>
          <component componentGuid="fd77b1aa-73dd-4612-a6ac-2b50754dae3b" componentID="Audition.Mute" id="trackMute" name="Mute" powered="true">
            <parameter index="0" parameterValue="1"/>
            <parameter index="1" name="mute" parameterValue="0"/>
          </component>
          <component componentGuid="a7849695-f096-4100-b7cf-2b1e29a8c5d9" componentID="Audition.StereoPanner" id="trackPan" name="StereoPanner" powered="true">
            <parameter index="0" name="パン" parameterValue="0"/>
          </component>
          <component componentGuid="1593bc8f-023a-48c4-aec9-324f4095e361" componentID="Audition.EQ" id="trackEQ" name="EQ" powered="false">
            <parameter index="0" name="ローシェルビング周波数" parameterValue="0.000834028352983295917510986328125"/>
            <parameter index="1" name="ローシェルビングゲイン" parameterValue="0.5"/>
            <parameter index="2" name="ハイシェルビング周波数" parameterValue="0.74979150295257568359375"/>
            <parameter index="3" name="ハイシェルビングゲイン" parameterValue="0.5"/>
            <parameter index="4" name="EQ バンド 1 センター周波数" parameterValue="0.00125104258768260478973388671875"/>
            <parameter index="5" name="EQ バンド 1 Q" parameterValue="0.000199989997781813144683837890625"/>
            <parameter index="6" name="EQ バンド 1 ゲイン" parameterValue="0.5"/>
            <parameter index="7" name="EQ バンド 1 有効" parameterValue="1"/>
            <parameter index="8" name="EQ バンド 2 センター周波数" parameterValue="0.0075062550604343414306640625"/>
            <parameter index="9" name="EQ バンド 2 Q" parameterValue="0.000199989997781813144683837890625"/>
            <parameter index="10" name="EQ バンド 2 ゲイン" parameterValue="0.5"/>
            <parameter index="11" name="EQ バンド 2 有効" parameterValue="1"/>
            <parameter index="12" name="EQ バンド 3 センター周波数" parameterValue="0.0325271077454090118408203125"/>
            <parameter index="13" name="EQ バンド 3 Q" parameterValue="0.000199989997781813144683837890625"/>
            <parameter index="14" name="EQ バンド 3 ゲイン" parameterValue="0.5"/>
            <parameter index="15" name="EQ バンド 3 有効" parameterValue="1"/>
            <parameter index="16" name="EQ バンド 4 センター周波数" parameterValue="0.13261051476001739501953125"/>
            <parameter index="17" name="EQ バンド 4 Q" parameterValue="0.000199989997781813144683837890625"/>
            <parameter index="18" name="EQ バンド 4 ゲイン" parameterValue="0.5"/>
            <parameter index="19" name="EQ バンド 4 有効" parameterValue="1"/>
            <parameter index="20" name="EQ バンド 5 センター周波数" parameterValue="0.532944142818450927734375"/>
            <parameter index="21" name="EQ バンド 5 Q" parameterValue="0.000199989997781813144683837890625"/>
            <parameter index="22" name="EQ バンド 5 ゲイン" parameterValue="0.5"/>
            <parameter index="23" name="EQ バンド 5 有効" parameterValue="1"/>
            <parameter index="24" name="マスターゲイン" parameterValue="0.666666686534881591796875"/>
            <parameter index="25" name="ConstantQ" parameterValue="1"/>
            <parameter index="26" name="ローシェルビングフィルター次数" parameterValue="0"/>
            <parameter index="27" name="ハイシェルビングフィルター次数" parameterValue="0"/>
            <parameter index="28" name="ノイズレスモード" parameterValue="0"/>
            <parameter index="29" name="ローシェルビング有効" parameterValue="1"/>
            <parameter index="30" name="ハイシェルビング有効" parameterValue="1"/>
            <parameter index="31" name="オリジナルサンプルレート" parameterValue="0.25"/>
            <parameter index="32" name="EQ バンド 1 バンド幅" parameterValue="0.002499990165233612060546875"/>
            <parameter index="33" name="EQ バンド 2 バンド幅" parameterValue="0.0099999904632568359375"/>
            <parameter index="34" name="EQ バンド 3 バンド幅" parameterValue="0.0399999916553497314453125"/>
            <parameter index="35" name="EQ バンド 4 バンド幅" parameterValue="0.15999998152256011962890625"/>
            <parameter index="36" name="EQ バンド 5 バンド幅" parameterValue="0.63999998569488525390625"/>
            <parameter index="37" name="ハイパスフィルター有効" parameterValue="0"/>
            <parameter index="38" name="ハイパスカットオフ周波数" parameterValue="0"/>
            <parameter index="39" name="ハイパススロープ" parameterValue="0.4000000059604644775390625"/>
            <parameter index="40" name="ローパスフィルター有効" parameterValue="0"/>
            <parameter index="41" name="ローパスカットオフ周波数" parameterValue="0.833194315433502197265625"/>
            <parameter index="42" name="ローパススロープ" parameterValue="0.4000000059604644775390625"/>
            <parameter index="43" name="バイパス" parameterValue="0"/>
            <parameter index="44" name="LowGraphRange" parameterValue="1"/>
          </component>
        </trackAudioParameters>
        <editParameter parameterIndex="0" slotIndex="4294967280"/>
        <audioClip clipAutoCrossfade="true" crossFadeHeadClipID="-1" crossFadeTailClipID="-1" endPoint="1886101" fileID="7" hue="-1" id="0" lockedInTime="false" looped="false" name="トラック 5_014" offline="false" select="false" sourceInPoint="0" sourceOutPoint="1886101" startPoint="0" zOrder="0">
          <component componentGuid="802c8ebe-5139-4314-80bd-e5d7fd3d876d" componentID="Audition.Fader" id="clipGain" name="volume" powered="true">
            <parameter index="0" name="volume" parameterValue="1"/>
            <parameter index="1" name="static gain" parameterValue="1"/>
          </component>
          <component componentGuid="8318d886-34b5-4194-9f91-212ec09d55ea" componentID="Audition.Mute" id="clipMute" name="Mute" powered="true">
            <parameter index="0" parameterValue="0"/>
            <parameter index="1" name="mute" parameterValue="0"/>
          </component>
          <component componentGuid="ea3eeec4-5b80-427f-9f1f-e7c17627d418" componentID="Audition.StereoPanner" id="clipPan" name="StereoPanner" powered="true">
            <parameter index="0" name="パン" parameterValue="0"/>
          </component>
          <fadeIn crossFadeLinkType="linkedAsymmetric" endPoint="0" shape="0" startPoint="0" type="cosine"/>
          <fadeOut crossFadeLinkType="linkedAsymmetric" endPoint="1886101" shape="0" startPoint="1886101" type="cosine"/>
          <take sourceInPoint="0"/>
          <editParameter parameterIndex="0" slotIndex="4294967280"/>
          <editParameter parameterIndex="0" slotIndex="4294967281"/>
          <channelMap>
            <channel index="0" sourceIndex="0"/>
            <channel index="1" sourceIndex="1"/>
          </channelMap>
        </audioClip>
        <audioClip clipAutoCrossfade="true" crossFadeHeadClipID="-1" crossFadeTailClipID="-1" endPoint="3021609" fileID="8" hue="-1" id="1" lockedInTime="false" looped="false" name="トラック 5_016" offline="false" select="false" sourceInPoint="0" sourceOutPoint="1055927" startPoint="1965682" zOrder="1">
          <component componentGuid="1cc5b112-7dd2-473b-ab40-43ce9bdafea2" componentID="Audition.Fader" id="clipGain" name="volume" powered="true">
            <parameter index="0" name="volume" parameterValue="1"/>
            <parameter index="1" name="static gain" parameterValue="1"/>
          </component>
          <component componentGuid="032e3ea5-3c55-44c2-b62d-08761dca75f7" componentID="Audition.Mute" id="clipMute" name="Mute" powered="true">
            <parameter index="0" parameterValue="0"/>
            <parameter index="1" name="mute" parameterValue="0"/>
          </component>
          <component componentGuid="1f29cfe0-068a-4479-ab56-4bf3ee3ddb6b" componentID="Audition.StereoPanner" id="clipPan" name="StereoPanner" powered="true">
            <parameter index="0" name="パン" parameterValue="0"/>
          </component>
          <fadeIn crossFadeLinkType="linkedAsymmetric" endPoint="0" shape="0" startPoint="0" type="cosine"/>
          <fadeOut crossFadeLinkType="linkedAsymmetric" endPoint="1055927" shape="0" startPoint="1055927" type="cosine"/>
          <take sourceInPoint="0"/>
          <editParameter parameterIndex="0" slotIndex="4294967280"/>
          <editParameter parameterIndex="0" slotIndex="4294967281"/>
          <channelMap>
            <channel index="0" sourceIndex="0"/>
          </channelMap>
        </audioClip>
        <audioClip clipAutoCrossfade="true" crossFadeHeadClipID="-1" crossFadeTailClipID="-1" endPoint="4644868" fileID="9" hue="-1" id="2" lockedInTime="false" looped="false" name="トラック 5_017" offline="false" select="false" sourceInPoint="0" sourceOutPoint="1585669" startPoint="3059199" zOrder="2">
          <component componentGuid="c3748d84-adaf-493c-8737-d50b50ac0f57" componentID="Audition.Fader" id="clipGain" name="volume" powered="true">
            <parameter index="0" name="volume" parameterValue="1"/>
            <parameter index="1" name="static gain" parameterValue="1"/>
          </component>
          <component componentGuid="39f371eb-517b-48a4-bb24-6f997ddd35e5" componentID="Audition.Mute" id="clipMute" name="Mute" powered="true">
            <parameter index="0" parameterValue="0"/>
            <parameter index="1" name="mute" parameterValue="0"/>
          </component>
          <component componentGuid="9f8fc684-68e9-4ebb-8a6b-3e70f0f0df55" componentID="Audition.StereoPanner" id="clipPan" name="StereoPanner" powered="true">
            <parameter index="0" name="パン" parameterValue="0"/>
          </component>
          <fadeIn crossFadeLinkType="linkedAsymmetric" endPoint="0" shape="0" startPoint="0" type="cosine"/>
          <fadeOut crossFadeLinkType="linkedAsymmetric" endPoint="1585669" shape="0" startPoint="1585669" type="cosine"/>
          <take sourceInPoint="0"/>
          <editParameter parameterIndex="0" slotIndex="4294967280"/>
          <editParameter parameterIndex="0" slotIndex="4294967281"/>
          <channelMap>
            <channel index="0" sourceIndex="0"/>
          </channelMap>
        </audioClip>
      </audioTrack>
      <audioTrack automationLaneOpenState="false" id="10006" index="6" select="false" visible="true">
        <trackParameters trackHeight="156" trackHue="92" trackMinimized="false">
          <name>トラック 6</name>
        </trackParameters>
        <trackAudioParameters audioChannelType="stereo" automationMode="1" monitoring="false" recordArmed="false" solo="false" soloSafe="false">
          <trackOutput outputID="10000" type="trackID"/>
          <trackInput inputID="2"/>
          <component componentGuid="9579f465-267f-4a14-b160-f911f6a319d9" componentID="Audition.Fader" id="trackFader" name="volume" powered="true">
            <parameter index="0" name="volume" parameterValue="1"/>
            <parameter index="1" name="static gain" parameterValue="1"/>
          </component>
          <component componentGuid="0b09922e-2c2f-47b5-9f9e-4fcfc2c95a52" componentID="Audition.Mute" id="trackMute" name="Mute" powered="true">
            <parameter index="0" parameterValue="1"/>
            <parameter index="1" name="mute" parameterValue="0"/>
          </component>
          <component componentGuid="434ee24c-ebce-49c5-94fc-cb8db4b76a1e" componentID="Audition.StereoPanner" id="trackPan" name="StereoPanner" powered="true">
            <parameter index="0" name="パン" parameterValue="0"/>
          </component>
          <component componentGuid="24d84129-e4cc-4976-bd77-a0c47f4ba01c" componentID="Audition.EQ" id="trackEQ" name="EQ" powered="false">
            <parameter index="0" name="ローシェルビング周波数" parameterValue="0.000834028352983295917510986328125"/>
            <parameter index="1" name="ローシェルビングゲイン" parameterValue="0.5"/>
            <parameter index="2" name="ハイシェルビング周波数" parameterValue="0.74979150295257568359375"/>
            <parameter index="3" name="ハイシェルビングゲイン" parameterValue="0.5"/>
            <parameter index="4" name="EQ バンド 1 センター周波数" parameterValue="0.00125104258768260478973388671875"/>
            <parameter index="5" name="EQ バンド 1 Q" parameterValue="0.000199989997781813144683837890625"/>
            <parameter index="6" name="EQ バンド 1 ゲイン" parameterValue="0.5"/>
            <parameter index="7" name="EQ バンド 1 有効" parameterValue="1"/>
            <parameter index="8" name="EQ バンド 2 センター周波数" parameterValue="0.0075062550604343414306640625"/>
            <parameter index="9" name="EQ バンド 2 Q" parameterValue="0.000199989997781813144683837890625"/>
            <parameter index="10" name="EQ バンド 2 ゲイン" parameterValue="0.5"/>
            <parameter index="11" name="EQ バンド 2 有効" parameterValue="1"/>
            <parameter index="12" name="EQ バンド 3 センター周波数" parameterValue="0.0325271077454090118408203125"/>
            <parameter index="13" name="EQ バンド 3 Q" parameterValue="0.000199989997781813144683837890625"/>
            <parameter index="14" name="EQ バンド 3 ゲイン" parameterValue="0.5"/>
            <parameter index="15" name="EQ バンド 3 有効" parameterValue="1"/>
            <parameter index="16" name="EQ バンド 4 センター周波数" parameterValue="0.13261051476001739501953125"/>
            <parameter index="17" name="EQ バンド 4 Q" parameterValue="0.000199989997781813144683837890625"/>
            <parameter index="18" name="EQ バンド 4 ゲイン" parameterValue="0.5"/>
            <parameter index="19" name="EQ バンド 4 有効" parameterValue="1"/>
            <parameter index="20" name="EQ バンド 5 センター周波数" parameterValue="0.532944142818450927734375"/>
            <parameter index="21" name="EQ バンド 5 Q" parameterValue="0.000199989997781813144683837890625"/>
            <parameter index="22" name="EQ バンド 5 ゲイン" parameterValue="0.5"/>
            <parameter index="23" name="EQ バンド 5 有効" parameterValue="1"/>
            <parameter index="24" name="マスターゲイン" parameterValue="0.666666686534881591796875"/>
            <parameter index="25" name="ConstantQ" parameterValue="1"/>
            <parameter index="26" name="ローシェルビングフィルター次数" parameterValue="0"/>
            <parameter index="27" name="ハイシェルビングフィルター次数" parameterValue="0"/>
            <parameter index="28" name="ノイズレスモード" parameterValue="0"/>
            <parameter index="29" name="ローシェルビング有効" parameterValue="1"/>
            <parameter index="30" name="ハイシェルビング有効" parameterValue="1"/>
            <parameter index="31" name="オリジナルサンプルレート" parameterValue="0.25"/>
            <parameter index="32" name="EQ バンド 1 バンド幅" parameterValue="0.002499990165233612060546875"/>
            <parameter index="33" name="EQ バンド 2 バンド幅" parameterValue="0.0099999904632568359375"/>
            <parameter index="34" name="EQ バンド 3 バンド幅" parameterValue="0.0399999916553497314453125"/>
            <parameter index="35" name="EQ バンド 4 バンド幅" parameterValue="0.15999998152256011962890625"/>
            <parameter index="36" name="EQ バンド 5 バンド幅" parameterValue="0.63999998569488525390625"/>
            <parameter index="37" name="ハイパスフィルター有効" parameterValue="0"/>
            <parameter index="38" name="ハイパスカットオフ周波数" parameterValue="0"/>
            <parameter index="39" name="ハイパススロープ" parameterValue="0.4000000059604644775390625"/>
            <parameter index="40" name="ローパスフィルター有効" parameterValue="0"/>
            <parameter index="41" name="ローパスカットオフ周波数" parameterValue="0.833194315433502197265625"/>
            <parameter index="42" name="ローパススロープ" parameterValue="0.4000000059604644775390625"/>
            <parameter index="43" name="バイパス" parameterValue="0"/>
            <parameter index="44" name="LowGraphRange" parameterValue="1"/>
          </component>
        </trackAudioParameters>
        <editParameter parameterIndex="0" slotIndex="4294967280"/>
        <audioClip clipAutoCrossfade="true" crossFadeHeadClipID="-1" crossFadeTailClipID="-1" endPoint="999726" fileID="10" hue="-1" id="0" lockedInTime="false" looped="false" name="トラック 6_018" offline="false" select="false" sourceInPoint="0" sourceOutPoint="999726" startPoint="0" zOrder="0">
          <component componentGuid="43351b26-553c-4c72-bc93-1148b8d0553f" componentID="Audition.Fader" id="clipGain" name="volume" powered="true">
            <parameter index="0" name="volume" parameterValue="1"/>
            <parameter index="1" name="static gain" parameterValue="1"/>
          </component>
          <component componentGuid="9d011fa6-c887-4315-b66b-1cb0b721e5df" componentID="Audition.Mute" id="clipMute" name="Mute" powered="true">
            <parameter index="0" parameterValue="0"/>
            <parameter index="1" name="mute" parameterValue="0"/>
          </component>
          <component componentGuid="a47531ad-bbf0-4526-8690-92dc11a8448d" componentID="Audition.StereoPanner" id="clipPan" name="StereoPanner" powered="true">
            <parameter index="0" name="パン" parameterValue="0"/>
          </component>
          <fadeIn crossFadeLinkType="linkedAsymmetric" endPoint="0" shape="0" startPoint="0" type="cosine"/>
          <fadeOut crossFadeLinkType="linkedAsymmetric" endPoint="999726" shape="0" startPoint="999726" type="cosine"/>
          <take sourceInPoint="0"/>
          <editParameter parameterIndex="0" slotIndex="4294967280"/>
          <editParameter parameterIndex="0" slotIndex="4294967281"/>
          <channelMap>
            <channel index="0" sourceIndex="0"/>
          </channelMap>
        </audioClip>
        <audioClip clipAutoCrossfade="true" crossFadeHeadClipID="-1" crossFadeTailClipID="-1" endPoint="1863696" fileID="11" hue="-1" id="1" lockedInTime="false" looped="false" name="トラック 6_019" offline="false" select="false" sourceInPoint="0" sourceOutPoint="731766" startPoint="1131930" zOrder="1">
          <component componentGuid="7a656054-2247-4457-9b50-e983aac5dbf9" componentID="Audition.Fader" id="clipGain" name="volume" powered="true">
            <parameter index="0" name="volume" parameterValue="1"/>
            <parameter index="1" name="static gain" parameterValue="1"/>
          </component>
          <component componentGuid="e1ae3c65-8ac3-4463-bc0b-f1e23e4c9ac0" componentID="Audition.Mute" id="clipMute" name="Mute" powered="true">
            <parameter index="0" parameterValue="0"/>
            <parameter index="1" name="mute" parameterValue="0"/>
          </component>
          <component componentGuid="b9ff5179-65fe-41f9-8d2f-58e1d29787b8" componentID="Audition.StereoPanner" id="clipPan" name="StereoPanner" powered="true">
            <parameter index="0" name="パン" parameterValue="0"/>
          </component>
          <fadeIn crossFadeLinkType="linkedAsymmetric" endPoint="0" shape="0" startPoint="0" type="cosine"/>
          <fadeOut crossFadeLinkType="linkedAsymmetric" endPoint="731766" shape="0" startPoint="731766" type="cosine"/>
          <take sourceInPoint="0"/>
          <editParameter parameterIndex="0" slotIndex="4294967280"/>
          <editParameter parameterIndex="0" slotIndex="4294967281"/>
          <channelMap>
            <channel index="0" sourceIndex="0"/>
          </channelMap>
        </audioClip>
        <audioClip clipAutoCrossfade="true" crossFadeHeadClipID="-1" crossFadeTailClipID="-1" endPoint="2590571" fileID="12" hue="-1" id="2" lockedInTime="false" looped="false" name="トラック 6_020" offline="false" select="false" sourceInPoint="0" sourceOutPoint="681723" startPoint="1908848" zOrder="2">
          <component componentGuid="fff0ebca-bbfc-4181-8704-d943d292443e" componentID="Audition.Fader" id="clipGain" name="volume" powered="true">
            <parameter index="0" name="volume" parameterValue="1"/>
            <parameter index="1" name="static gain" parameterValue="1"/>
          </component>
          <component componentGuid="978e14de-2eea-4d88-9451-c182c263c694" componentID="Audition.Mute" id="clipMute" name="Mute" powered="true">
            <parameter index="0" parameterValue="0"/>
            <parameter index="1" name="mute" parameterValue="0"/>
          </component>
          <component componentGuid="b7dcc8c2-2c83-4702-9439-38dd7454eca3" componentID="Audition.StereoPanner" id="clipPan" name="StereoPanner" powered="true">
            <parameter index="0" name="パン" parameterValue="0"/>
          </component>
          <fadeIn crossFadeLinkType="linkedAsymmetric" endPoint="0" shape="0" startPoint="0" type="cosine"/>
          <fadeOut crossFadeLinkType="linkedAsymmetric" endPoint="681723" shape="0" startPoint="681723" type="cosine"/>
          <take sourceInPoint="0"/>
          <editParameter parameterIndex="0" slotIndex="4294967280"/>
          <editParameter parameterIndex="0" slotIndex="4294967281"/>
          <channelMap>
            <channel index="0" sourceIndex="0"/>
          </channelMap>
        </audioClip>
      </audioTrack>
      <masterTrack automationLaneOpenState="false" id="10000" index="7" select="false" visible="true">
        <trackParameters trackHeight="156" trackHue="-1" trackMinimized="false">
          <name>マスター</name>
        </trackParameters>
        <trackAudioParameters audioChannelType="stereo" automationMode="1" monitoring="false" recordArmed="false" solo="true" soloSafe="true">
          <trackOutput outputID="1" type="hardwareOutput"/>
          <trackInput inputID="-1"/>
          <component componentGuid="9a7a2775-06f6-4ac4-a2a1-025319d869bb" componentID="Audition.Fader" id="trackFader" name="volume" powered="true">
            <parameter index="0" name="volume" parameterValue="1"/>
            <parameter index="1" name="static gain" parameterValue="1"/>
          </component>
          <component componentGuid="aeb7e460-f2ec-470d-b509-8f08ca43b480" componentID="Audition.Mute" id="trackMute" name="Mute" powered="true">
            <parameter index="0" parameterValue="0"/>
            <parameter index="1" name="mute" parameterValue="0"/>
          </component>
          <component componentGuid="95791f8e-93aa-455f-83f1-193098aca353" componentID="Audition.StereoPanner" id="trackPan" name="StereoPanner" powered="true">
            <parameter index="0" name="パン" parameterValue="0"/>
          </component>
          <component componentGuid="01882b84-9e66-4111-8d43-0ecd6b8d0fde" componentID="Audition.EQ" id="trackEQ" name="EQ" powered="false">
            <parameter index="0" name="ローシェルビング周波数" parameterValue="0.000834028352983295917510986328125"/>
            <parameter index="1" name="ローシェルビングゲイン" parameterValue="0.5"/>
            <parameter index="2" name="ハイシェルビング周波数" parameterValue="0.74979150295257568359375"/>
            <parameter index="3" name="ハイシェルビングゲイン" parameterValue="0.5"/>
            <parameter index="4" name="EQ バンド 1 センター周波数" parameterValue="0.00125104258768260478973388671875"/>
            <parameter index="5" name="EQ バンド 1 Q" parameterValue="0.000199989997781813144683837890625"/>
            <parameter index="6" name="EQ バンド 1 ゲイン" parameterValue="0.5"/>
            <parameter index="7" name="EQ バンド 1 有効" parameterValue="1"/>
            <parameter index="8" name="EQ バンド 2 センター周波数" parameterValue="0.0075062550604343414306640625"/>
            <parameter index="9" name="EQ バンド 2 Q" parameterValue="0.000199989997781813144683837890625"/>
            <parameter index="10" name="EQ バンド 2 ゲイン" parameterValue="0.5"/>
            <parameter index="11" name="EQ バンド 2 有効" parameterValue="1"/>
            <parameter index="12" name="EQ バンド 3 センター周波数" parameterValue="0.0325271077454090118408203125"/>
            <parameter index="13" name="EQ バンド 3 Q" parameterValue="0.000199989997781813144683837890625"/>
            <parameter index="14" name="EQ バンド 3 ゲイン" parameterValue="0.5"/>
            <parameter index="15" name="EQ バンド 3 有効" parameterValue="1"/>
            <parameter index="16" name="EQ バンド 4 センター周波数" parameterValue="0.13261051476001739501953125"/>
            <parameter index="17" name="EQ バンド 4 Q" parameterValue="0.000199989997781813144683837890625"/>
            <parameter index="18" name="EQ バンド 4 ゲイン" parameterValue="0.5"/>
            <parameter index="19" name="EQ バンド 4 有効" parameterValue="1"/>
            <parameter index="20" name="EQ バンド 5 センター周波数" parameterValue="0.532944142818450927734375"/>
            <parameter index="21" name="EQ バンド 5 Q" parameterValue="0.000199989997781813144683837890625"/>
            <parameter index="22" name="EQ バンド 5 ゲイン" parameterValue="0.5"/>
            <parameter index="23" name="EQ バンド 5 有効" parameterValue="1"/>
            <parameter index="24" name="マスターゲイン" parameterValue="0.666666686534881591796875"/>
            <parameter index="25" name="ConstantQ" parameterValue="1"/>
            <parameter index="26" name="ローシェルビングフィルター次数" parameterValue="0"/>
            <parameter index="27" name="ハイシェルビングフィルター次数" parameterValue="0"/>
            <parameter index="28" name="ノイズレスモード" parameterValue="0"/>
            <parameter index="29" name="ローシェルビング有効" parameterValue="1"/>
            <parameter index="30" name="ハイシェルビング有効" parameterValue="1"/>
            <parameter index="31" name="オリジナルサンプルレート" parameterValue="0.25"/>
            <parameter index="32" name="EQ バンド 1 バンド幅" parameterValue="0.002499990165233612060546875"/>
            <parameter index="33" name="EQ バンド 2 バンド幅" parameterValue="0.0099999904632568359375"/>
            <parameter index="34" name="EQ バンド 3 バンド幅" parameterValue="0.0399999916553497314453125"/>
            <parameter index="35" name="EQ バンド 4 バンド幅" parameterValue="0.15999998152256011962890625"/>
            <parameter index="36" name="EQ バンド 5 バンド幅" parameterValue="0.63999998569488525390625"/>
            <parameter index="37" name="ハイパスフィルター有効" parameterValue="0"/>
            <parameter index="38" name="ハイパスカットオフ周波数" parameterValue="0"/>
            <parameter index="39" name="ハイパススロープ" parameterValue="0.4000000059604644775390625"/>
            <parameter index="40" name="ローパスフィルター有効" parameterValue="0"/>
            <parameter index="41" name="ローパスカットオフ周波数" parameterValue="0.833194315433502197265625"/>
            <parameter index="42" name="ローパススロープ" parameterValue="0.4000000059604644775390625"/>
            <parameter index="43" name="バイパス" parameterValue="0"/>
            <parameter index="44" name="LowGraphRange" parameterValue="1"/>
          </component>
        </trackAudioParameters>
        <editParameter parameterIndex="0" slotIndex="4294967280"/>
      </masterTrack>
    </tracks>
    <sessionState ctiPosition="2261398" smpteStart="0">
      <selectionState selectionDuration="0" selectionStart="2261398"/>
      <viewState horizontalViewDuration="5886216" horizontalViewStart="0" trackControlsWidth="224" verticalScrollOffset="-371"/>
      <timeFormatState beatsPerBar="4" beatsPerMinute="120" customFrameRate="12" linkToDefaultTimeSettings="true" noteLength="4" subdivisions="16" timeCodeDropFrame="false" timeCodeFrameRate="30" timeCodeNTSC="false" timeFormat="timeFormatDecimal"/>
      <mixingOptionState defaultPanModeLogarithmic="false" panPower="-3" playOverlappingClips="false"/>
    </sessionState>
    <xmpMetadata><![CDATA[<?xpacket begin="﻿" id="W5M0MpCehiHzreSzNTczkc9d"?>
<x:xmpmeta xmlns:x="adobe:ns:meta/" x:xmptk="Adobe XMP Core 5.6-c148 79.164036, 2019/08/13-01:06:57        ">
   <rdf:RDF xmlns:rdf="http://www.w3.org/1999/02/22-rdf-syntax-ns#">
      <rdf:Description rdf:about=""
            xmlns:xmp="http://ns.adobe.com/xap/1.0/"
            xmlns:xmpMM="http://ns.adobe.com/xap/1.0/mm/"
            xmlns:stEvt="http://ns.adobe.com/xap/1.0/sType/ResourceEvent#"
            xmlns:stRef="http://ns.adobe.com/xap/1.0/sType/ResourceRef#"
            xmlns:dc="http://purl.org/dc/elements/1.1/"
            xmlns:xmpDM="http://ns.adobe.com/xmp/1.0/DynamicMedia/">
         <xmp:CreatorTool>Adobe Audition 13.0 (Windows)</xmp:CreatorTool>
         <xmp:CreateDate>2019-12-30T16:55:37+09:00</xmp:CreateDate>
         <xmp:MetadataDate>2019-12-30T18:11:18+09:00</xmp:MetadataDate>
         <xmp:ModifyDate>2019-12-30T18:11:18+09:00</xmp:ModifyDate>
         <xmpMM:InstanceID>xmp.iid:ce6182d3-ed48-0d4f-a4fe-65e3450784f0</xmpMM:InstanceID>
         <xmpMM:DocumentID>xmp.did:ce6182d3-ed48-0d4f-a4fe-65e3450784f0</xmpMM:DocumentID>
         <xmpMM:OriginalDocumentID>xmp.did:017cf8cf-d5f1-2742-a4d9-382e4f6def59</xmpMM:OriginalDocumentID>
         <xmpMM:History>
            <rdf:Seq>
               <rdf:li rdf:parseType="Resource">
                  <stEvt:action>saved</stEvt:action>
                  <stEvt:instanceID>xmp.iid:017cf8cf-d5f1-2742-a4d9-382e4f6def59</stEvt:instanceID>
                  <stEvt:when>2019-12-30T16:55:37+09:00</stEvt:when>
                  <stEvt:softwareAgent>Adobe Audition 13.0 (Windows)</stEvt:softwareAgent>
                  <stEvt:changed>/metadata</stEvt:changed>
               </rdf:li>
               <rdf:li rdf:parseType="Resource">
                  <stEvt:action>saved</stEvt:action>
                  <stEvt:instanceID>xmp.iid:9a3089bd-c5c6-1e45-b57e-ccebbb9041c5</stEvt:instanceID>
                  <stEvt:when>2019-12-30T18:10:50+09:00</stEvt:when>
                  <stEvt:softwareAgent>Adobe Audition 13.0 (Windows)</stEvt:softwareAgent>
                  <stEvt:changed>/metadata</stEvt:changed>
               </rdf:li>
               <rdf:li rdf:parseType="Resource">
                  <stEvt:action>saved</stEvt:action>
                  <stEvt:instanceID>xmp.iid:928e5ae8-8457-0f43-817f-cd215b647109</stEvt:instanceID>
                  <stEvt:when>2019-12-30T18:10:50+09:00</stEvt:when>
                  <stEvt:softwareAgent>Adobe Audition 13.0 (Windows)</stEvt:softwareAgent>
                  <stEvt:changed>/</stEvt:changed>
               </rdf:li>
               <rdf:li rdf:parseType="Resource">
                  <stEvt:action>saved</stEvt:action>
                  <stEvt:instanceID>xmp.iid:f58a1b6c-2805-f241-9a02-ba9e4b03316b</stEvt:instanceID>
                  <stEvt:when>2019-12-30T18:11:18+09:00</stEvt:when>
                  <stEvt:softwareAgent>Adobe Audition 13.0 (Windows)</stEvt:softwareAgent>
                  <stEvt:changed>/metadata</stEvt:changed>
               </rdf:li>
               <rdf:li rdf:parseType="Resource">
                  <stEvt:action>saved</stEvt:action>
                  <stEvt:instanceID>xmp.iid:ce6182d3-ed48-0d4f-a4fe-65e3450784f0</stEvt:instanceID>
                  <stEvt:when>2019-12-30T18:11:18+09:00</stEvt:when>
                  <stEvt:softwareAgent>Adobe Audition 13.0 (Windows)</stEvt:softwareAgent>
                  <stEvt:changed>/</stEvt:changed>
               </rdf:li>
            </rdf:Seq>
         </xmpMM:History>
         <xmpMM:DerivedFrom rdf:parseType="Resource">
            <stRef:instanceID>xmp.iid:f58a1b6c-2805-f241-9a02-ba9e4b03316b</stRef:instanceID>
            <stRef:documentID>xmp.did:017cf8cf-d5f1-2742-a4d9-382e4f6def59</stRef:documentID>
            <stRef:originalDocumentID>xmp.did:017cf8cf-d5f1-2742-a4d9-382e4f6def59</stRef:originalDocumentID>
         </xmpMM:DerivedFrom>
         <dc:format>application/xml</dc:format>
         <xmpDM:Tracks>
            <rdf:Bag>
               <rdf:li rdf:parseType="Resource">
                  <xmpDM:trackName>CuePoint Markers</xmpDM:trackName>
                  <xmpDM:trackType>Cue</xmpDM:trackType>
                  <xmpDM:frameRate>f48000</xmpDM:frameRate>
               </rdf:li>
               <rdf:li rdf:parseType="Resource">
                  <xmpDM:trackName>CD Track Markers</xmpDM:trackName>
                  <xmpDM:trackType>Track</xmpDM:trackType>
                  <xmpDM:frameRate>f48000</xmpDM:frameRate>
               </rdf:li>
               <rdf:li rdf:parseType="Resource">
                  <xmpDM:trackName>Subclip Markers</xmpDM:trackName>
                  <xmpDM:trackType>InOut</xmpDM:trackType>
                  <xmpDM:frameRate>f48000</xmpDM:frameRate>
               </rdf:li>
            </rdf:Bag>
         </xmpDM:Tracks>
      </rdf:Description>
   </rdf:RDF>
</x:xmpmeta>
                                                                                                    
                                                                                                    
                                                                                                    
                                                                                                    
                                                                                                    
                                                                                                    
                                                                                                    
                                                                                                    
                                                                                                    
                                                                                                    
                                                                                                    
                                                                                                    
                                                                                                    
                                                                                                    
                                                                                                    
                                                                                                    
                                                                                                    
                                                                                                    
                                                                                                    
                                                                                                    
                           
<?xpacket end="w"?>]]></xmpMetadata>
    <clipGroups/>
    <metronome enabled="false" pattern="downBeat subdivision subdivision subdivision " soundSet="sticks">
      <metronomeTrack automationLaneOpenState="false" id="40000" index="0" select="false" visible="false">
        <trackParameters trackHeight="77" trackHue="-1" trackMinimized="false">
          <name>メトロノーム</name>
        </trackParameters>
        <trackAudioParameters audioChannelType="mono" automationMode="1" monitoring="false" recordArmed="false" solo="false" soloSafe="true">
          <trackOutput outputID="10000" type="trackID"/>
          <trackInput inputID="-1"/>
          <component componentGuid="cf751d05-485c-4366-a408-f9b4e37253c0" componentID="Audition.Fader" id="trackFader" name="volume" powered="true">
            <parameter index="0" name="volume" parameterValue="0.50118720531463623046875"/>
            <parameter index="1" name="static gain" parameterValue="1"/>
          </component>
          <component componentGuid="4bd9560c-a9ff-4bdc-894c-36438390a68e" componentID="Audition.Mute" id="trackMute" name="Mute" powered="true">
            <parameter index="0" parameterValue="0"/>
            <parameter index="1" name="mute" parameterValue="0"/>
          </component>
          <component componentGuid="6a3af77b-7d50-43d8-8b70-0f4a9d3125bd" componentID="Audition.StereoPanner" id="trackPan" name="StereoPanner" powered="true">
            <parameter index="0" name="パン" parameterValue="0"/>
          </component>
          <component componentGuid="9149b564-ff82-4b56-a3cc-f79b773b2b71" componentID="Audition.EQ" id="trackEQ" name="EQ" powered="false">
            <parameter index="0" name="ローシェルビング周波数" parameterValue="0.000834028352983295917510986328125"/>
            <parameter index="1" name="ローシェルビングゲイン" parameterValue="0.5"/>
            <parameter index="2" name="ハイシェルビング周波数" parameterValue="0.74979150295257568359375"/>
            <parameter index="3" name="ハイシェルビングゲイン" parameterValue="0.5"/>
            <parameter index="4" name="EQ バンド 1 センター周波数" parameterValue="0.00125104258768260478973388671875"/>
            <parameter index="5" name="EQ バンド 1 Q" parameterValue="0.000199989997781813144683837890625"/>
            <parameter index="6" name="EQ バンド 1 ゲイン" parameterValue="0.5"/>
            <parameter index="7" name="EQ バンド 1 有効" parameterValue="1"/>
            <parameter index="8" name="EQ バンド 2 センター周波数" parameterValue="0.0075062550604343414306640625"/>
            <parameter index="9" name="EQ バンド 2 Q" parameterValue="0.000199989997781813144683837890625"/>
            <parameter index="10" name="EQ バンド 2 ゲイン" parameterValue="0.5"/>
            <parameter index="11" name="EQ バンド 2 有効" parameterValue="1"/>
            <parameter index="12" name="EQ バンド 3 センター周波数" parameterValue="0.0325271077454090118408203125"/>
            <parameter index="13" name="EQ バンド 3 Q" parameterValue="0.000199989997781813144683837890625"/>
            <parameter index="14" name="EQ バンド 3 ゲイン" parameterValue="0.5"/>
            <parameter index="15" name="EQ バンド 3 有効" parameterValue="1"/>
            <parameter index="16" name="EQ バンド 4 センター周波数" parameterValue="0.13261051476001739501953125"/>
            <parameter index="17" name="EQ バンド 4 Q" parameterValue="0.000199989997781813144683837890625"/>
            <parameter index="18" name="EQ バンド 4 ゲイン" parameterValue="0.5"/>
            <parameter index="19" name="EQ バンド 4 有効" parameterValue="1"/>
            <parameter index="20" name="EQ バンド 5 センター周波数" parameterValue="0.532944142818450927734375"/>
            <parameter index="21" name="EQ バンド 5 Q" parameterValue="0.000199989997781813144683837890625"/>
            <parameter index="22" name="EQ バンド 5 ゲイン" parameterValue="0.5"/>
            <parameter index="23" name="EQ バンド 5 有効" parameterValue="1"/>
            <parameter index="24" name="マスターゲイン" parameterValue="0.666666686534881591796875"/>
            <parameter index="25" name="ConstantQ" parameterValue="1"/>
            <parameter index="26" name="ローシェルビングフィルター次数" parameterValue="0"/>
            <parameter index="27" name="ハイシェルビングフィルター次数" parameterValue="0"/>
            <parameter index="28" name="ノイズレスモード" parameterValue="0"/>
            <parameter index="29" name="ローシェルビング有効" parameterValue="1"/>
            <parameter index="30" name="ハイシェルビング有効" parameterValue="1"/>
            <parameter index="31" name="オリジナルサンプルレート" parameterValue="0.25"/>
            <parameter index="32" name="EQ バンド 1 バンド幅" parameterValue="0.002499990165233612060546875"/>
            <parameter index="33" name="EQ バンド 2 バンド幅" parameterValue="0.0099999904632568359375"/>
            <parameter index="34" name="EQ バンド 3 バンド幅" parameterValue="0.0399999916553497314453125"/>
            <parameter index="35" name="EQ バンド 4 バンド幅" parameterValue="0.15999998152256011962890625"/>
            <parameter index="36" name="EQ バンド 5 バンド幅" parameterValue="0.63999998569488525390625"/>
            <parameter index="37" name="ハイパスフィルター有効" parameterValue="0"/>
            <parameter index="38" name="ハイパスカットオフ周波数" parameterValue="0"/>
            <parameter index="39" name="ハイパススロープ" parameterValue="0.4000000059604644775390625"/>
            <parameter index="40" name="ローパスフィルター有効" parameterValue="0"/>
            <parameter index="41" name="ローパスカットオフ周波数" parameterValue="0.833194315433502197265625"/>
            <parameter index="42" name="ローパススロープ" parameterValue="0.4000000059604644775390625"/>
            <parameter index="43" name="バイパス" parameterValue="0"/>
            <parameter index="44" name="LowGraphRange" parameterValue="1"/>
          </component>
        </trackAudioParameters>
        <editParameter parameterIndex="0" slotIndex="4294967280"/>
      </metronomeTrack>
    </metronome>
    <properties>
      <property key="EssentialSoundConfigurations">[{"Guid":"a8b40e3e-13e7-4c1f-b382-96058f1f691d","Name":"$$$/app/Presets/DefaultPresetName=(Default)","PresetData":{"ModeID":"ambience","Models":{"model_ducking":{},"model_loudness":{"DefaultLoudness":{"type":"float","value":-30},"LoudnessStandard":{"type":"std::uint32_t","value":0},"MaxLoudness":{"type":"float","value":-12},"MinLoudness":{"type":"float","value":-42}},"model_soundeffects":{"ReverbPresets":{"type":"tree::any","value":{"$$$/app/Presets/EssentialSound/ReverbPreset/LargeRoomAmbience=Large Room Ambience":{"type":"array::float","value":[0.051507499068975449,0.32432401180267334,0.29292899370193481,0.30000001192092896,0.20000000298023224,0,0.14285700023174286,0.40000000596046448,0.5,0.69999998807907104,0.30000001192092896,0.25125628709793091,0.03125]},"$$$/app/Presets/EssentialSound/ReverbPreset/OutsideAmbience=Outside Ambience":{"type":"array::float","value":[0.091708503663539886,0.043893899768590927,1,0.5,0.20000000298023224,0.80000001192092896,0.18367299437522888,1,0.5,0,0.80000001192092896,0.25125628709793091,0.03125]},"$$$/app/Presets/EssentialSound/ReverbPreset/RoomAmbience=Room Ambience":{"type":"array::float","value":[0.057788901031017303,0.44944900274276733,0.49494898319244385,0.89999997615814209,0.10000000149011612,0.15000000596046448,0.081632703542709351,0.40000000596046448,0.5,0.80000001192092896,0.20000000298023224,0.25125628709793091,0.03125]},"$$$/app/Presets/EssentialSound/ReverbPreset/WindEffect=Wind Effect":{"type":"array::float","value":[0.19597999751567841,0.6896899938583374,0.69696998596191406,0.25,0.5,0.5,0.23469400405883789,0.51999998092651367,0.5,0.75,0.25,0.25125628709793091,0.03125]}}}},"model_stereowidth":{},"model_volume":{"MaxGain":{"type":"float","value":15},"MinGain":{"type":"float","value":-60}}},"Version":1},"Type":"1c19ca71-c24c-49cd-8dd5-2cc46018507a","Version":1},{"Guid":"58dc27a8-6a2a-480c-bd0c-4b45fff346a6","Name":"$$$/app/Presets/DefaultPresetName=(Default)","PresetData":{"ModeID":"dialog","Models":{"model_clarity":{"EQPresets":{"type":"tree::any","value":{"$$$/app/Presets/EssentialSound/EQPreset/BackgroundVoice=Background Voice":{"type":"array::float","value":[0.12099699676036835,0.5,0.39240506291389465,0,0.5,0.5,0.5,0.5,0.5,0.47827938199043274,0.45772689580917358,0.45778733491897583,0.47946760058403015,0.5,0]},"$$$/app/Presets/EssentialSound/EQPreset/Intercom=Intercom":{"type":"array::float","value":[0.19432899355888367,0.5,1,0,0.071499988436698914,0.071499988436698914,0.071499988436698914,0.40238627791404724,0.48571401834487915,0.5,0.55155748128890991,0.59602576494216919,0.22246670722961426,0.071499988436698914,0]},"$$$/app/Presets/EssentialSound/EQPreset/LockedInTheTrunk=Locked in the Trunk":{"type":"array::float","value":[0.12099699676036835,0.5,0.79746836423873901,0,0.5,0.5,0.5,0.5,0.5,0.32846158742904663,0.15721426904201508,0.15721426904201508,0.15721426904201508,0.15721426904201508,0]},"$$$/app/Presets/EssentialSound/EQPreset/OldRadio=Old Radio":{"type":"array::float","value":[0.12099699676036835,0.5,0.79746836423873901,0,0.15721426904201508,0.15721426904201508,0.15721426904201508,0.28442040085792542,0.48315632343292236,0.36498492956161499,0.52853888273239136,0.43511500954627991,0.27154684066772461,0.15721426904201508,0]},"$$$/app/Presets/EssentialSound/EQPreset/OnTheTelephone=On the Telephone":{"type":"array::float","value":[0.12099699676036835,0.5,0.39240506291389465,0,0.32864287495613098,0.32864287495613098,0.32864287495613098,0.32864287495613098,0.48571401834487915,0.53071397542953491,0.53071397542953491,0.48357096314430237,0.32864287495613098,0.32864287495613098,0]},"$$$/app/Presets/EssentialSound/EQPreset/OutsideOfTheRoom=Outside of the Room":{"type":"array::float","value":[0.12099699676036835,0.5,0.79746836423873901,0,0.42539370059967041,0.47865453362464905,0.5,0.5,0.48571401834487915,0.40073278546333313,0.25656309723854065,0.15721426904201508,0.15721426904201508,0.15721426904201508,0]},"$$$/app/Presets/EssentialSound/EQPreset/PodcastVoice=Podcast Voice":{"type":"array::float","value":[0.12099699676036835,0.5,0.39240506291389465,0,0.5,0.5,0.5,0.51789408922195435,0.50770342350006104,0.5,0.51789408922195435,0.528114914894104,0.5102812647819519,0.5,0]},"$$$/app/Presets/EssentialSound/EQPreset/SubtleBoostFemale=Subtle Boost (Female)":{"type":"array::float","value":[0.096553400158882141,0.5,0.29113924503326416,0,0.5,0.5,0.5,0.5,0.5,0.51933407783508301,0.54642897844314575,0.52706766128540039,0.5,0.5,0]},"$$$/app/Presets/EssentialSound/EQPreset/SubtleBoostMale=Subtle Boost (Male)":{"type":"array::float","value":[0.096553400158882141,0.5,0.29113924503326416,0,0.5,0.5,0.5,0.5,0.5,0.5135338306427002,0.54642897844314575,0.51933407783508301,0.5,0.5,0]},"$$$/app/Presets/EssentialSound/EQPreset/ThatPublicRadioSound=That Public Radio Sound":{"type":"array::float","value":[0.12099699676036835,0.5,0.79746836423873901,0,0.15721426904201508,0.15721426904201508,0.15721426904201508,0.36334344744682312,0.49468311667442322,0.5,0.5,0.5,0.5,0.5,0]},"$$$/app/Presets/EssentialSound/EQPreset/VocalPresence=Vocal Presence":{"type":"array::float","value":[0.096553400158882141,0.5,0.32489451766014099,0,0.3572143018245697,0.3572143018245697,0.46428570151329041,0.47857141494750977,0.4763694703578949,0.49570354819297791,0.55924957990646362,0.56523394584655762,0.50859290361404419,0.46992480754852295,0]}}}},"model_loudness":{"DefaultLoudness":{"type":"float","value":-23},"LoudnessStandard":{"type":"std::uint32_t","value":0},"MaxLoudness":{"type":"float","value":-12},"MinLoudness":{"type":"float","value":-42}},"model_restoration":{"ReduceNoiseMaxSetting":{"type":"array::float","value":[1,0,0,0,0]},"ReduceNoiseMinSetting":{"type":"array::float","value":[0,0,0,0,0]},"ReduceReverbMaxSetting":{"type":"array::float","value":[1,0,1,0,0]},"ReduceReverbMinSetting":{"type":"array::float","value":[0,0,1,0,0]},"ReduceRumbleMaxSetting":{"type":"array::float","value":[1,0.061583578586578369,0.375,0,0,0.00083333335351198912,1,0,1,0.0390625,0.00083408987848088145,0,0.0041666668839752674,0.00022554649331141263,0.0046875001862645149,0.75,0.0052083334885537624,0.75,1,0.75,0.0040520834736526012,0.75,0.0042629167437553406,0.00022554649331141263,0.0064883334562182426,0.00022554649331141263,0.006866666954010725,0.75,0.0071704164147377014,0.00022554649331141263,0.01041458360850811,0.00022554649331141263,0.010900000110268593,0.75,0.011407917365431786,0.00022554649331141263,0.015606249682605267,0.00022554649331141263,0.016333334147930145,0.75,0.017094582319259644,0.00022554649331141263,0.026243748143315315,0.00022554649331141263,0.0274666678160429,0.75,0.028746666386723518,0.00022554649331141263,0.041658751666545868,0.00022554649331141263,0.043600000441074371,0.75,0.045631669461727142,0.00022554649331141263,0.062424581497907639,0.00022554649331141263,0.065333336591720581,0.75,0.068377502262592316,0.00022554649331141263,0.10497540980577469,0.00022554649331141263,0.1098666712641716,0.75,0.11498583108186722,0.00022554649331141263,0.16663584113121033,0.00022554649331141263,0.17440000176429749,0.75,0.18252624571323395,0.00022554649331141263,0.91874998807907104,0.00022554649331141263,1,0.00022554649331141263,0,0,0,0,0,0,0,0,0,0,0,0,0,0,0,0,0,0,0,0,0,0,0,0,0,0,0,0,0,0,0,0,0,0,0,0,0,0,0,0,0,0,0,0,0,0,0,0,0,0,0,0,0,0,0,0,0,0,0,0,0,0,0,0,0,0,0,0,0,0,0,0,0,0,0,0,0,0,0,0,0,0,0,0,0,0,0,0,0,0,0,0,0,0,0,0,0,0,0,0,0,0,0,0,0,0,0,0,0,0,0,0,0,0,0,0,0,0,0,0,0,0,0,0,0,0,0,0,0,0,0,0,0,0,0,0,0,0,0,0,0,0,0,0,0,0,0,0,0,0,0,0,0,0,0,0,0,0,0,0,0,0,0,0,0,0,0,0,0,0,0,0,0,0,0,0,0,0,0,0,0,0,0,0,0,0,0,0,0,0]},"ReduceRumbleMinSetting":{"type":"array::float","value":[1,0.061583578586578369,0.375,0,0,0.00083333335351198912,1,0,1,0.0390625,0.00083408987848088145,0.75,0.0041666668839752674,0.75,0.0046875001862645149,0.75,0.0052083334885537624,0.75,1,0.75,0.91874998807907104,0.61237245798110962,1,0.61237245798110962,0,0,0,0,0,0,0,0,0,0,0,0,0,0,0,0,0,0,0,0,0,0,0,0,0,0,0,0,0,0,0,0,0,0,0,0,0,0,0,0,0,0,0,0,0,0,0,0,0,0,0,0,0,0,0,0,0,0,0,0,0,0,0,0,0,0,0,0,0,0,0,0,0,0,0,0,0,0,0,0,0,0,0,0,0,0,0,0,0,0,0,0,0,0,0,0,0,0,0,0,0,0,0,0,0,0,0,0,0,0,0,0,0,0,0,0,0,0,0,0,0,0,0,0,0,0,0,0,0,0,0,0,0,0,0,0,0,0,0,0,0,0,0,0,0,0,0,0,0,0,0,0,0,0,0,0,0,0,0,0,0,0,0,0,0,0,0,0,0,0,0,0,0,0,0,0,0,0,0,0,0,0,0,0,0,0,0,0,0,0,0,0,0,0,0,0,0,0,0,0,0,0,0,0,0,0,0,0,0,0,0,0,0,0,0,0,0,0,0,0,0,0,0,0,0,0,0,0,0,0,0,0,0,0,0,0,0,0,0,0,0,0]},"ReduceSibilanceMaxSetting":{"type":"array::float","value":[0.5,0.19983997941017151,0.18367347121238708,0.26086956262588501,0.52702701091766357,0,1,0,0,0,0,0.75,1,1,0.40000000596046448]},"ReduceSibilanceMinSetting":{"type":"array::float","value":[0.875,0.19983997941017151,0.18367347121238708,0.19130434095859528,0.25675675272941589,0,1,0,0,0,0,0.75,1,1,0.40000000596046448]}},"model_soundeffects":{"ReverbPresets":{"type":"tree::any","value":{"$$$/app/Presets/EssentialSound/ReverbPreset/Auditorium=Auditorium":{"type":"array::float","value":[0.013047545216977596,0.15895412862300873,1,0.89999997615814209,0,0.52007436752319336,0.41663265228271484,0.46000000834465027,0.5,0.73000001907348633,0.15999999642372131,0.75376886129379272,0.03125]},"$$$/app/Presets/EssentialSound/ReverbPreset/Church=Church":{"type":"array::float","value":[0.032663315534591675,0.39939939975738525,0.79797977209091187,0.25,0.5,0.5,0.2297959178686142,0.72000002861022949,0.5,0.62999999523162842,0.87999999523162842,0.25125628709793091,0.03125]},"$$$/app/Presets/EssentialSound/ReverbPreset/LargeReflectiveRoom=Large Reflective Room":{"type":"array::float","value":[0.0074449013918638229,0.098988421261310577,0.79890537261962891,0.89999997615814209,0.10000000149011612,0.40110713243484497,0.060284845530986786,0.27522978186607361,0.5,0.73000001907348633,0.31999999284744263,0.25125628709793091,0.03125]},"$$$/app/Presets/EssentialSound/ReverbPreset/OutsideTheClub=Outside the Club":{"type":"array::float","value":[0.020615793764591217,0.050136558711528778,0.69696998596191406,0.25,0.094355784356594086,0.22242647409439087,0.1071428582072258,0.2800000011920929,0.5,0.73000001907348633,0.46000000834465027,0.25125628709793091,0.03125]},"$$$/app/Presets/EssentialSound/ReverbPreset/SmallDryRoom=Small Dry Room":{"type":"array::float","value":[0.24623115360736847,0.69975000619888306,0.29292899370193481,0.40000000596046448,0.20000000298023224,0.40000000596046448,0.039285715669393539,0.10000000149011612,0.5,1,0.5,0.75376886129379272,0.03125]},"$$$/app/Presets/EssentialSound/ReverbPreset/ThickenVoice=Thicken Voice":{"type":"array::float","value":[0.19597999751567841,0.23931467533111572,0.69696998596191406,0.25,0.5,0.53999996185302734,0.020408162847161293,0.20945435762405396,0.5,1,0.34999999403953552,0.25125628709793091,0.03125]},"$$$/app/Presets/EssentialSound/ReverbPreset/WarmRoom=Warm Room":{"type":"array::float","value":[0.020100502297282219,0.074074074625968933,0.49494948983192444,0.40000000596046448,0.74960309267044067,0.40000000596046448,0.1239795908331871,0.67000001668930054,0.5,0.85000002384185791,0.56000000238418579,0.25125628709793091,0.03125]},"$$$/app/Presets/EssentialSound/ReverbPreset/WarmVoice=Warm Voice":{"type":"array::float","value":[0.19597989320755005,0.89989989995956421,0,0.40000000596046448,0.20000000298023224,0.40000000596046448,0.10204081982374191,0.090000003576278687,0.5,1,0.30000001192092896,0.25125628709793091,0.03125]}}}},"model_volume":{"MaxGain":{"type":"float","value":15},"MinGain":{"type":"float","value":-60}}},"Version":2},"Type":"1c19ca71-c24c-49cd-8dd5-2cc46018507a","Version":1},{"Guid":"353811fa-4179-435e-8e5e-23028ba15a7a","Name":"$$$/app/Presets/DefaultPresetName=(Default)","PresetData":{"ModeID":"generic","Models":{"model_loudness":{"DefaultLoudness":{"type":"float","value":-24},"LoudnessStandard":{"type":"std::uint32_t","value":0},"MaxLoudness":{"type":"float","value":-12},"MinLoudness":{"type":"float","value":-42}},"model_volume":{"MaxGain":{"type":"float","value":15},"MinGain":{"type":"float","value":-60}}},"Version":1},"Type":"1c19ca71-c24c-49cd-8dd5-2cc46018507a","Version":1},{"Guid":"31ba96a6-5d3e-4d89-b1e1-1dbe3c055d0c","Name":"$$$/app/Presets/DefaultPresetName=(Default)","PresetData":{"ModeID":"music","Models":{"model_ducking":{},"model_duration":{},"model_loudness":{"DefaultLoudness":{"type":"float","value":-25},"LoudnessStandard":{"type":"std::uint32_t","value":0},"MaxLoudness":{"type":"float","value":-12},"MinLoudness":{"type":"float","value":-42}},"model_volume":{"MaxGain":{"type":"float","value":15},"MinGain":{"type":"float","value":-60}}},"Version":1},"Type":"1c19ca71-c24c-49cd-8dd5-2cc46018507a","Version":1},{"Guid":"cea63332-1adc-44a9-a6eb-5490f965859b","Name":"$$$/app/Presets/DefaultPresetName=(Default)","PresetData":{"ModeID":"sfx","Models":{"model_loudness":{"DefaultLoudness":{"type":"float","value":-21},"LoudnessStandard":{"type":"std::uint32_t","value":0},"MaxLoudness":{"type":"float","value":-12},"MinLoudness":{"type":"float","value":-42}},"model_pan":{},"model_soundeffects":{"ReverbPresets":{"type":"tree::any","value":{"$$$/app/Presets/EssentialSound/ReverbPreset/HeavyReverb=Heavy Reverb":{"type":"array::float","value":[0.13316600024700165,0.29929900169372559,1,0.95999997854232788,0.85000002384185791,0.5,0.51530599594116211,0.30000001192092896,0.5,0.5,0.5,0.25125628709793091,0.0625]},"$$$/app/Presets/EssentialSound/ReverbPreset/LightReverb=Light Reverb":{"type":"array::float","value":[0.095477402210235596,0.29929900169372559,0.090909101068973541,1,1,0.80000001192092896,0.22449000179767609,0.60000002384185791,0.5,0.69999998807907104,0.30000001192092896,0.25125628709793091,0.0625]},"$$$/app/Presets/EssentialSound/ReverbPreset/OutsideReverb=Outside Reverb":{"type":"array::float","value":[0.091708503663539886,0.043893899768590927,1,0.5,0.20000000298023224,0.80000001192092896,0.18367299437522888,1,0.5,0,0.80000001192092896,0.25125628709793091,0.0625]},"$$$/app/Presets/EssentialSound/ReverbPreset/RoomReverb=Room Reverb":{"type":"array::float","value":[0.057788901031017303,0.44944900274276733,0.49494898319244385,0.89999997615814209,0.10000000149011612,0.15000000596046448,0.081632703542709351,0.40000000596046448,0.5,0.80000001192092896,0.20000000298023224,0.25125628709793091,0.0625]}}}},"model_volume":{"MaxGain":{"type":"float","value":15},"MinGain":{"type":"float","value":-60}}},"Version":1},"Type":"1c19ca71-c24c-49cd-8dd5-2cc46018507a","Version":1}]</property>
    </properties>
  </session>

  <files>
    <file absolutePath="C:\Users\tohaya\Documents\Adobe\Audition\13.0\1230\1230_Recorded\トラック 1_001.wav" id="0" mediaHandler="AmioWav" relativePath="1230_Recorded/トラック 1_001.wav"/>
    <file absolutePath="C:\Users\tohaya\Documents\Adobe\Audition\13.0\1230\1230_Recorded\トラック 1_002.wav" id="1" mediaHandler="AmioWav" relativePath="1230_Recorded/トラック 1_002.wav"/>
    <file absolutePath="C:\Users\tohaya\Documents\Adobe\Audition\13.0\1230\1230_Recorded\トラック 2_003.wav" id="2" mediaHandler="AmioWav" relativePath="1230_Recorded/トラック 2_003.wav"/>
    <file absolutePath="C:\Users\tohaya\Documents\Adobe\Audition\13.0\1230\1230_Recorded\トラック 2_009.wav" id="3" mediaHandler="AmioWav" relativePath="1230_Recorded/トラック 2_009.wav"/>
    <file absolutePath="C:\Users\tohaya\Documents\Adobe\Audition\13.0\1230\1230_Recorded\トラック 3_010.wav" id="4" mediaHandler="AmioWav" relativePath="1230_Recorded/トラック 3_010.wav"/>
    <file absolutePath="C:\Users\tohaya\Documents\Adobe\Audition\13.0\1230\1230_Recorded\トラック 4_011.wav" id="5" mediaHandler="AmioWav" relativePath="1230_Recorded/トラック 4_011.wav"/>
    <file absolutePath="C:\Users\tohaya\Documents\Adobe\Audition\13.0\1230\1230_Recorded\トラック 4_012.wav" id="6" mediaHandler="AmioWav" relativePath="1230_Recorded/トラック 4_012.wav"/>
    <file absolutePath="C:\Users\tohaya\Documents\Adobe\Audition\13.0\1230\1230_Recorded\トラック 5_014.wav" id="7" mediaHandler="AmioWav" relativePath="1230_Recorded/トラック 5_014.wav"/>
    <file absolutePath="C:\Users\tohaya\Documents\Adobe\Audition\13.0\1230\1230_Recorded\トラック 5_016.wav" id="8" mediaHandler="AmioWav" relativePath="1230_Recorded/トラック 5_016.wav"/>
    <file absolutePath="C:\Users\tohaya\Documents\Adobe\Audition\13.0\1230\1230_Recorded\トラック 5_017.wav" id="9" mediaHandler="AmioWav" relativePath="1230_Recorded/トラック 5_017.wav"/>
    <file absolutePath="C:\Users\tohaya\Documents\Adobe\Audition\13.0\1230\1230_Recorded\トラック 6_018.wav" id="10" mediaHandler="AmioWav" relativePath="1230_Recorded/トラック 6_018.wav"/>
    <file absolutePath="C:\Users\tohaya\Documents\Adobe\Audition\13.0\1230\1230_Recorded\トラック 6_019.wav" id="11" mediaHandler="AmioWav" relativePath="1230_Recorded/トラック 6_019.wav"/>
    <file absolutePath="C:\Users\tohaya\Documents\Adobe\Audition\13.0\1230\1230_Recorded\トラック 6_020.wav" id="12" mediaHandler="AmioWav" relativePath="1230_Recorded/トラック 6_020.wav"/>
    <file absolutePath="C:\Users\tohaya\Documents\Adobe\Audition\13.0\1230\1230_Recorded\トラック 3_021.wav" id="13" mediaHandler="AmioWav" relativePath="1230_Recorded/トラック 3_021.wav"/>
    <file absolutePath="C:\Users\tohaya\Documents\Adobe\Audition\13.0\1230\1230_Recorded\トラック 3_022.wav" id="14" mediaHandler="AmioWav" relativePath="1230_Recorded/トラック 3_022.wav"/>
    <file absolutePath="C:\Users\tohaya\Documents\Adobe\Audition\13.0\1230\1230_Recorded\トラック 1_023.wav" id="15" mediaHandler="AmioWav" relativePath="1230_Recorded/トラック 1_023.wav"/>
    <file absolutePath="C:\Users\tohaya\Documents\Adobe\Audition\13.0\1230\1230_Recorded\トラック 1_024.wav" id="16" mediaHandler="AmioWav" relativePath="1230_Recorded/トラック 1_024.wav"/>
    <file absolutePath="C:\Users\tohaya\Documents\Adobe\Audition\13.0\1230\1230_Recorded\トラック 2_025.wav" id="17" mediaHandler="AmioWav" relativePath="1230_Recorded/トラック 2_025.wav"/>
    <file absolutePath="C:\Users\tohaya\Documents\Adobe\Audition\13.0\1230\1230_Recorded\トラック 2_027.wav" id="18" mediaHandler="AmioWav" relativePath="1230_Recorded/トラック 2_027.wav"/>
    <file absolutePath="C:\Users\tohaya\Documents\Adobe\Audition\13.0\1230\1230_Recorded\トラック 2_026.wav" id="19" mediaHandler="AmioWav" relativePath="1230_Recorded/トラック 2_026.wav"/>
  </files>

  <audioDevice inputID="1D58A5F2-E70A-43C6-A712-7194CEDE46CE" outputID="2760083D-A359-44AC-913D-42FB2BC2C842">
    <inputPort id="1" name="デフォルトのステレオ入力"/>
    <inputPort id="2" name="[01M] ライン (Steinberg UR22) 1"/>
    <inputPort id="3" name="[02M] ライン (Steinberg UR22) 2"/>
    <inputPort id="4" name="[01S] ライン (Steinberg UR22) 1"/>
    <outputPort id="1" name="デフォルト出力"/>
    <outputPort id="2" name="[01M] ライン (Steinberg UR22) 1"/>
    <outputPort id="3" name="[02M] ライン (Steinberg UR22) 2"/>
    <outputPort id="4" name="デフォルトのステレオ出力"/>
    <outputPort id="5" name="[01S] ライン (Steinberg UR22) 1"/>
    <outputPort id="6" name="デフォルトのサラウンド出力"/>
  </audioDevice>

</sesx>
